<?xml version="1.0" standalone="no"?><!DOCTYPE svg PUBLIC "-//W3C//DTD SVG 1.1//EN" "http://www.w3.org/Graphics/SVG/1.1/DTD/svg11.dtd" ><svg xmlns="http://www.w3.org/2000/svg"><metadata></metadata><defs><font id="Monotype - Franklin Gothic Book Regular" horiz-adv-x="2172"><font-face font-family="Franklin Gothic Book" font-weight="400" font-stretch="normal" units-per-em="2048" panose-1="2 11 5 3 2 1 2 2 2 4" ascent="1877" descent="-445" x-height="4" bbox="-393 -677 2097 1954" underline-thickness="102" underline-position="-256" unicode-range="U+0020-fb02" /><missing-glyph horiz-adv-x="2048" d="M256 0 l0 1536 l1536 0 l0 -1536 l-1536 0 ZM384 128 l1280 0 l0 1280 l-1280 0 l0 -1280 Z" /><glyph glyph-name="space" unicode=" " d="" /><glyph glyph-name="exclam" unicode="!" d="M315 340 l-84 0 l-74 1025 l236 0 l-78 -1025 ZM380 0 l-209 0 l0 212 l209 0 l0 -212 Z" /><glyph glyph-name="quotedbl" unicode="&quot;" d="M236 837 l-100 0 l-30 528 l160 0 l-30 -528 ZM511 837 l-100 0 l-29 528 l159 0 l-30 -528 Z" /><glyph glyph-name="numbersign" unicode="#" d="M1136 965 l-21 -123 l-210 0 l-50 -286 l209 0 l-21 -123 l-211 0 l-77 -433 l-130 0 l77 433 l-290 0 l-77 -433 l-130 0 l77 433 l-218 0 l22 123 l218 0 l51 286 l-219 0 l22 123 l219 0 l71 400 l130 0 l-71 -400 l287 0 l72 400 l130 0 l-71 -400 l211 0 ZM773 842 l-288 0 l-50 -286 l288 0 l50 286 Z" /><glyph glyph-name="dollar" unicode="$" d="M646 -150 l-122 0 l0 193 q-334 36 -428 313 l135 53 q78 -211 293 -229 l0 464 q-233 56 -302.5 146 q-69.5 90 -69.5 200 q0 290 372 352 l0 165 l122 0 l0 -165 q295 -26 387 -264 l-136 -44 q-55 163 -251 176 l0 -428 q413 -74 413 -372 q0 -128 -94 -237.5 q-94 -109.5 -319 -129.5 l0 -193 ZM524 1210 q-103 -8 -164.5 -63 q-61.5 -55 -61.5 -139 q0 -165 226 -208 l0 410 ZM646 180 q122 5 190.5 67 q68.5 62 68.5 149 q0 185 -259 221 l0 -437 Z" /><glyph glyph-name="percent" unicode="%" d="M357 669 q-131 0 -206.5 104 q-75.5 104 -75.5 252 q0 149 73 251.5 q73 102.5 206 102.5 q141 0 212.5 -108 q71.5 -108 71.5 -250 q0 -141 -74 -246.5 q-74 -105.5 -207 -105.5 ZM359 748 q86 0 128.5 75 q42.5 75 42.5 189 q0 127 -43.5 208 q-43.5 81 -133.5 81 q-171 0 -171 -272 q0 -281 177 -281 ZM388 0 l-126 0 l827 1365 l124 0 l-825 -1365 ZM1120 -14 q-133 0 -207.5 105 q-74.5 105 -74.5 252 q0 148 72.5 250.5 q72.5 102.5 206.5 102.5 q140 0 211 -108 q71 -108 71 -250 q0 -140 -73.5 -246 q-73.5 -106 -205.5 -106 ZM1122 66 q86 0 128.5 74 q42.5 74 42.5 189 q0 123 -43 206.5 q-43 83.5 -134 83.5 q-173 0 -173 -273 q0 -280 179 -280 Z" /><glyph glyph-name="ampersand" unicode="&amp;" d="M1291 144 l0 -144 q-91 -15 -148 -15 q-42 0 -89.5 15 q-47.5 15 -138.5 109 q-162 -136 -366 -136 q-207 0 -333.5 118.5 q-126.5 118.5 -126.5 286.5 q0 134 89.5 247.5 q89.5 113.5 264.5 170.5 q-132 189 -132 311 q0 116 83 201 q83 85 221 85 q140 0 229.5 -79 q89.5 -79 89.5 -213 q0 -218 -287 -354 l288 -436 q140 177 185 436 l146 -31 q-61 -295 -251 -511 q65 -71 146 -71 q37 0 130 10 ZM578 845 q161 89 194 143 q33 54 33 104 q0 71 -51 122.5 q-51 51.5 -130 51.5 q-72 0 -119 -45.5 q-47 -45.5 -47 -102.5 q0 -88 120 -273 ZM509 693 q-142 -61 -195.5 -131.5 q-53.5 -70.5 -53.5 -176.5 q0 -145 92.5 -214 q92.5 -69 215.5 -69 q156 0 269 109 l-328 482 Z" /><glyph glyph-name="quotesingle" unicode="&#39;" d="M236 837 l-100 0 l-30 528 l160 0 l-30 -528 Z" /><glyph glyph-name="parenleft" unicode="(" d="M506 -341 l-105 0 q-294 386 -294 855 q0 448 294 851 l105 0 q-253 -377 -253 -853 q0 -454 253 -853 Z" /><glyph glyph-name="parenright" unicode=")" d="M95 1365 l104 0 q295 -386 295 -855 q0 -448 -295 -851 l-104 0 q253 377 253 853 q0 454 -253 853 Z" /><glyph glyph-name="asterisk" unicode="*" d="M561 989 l-38 376 l154 0 l-37 -376 l354 155 l47 -144 l-388 -76 l257 -282 l-126 -88 l-184 324 l-183 -324 l-126 88 l256 282 l-387 76 l46 144 l355 -155 Z" /><glyph glyph-name="plus" unicode="+" d="M123 753 l403 0 l0 421 l150 0 l0 -421 l403 0 l0 -138 l-403 0 l0 -421 l-150 0 l0 421 l-403 0 l0 138 Z" /><glyph glyph-name="comma" unicode="," d="M365 228 l0 -205 l-149 -280 l-85 0 l118 257 l-102 0 l0 228 l218 0 Z" /><glyph glyph-name="hyphen" unicode="-" d="M482 573 l0 -122 l-452 0 l0 122 l452 0 Z" /><glyph glyph-name="period" unicode="." d="M368 224 l0 -224 l-223 0 l0 224 l223 0 Z" /><glyph glyph-name="slash" unicode="/" d="M38 -341 l-134 0 l824 1706 l134 0 l-824 -1706 Z" /><glyph glyph-name="zero" unicode="0" d="M602 -27 q-236 0 -377 204.5 q-141 204.5 -141 507.5 q0 298 134 503 q134 205 379 205 q256 0 388.5 -214 q132.5 -214 132.5 -502 q0 -282 -136 -493 q-136 -211 -380 -211 ZM603 107 q173 0 256 156.5 q83 156.5 83 393.5 q0 259 -85 431 q-85 172 -262 172 q-171 0 -254.5 -157 q-83.5 -157 -83.5 -413 q0 -266 88 -424.5 q88 -158.5 258 -158.5 Z" /><glyph glyph-name="one" unicode="1" d="M1144 127 l0 -127 l-956 0 l0 127 l410 0 l0 1054 q-181 -189 -376 -295 l0 172 q269 141 417 335 l122 0 l0 -1266 l383 0 Z" /><glyph glyph-name="two" unicode="2" d="M1075 142 l0 -142 l-969 0 l0 142 q574 430 684.5 566.5 q110.5 136.5 110.5 270.5 q0 125 -93 202 q-93 77 -214 77 q-125 0 -221 -84.5 q-96 -84.5 -108 -229.5 l-159 48 q100 401 490 401 q211 0 343 -120 q132 -120 132 -293 q0 -119 -62.5 -229 q-62.5 -110 -236.5 -263 q-174 -153 -450 -346 l753 0 Z" /><glyph glyph-name="three" unicode="3" d="M396 642 l0 136 l156 0 q171 0 244.5 70 q73.5 70 73.5 170 q0 110 -82 174.5 q-82 64.5 -206 64.5 q-230 0 -318 -222 l-154 44 q132 314 488 314 q200 0 323 -106.5 q123 -106.5 123 -256.5 q0 -116 -74 -202.5 q-74 -86.5 -190 -108.5 q130 -19 223.5 -109 q93.5 -90 93.5 -233 q0 -171 -139 -287.5 q-139 -116.5 -381 -116.5 q-192 0 -328.5 91 q-136.5 91 -188.5 242 l159 53 q72 -247 355 -247 q184 0 264.5 78.5 q80.5 78.5 80.5 187.5 q0 118 -96.5 191 q-96.5 73 -270.5 73 l-156 0 Z" /><glyph glyph-name="four" unicode="4" d="M903 0 l-165 0 l0 325 l-675 0 l0 115 l626 954 l214 0 l0 -934 l221 0 l0 -135 l-221 0 l0 -325 ZM738 460 l0 646 q0 70 3 151 q-43 -79 -74 -128 l-426 -669 l497 0 Z" /><glyph glyph-name="five" unicode="5" d="M1001 1365 l-14 -147 l-671 0 l-29 -443 q152 149 334 149 q192 0 331.5 -133 q139.5 -133 139.5 -340 q0 -210 -151.5 -344 q-151.5 -134 -370.5 -134 q-172 0 -306 90 q-134 90 -176 233 l146 50 q90 -238 338 -238 q163 0 259 96.5 q96 96.5 96 246.5 q0 157 -95 245 q-95 88 -228 88 q-194 0 -321 -186 l-135 29 l44 738 l809 0 Z" /><glyph glyph-name="six" unicode="6" d="M1097 1086 l-154 -42 q-79 208 -288 208 q-384 0 -393 -635 q61 141 173 209 q112 68 237 68 q190 0 318.5 -132.5 q128.5 -132.5 128.5 -317.5 q0 -192 -136.5 -331.5 q-136.5 -139.5 -349.5 -139.5 q-242 0 -385.5 182.5 q-143.5 182.5 -143.5 496.5 q0 307 135.5 524 q135.5 217 419.5 217 q327 0 438 -307 ZM630 110 q145 0 237.5 95.5 q92.5 95.5 92.5 229.5 q0 132 -90.5 226.5 q-90.5 94.5 -224.5 94.5 q-138 0 -241 -99 q-103 -99 -103 -232 q0 -123 92 -219 q92 -96 237 -96 Z" /><glyph glyph-name="seven" unicode="7" d="M575 0 l-176 0 q0 343 140 667.5 q140 324.5 343 547.5 l-741 0 l17 150 l902 0 l0 -102 q-244 -294 -365 -612 q-121 -318 -121 -604 q0 -16 1 -47 Z" /><glyph glyph-name="eight" unicode="8" d="M399 708 q-259 113 -259 328 q0 156 129 256.5 q129 100.5 342 100.5 q210 0 334 -96.5 q124 -96.5 124 -252.5 q0 -217 -265 -311 q214 -99 268.5 -191 q54.5 -92 54.5 -184 q0 -164 -139.5 -274.5 q-139.5 -110.5 -378.5 -110.5 q-255 0 -395 112.5 q-140 112.5 -140 267.5 q0 231 325 355 ZM606 793 q172 46 243 106 q71 60 71 150 q0 105 -84.5 159.5 q-84.5 54.5 -222.5 54.5 q-132 0 -216 -57.5 q-84 -57.5 -84 -154.5 q0 -96 93.5 -166 q93.5 -70 199.5 -92 ZM587 636 q-346 -82 -346 -289 q0 -108 94.5 -176.5 q94.5 -68.5 278.5 -68.5 q156 0 251 67 q95 67 95 171 q0 199 -373 296 Z" /><glyph glyph-name="nine" unicode="9" d="M117 249 l137 50 q85 -189 286 -189 q195 0 293.5 164 q98.5 164 101.5 445 q-134 -246 -403 -246 q-190 0 -319 129.5 q-129 129.5 -129 320.5 q0 194 135.5 332 q135.5 138 345.5 138 q257 0 394 -180.5 q137 -180.5 137 -496.5 q0 -332 -145 -537.5 q-145 -205.5 -413 -205.5 q-313 0 -421 276 ZM570 610 q141 0 236.5 98.5 q95.5 98.5 95.5 230.5 q0 128 -90.5 220 q-90.5 92 -238.5 92 q-150 0 -237 -94.5 q-87 -94.5 -87 -230.5 q0 -146 96.5 -231 q96.5 -85 224.5 -85 Z" /><glyph glyph-name="colon" unicode=":" d="M368 1010 l0 -224 l-223 0 l0 224 l223 0 ZM368 225 l0 -225 l-223 0 l0 225 l223 0 Z" /><glyph glyph-name="semicolon" unicode=";&#x37e;" d="M365 1010 l0 -221 l-219 0 l0 221 l219 0 ZM365 228 l0 -205 l-151 -278 l-83 0 l117 255 l-102 0 l0 228 l219 0 Z" /><glyph glyph-name="less" unicode="&lt;" d="M1024 1159 l0 -152 l-723 -331 l723 -331 l0 -151 l-887 416 l0 133 l887 416 Z" /><glyph glyph-name="equal" unicode="=" d="M123 931 l956 0 l0 -138 l-956 0 l0 138 ZM123 606 l956 0 l0 -138 l-956 0 l0 138 Z" /><glyph glyph-name="greater" unicode="&gt;" d="M177 194 l0 152 l724 331 l-724 331 l0 151 l887 -417 l0 -132 l-887 -416 Z" /><glyph glyph-name="question" unicode="?" d="M537 340 l-144 0 q1 156 4.5 194.5 q3.5 38.5 21.5 77 q18 38.5 40.5 60 q22.5 21.5 106.5 68.5 q91 51 125.5 79.5 q34.5 28.5 60 79 q25.5 50.5 25.5 110.5 q0 114 -82.5 179 q-82.5 65 -194.5 65 q-254 0 -310 -295 l-149 32 q75 403 467 403 q200 0 323 -109.5 q123 -109.5 123 -280.5 q0 -223 -256 -356 q-112 -59 -137 -92.5 q-25 -33.5 -25 -104.5 l1 -110 ZM571 197 l0 -197 l-202 0 l0 197 l202 0 Z" /><glyph glyph-name="at" unicode="@" d="M1113 1042 l-56 -467 q-6 -52 -6 -90 q0 -69 67 -69 q75 0 139 106 q64 106 64 249 q0 226 -153.5 362 q-153.5 136 -379.5 136 q-235 0 -404 -168.5 q-169 -168.5 -169 -419.5 q0 -235 160 -408.5 q160 -173.5 447 -173.5 q227 0 448 113 l44 -121 q-234 -118 -492 -118 q-341 0 -540.5 209.5 q-199.5 209.5 -199.5 499.5 q0 304 208 507.5 q208 203.5 503 203.5 q278 0 464.5 -176.5 q186.5 -176.5 186.5 -432.5 q0 -197 -100.5 -347.5 q-100.5 -150.5 -244.5 -150.5 q-118 0 -160 122 q-94 -126 -225 -126 q-134 0 -224.5 106 q-90.5 106 -90.5 267 q0 176 103 290 q103 114 250 114 q140 0 215 -116 l12 99 l134 0 ZM723 415 q87 0 151.5 89.5 q64.5 89.5 64.5 207.5 q0 96 -51 155 q-51 59 -123 59 q-86 0 -148.5 -77 q-62.5 -77 -62.5 -199 q0 -107 49.5 -171 q49.5 -64 119.5 -64 Z" /><glyph glyph-name="A" unicode="a" d="M1090 0 l-175 0 l-138 399 l-505 0 l-122 -399 l-143 0 l443 1365 l195 0 l445 -1365 ZM741 527 l-210 656 l-212 -656 l422 0 Z" /><glyph glyph-name="B" unicode="b" d="M171 0 l0 1365 l540 0 q204 0 302.5 -100 q98.5 -100 98.5 -232 q0 -232 -242 -308 q144 -37 214 -132 q70 -95 70 -215 q0 -161 -108.5 -269.5 q-108.5 -108.5 -334.5 -108.5 l-540 0 ZM336 780 l297 0 q185 0 247 70.5 q62 70.5 62 165.5 q0 94 -66.5 152 q-66.5 58 -198.5 58 l-341 0 l0 -446 ZM336 150 l366 0 q134 0 207 65 q73 65 73 169 q0 73 -33 135.5 q-33 62.5 -93 96.5 q-60 34 -179 34 l-341 0 l0 -500 Z" /><glyph glyph-name="C" unicode="c" d="M989 459 l156 -35 q-112 -451 -506 -451 q-259 0 -406.5 209 q-147.5 209 -147.5 514 q0 315 154 506 q154 191 413 191 q384 0 493 -439 l-161 -32 q-88 326 -333 326 q-181 0 -280.5 -151.5 q-99.5 -151.5 -99.5 -425.5 q0 -251 102 -402.5 q102 -151.5 270 -151.5 q261 0 346 342 Z" /><glyph glyph-name="D" unicode="d" d="M171 0 l0 1365 l458 0 q289 0 450 -197 q161 -197 161 -482 q0 -289 -157 -487.5 q-157 -198.5 -398 -198.5 l-514 0 ZM342 145 l277 0 q220 0 334 152 q114 152 114 401 q0 202 -108.5 363 q-108.5 161 -339.5 161 l-277 0 l0 -1077 Z" /><glyph glyph-name="E" unicode="e" d="M1054 150 l0 -150 l-883 0 l0 1365 l864 0 l0 -150 l-693 0 l0 -434 l550 0 l0 -139 l-550 0 l0 -492 l712 0 Z" /><glyph glyph-name="F" unicode="f" d="M342 0 l-171 0 l0 1365 l836 0 l0 -150 l-665 0 l0 -431 l551 0 l0 -138 l-551 0 l0 -646 Z" /><glyph glyph-name="G" unicode="g" d="M1182 688 l0 -706 l-105 0 l-47 171 q-126 -180 -375 -180 q-270 0 -420 203 q-150 203 -150 493 q0 310 159 517 q159 207 432 207 q377 0 492 -396 l-162 -39 q-35 152 -131 221 q-96 69 -210 69 q-202 0 -298 -163 q-96 -163 -96 -409 q0 -265 107.5 -414.5 q107.5 -149.5 292.5 -149.5 q144 0 240.5 95.5 q96.5 95.5 96.5 263.5 q0 31 -2 74 l-338 0 l0 143 l514 0 Z" /><glyph glyph-name="H" unicode="h" d="M1146 0 l-171 0 l0 650 l-633 0 l0 -650 l-171 0 l0 1365 l171 0 l0 -565 l633 0 l0 565 l171 0 l0 -1365 Z" /><glyph glyph-name="I" unicode="i" d="M342 0 l-171 0 l0 1365 l171 0 l0 -1365 Z" /><glyph glyph-name="J" unicode="j" d="M608 1365 l0 -948 q0 -248 -112 -346 q-112 -98 -297 -98 q-99 0 -199 27 l0 140 q98 -20 178 -20 q114 0 168 34 q54 34 72.5 88 q18.5 54 18.5 175 l0 948 l171 0 Z" /><glyph glyph-name="K" unicode="k" d="M1250 0 l-187 0 l-408 753 l-313 -389 l0 -364 l-171 0 l0 1365 l171 0 l0 -792 l617 792 l185 0 l-370 -478 l476 -887 Z" /><glyph glyph-name="L" unicode="l" d="M977 150 l0 -150 l-806 0 l0 1365 l175 0 l0 -1215 l631 0 Z" /><glyph glyph-name="M" unicode="m" d="M1489 0 l-166 0 l0 1192 l-444 -1192 l-116 0 l-447 1192 l0 -1192 l-145 0 l0 1365 l254 0 l411 -1092 l403 1092 l250 0 l0 -1365 Z" /><glyph glyph-name="N" unicode="n" d="M1176 0 l-166 0 l-706 1190 l2 -90 q3 -51 3 -86 l0 -1014 l-138 0 l0 1365 l214 0 l660 -1113 l-2 95 q-2 56 -2 99 l0 919 l135 0 l0 -1365 Z" /><glyph glyph-name="O" unicode="o" d="M642 -27 q-263 0 -410 204.5 q-147 204.5 -147 501.5 q0 310 154 512 q154 202 408 202 q253 0 406 -198.5 q153 -198.5 153 -500.5 q0 -290 -148.5 -505.5 q-148.5 -215.5 -415.5 -215.5 ZM646 112 q179 0 280 163 q101 163 101 420 q0 264 -104.5 411 q-104.5 147 -277.5 147 q-175 0 -278 -159 q-103 -159 -103 -416 q0 -251 104 -408.5 q104 -157.5 278 -157.5 Z" /><glyph glyph-name="P" unicode="p" d="M342 0 l-171 0 l0 1365 l484 0 q227 0 335 -123.5 q108 -123.5 108 -281.5 q0 -176 -117.5 -291 q-117.5 -115 -307.5 -115 l-331 0 l0 -554 ZM342 696 l314 0 q121 0 195 72.5 q74 72.5 74 191.5 q0 102 -66 182 q-66 80 -191 80 l-326 0 l0 -526 Z" /><glyph glyph-name="Q" unicode="q" d="M647 -27 q-263 0 -412.5 200.5 q-149.5 200.5 -149.5 499.5 q0 318 155 519 q155 201 406 201 q245 0 402.5 -192 q157.5 -192 157.5 -507 q0 -262 -118 -459 q-118 -197 -302 -245 l-1 -19 q0 -151 182 -151 q87 0 157 13 l0 -137 q-68 -21 -141 -21 q-157 0 -241.5 66.5 q-84.5 66.5 -94.5 231.5 ZM646 112 q179 0 280 163 q101 163 101 420 q0 264 -104.5 411 q-104.5 147 -277.5 147 q-175 0 -278 -159 q-103 -159 -103 -416 q0 -251 104 -408.5 q104 -157.5 278 -157.5 Z" /><glyph glyph-name="R" unicode="r" d="M1153 0 l-179 0 l-252 591 l-391 0 l0 -591 l-160 0 l0 1365 l538 0 q219 0 324.5 -119.5 q105.5 -119.5 105.5 -261.5 q0 -109 -59 -209 q-59 -100 -195 -143 l268 -632 ZM331 730 l357 0 q141 0 210.5 74.5 q69.5 74.5 69.5 182.5 q0 108 -73.5 168 q-73.5 60 -185.5 60 l-378 0 l0 -485 Z" /><glyph glyph-name="S" unicode="s" d="M21 363 l154 35 q93 -279 403 -279 q162 0 244 68.5 q82 68.5 82 183.5 q0 87 -62.5 140 q-62.5 53 -144.5 73 l-273 68 q-106 27 -173.5 65.5 q-67.5 38.5 -114.5 118.5 q-47 80 -47 183 q0 171 129 272.5 q129 101.5 331 101.5 q372 0 489 -337 l-155 -46 q-27 120 -127 181.5 q-100 61.5 -213 61.5 q-112 0 -199.5 -59 q-87.5 -59 -87.5 -167 q0 -151 222 -204 l255 -61 q350 -84 350 -377 q0 -177 -131.5 -294.5 q-131.5 -117.5 -370.5 -117.5 q-424 0 -560 390 Z" /><glyph glyph-name="T" unicode="t" d="M582 0 l-170 0 l0 1215 l-391 0 l0 150 l953 0 l0 -150 l-392 0 l0 -1215 Z" /><glyph glyph-name="U" unicode="u" d="M949 1365 l142 0 l0 -891 q0 -268 -131.5 -384.5 q-131.5 -116.5 -344.5 -116.5 q-237 0 -351 120 q-114 120 -114 381 l0 891 l171 0 l0 -891 q0 -159 37 -224 q37 -65 112 -96 q75 -31 157 -31 q158 0 240 83 q82 83 82 268 l0 891 Z" /><glyph glyph-name="V" unicode="v" d="M1092 1365 l-460 -1365 l-165 0 l-460 1365 l178 0 l381 -1126 l377 1126 l149 0 Z" /><glyph glyph-name="W" unicode="w" d="M1635 1365 l-329 -1365 l-171 0 l-298 1059 l-277 -1059 l-175 0 l-346 1365 l177 0 l273 -1106 l290 1106 l138 0 l313 -1106 l255 1106 l150 0 Z" /><glyph glyph-name="X" unicode="x" d="M1005 1365 l-383 -625 l438 -740 l-193 0 l-345 582 l-358 -582 l-159 0 l437 706 l-389 659 l191 0 l299 -504 l306 504 l156 0 Z" /><glyph glyph-name="Y" unicode="y" d="M1065 1365 l-457 -791 l0 -574 l-171 0 l0 574 l-457 791 l201 0 l363 -628 l365 628 l156 0 Z" /><glyph glyph-name="Z" unicode="z" d="M1019 146 l0 -146 l-963 0 l0 146 l741 1071 l-707 0 l0 139 l907 0 l0 -114 l-750 -1096 l772 0 Z" /><glyph glyph-name="bracketleft" unicode="[" d="M516 -341 l-354 0 l0 1706 l354 0 l0 -105 l-217 0 l0 -1496 l217 0 l0 -105 Z" /><glyph glyph-name="backslash" unicode="\" d="M892 -341 l-824 1706 l134 0 l824 -1706 l-134 0 Z" /><glyph glyph-name="bracketright" unicode="]" d="M85 1365 l354 0 l0 -1706 l-354 0 l0 105 l217 0 l0 1496 l-217 0 l0 105 Z" /><glyph glyph-name="asciicircum" unicode="^" d="M974 745 l-167 0 l-297 503 l-295 -503 l-165 0 l361 624 l201 0 l362 -624 Z" /><glyph glyph-name="underscore" unicode="_" d="M0 -136 l1024 0 l0 -137 l-1024 0 l0 137 Z" /><glyph glyph-name="grave" unicode="`" d="M188 1356 l62 120 l395 -228 l-42 -81 l-415 189 Z" /><glyph glyph-name="a" unicode="a" d="M948 0 l-156 0 q-9 48 -18 182 q-104 -209 -354 -209 q-170 0 -261 90 q-91 90 -91 216 q0 153 130 251.5 q130 98.5 442 98.5 q42 0 134 -4 q0 120 -18.5 173.5 q-18.5 53.5 -78.5 85.5 q-60 32 -158 32 q-239 0 -278 -182 l-145 25 q53 279 446 279 q209 0 296.5 -92.5 q87.5 -92.5 87.5 -320.5 l0 -429 q0 -107 22 -196 ZM774 505 q-96 6 -146 6 q-186 0 -289 -61 q-103 -61 -103 -178 q0 -74 55.5 -126 q55.5 -52 160.5 -52 q142 0 233.5 103 q91.5 103 91.5 242 q0 28 -3 66 Z" /><glyph glyph-name="b" unicode="b" d="M233 0 l-76 0 l0 1365 l157 0 l0 -523 q108 196 298 196 q174 0 291.5 -137 q117.5 -137 117.5 -398 q0 -225 -115.5 -377.5 q-115.5 -152.5 -300.5 -152.5 q-206 0 -316 194 l-56 -167 ZM314 396 q11 -155 95.5 -225 q84.5 -70 178.5 -70 q120 0 193.5 104 q73.5 104 73.5 285 q0 195 -71 306.5 q-71 111.5 -197 111.5 q-99 0 -178.5 -79.5 q-79.5 -79.5 -94.5 -205.5 l0 -227 Z" /><glyph glyph-name="c" unicode="c" d="M754 354 l142 -25 q-30 -167 -133 -261.5 q-103 -94.5 -257 -94.5 q-209 0 -318.5 154 q-109.5 154 -109.5 376 q0 230 115.5 382.5 q115.5 152.5 314.5 152.5 q165 0 264.5 -98.5 q99.5 -98.5 123.5 -254.5 l-142 -27 q-40 250 -242 250 q-130 0 -200 -110.5 q-70 -110.5 -70 -286.5 q0 -194 69.5 -301.5 q69.5 -107.5 195.5 -107.5 q195 0 247 252 Z" /><glyph glyph-name="d" unicode="d" d="M946 1365 l0 -1365 l-143 0 l0 173 q-106 -200 -319 -200 q-177 0 -291 148.5 q-114 148.5 -114 375.5 q0 232 113 386.5 q113 154.5 300 154.5 q182 0 297 -166 l0 493 l157 0 ZM789 620 q0 133 -81 213 q-81 80 -189 80 q-117 0 -192.5 -104 q-75.5 -104 -75.5 -292 q0 -203 69.5 -309 q69.5 -106 190.5 -106 q110 0 194 92 q84 92 84 216 l0 210 Z" /><glyph glyph-name="e" unicode="e" d="M824 301 l146 -30 q-40 -129 -156 -213.5 q-116 -84.5 -273 -84.5 q-207 0 -335 145.5 q-128 145.5 -128 381.5 q0 241 133 389.5 q133 148.5 334 148.5 q198 0 318.5 -137 q120.5 -137 123.5 -410 l-734 0 q0 -229 96 -309 q96 -80 203 -80 q193 0 272 199 ZM815 608 q-2 85 -28 151 q-26 66 -88 112.5 q-62 46.5 -149 46.5 q-117 0 -198.5 -84 q-81.5 -84 -91.5 -226 l555 0 Z" /><glyph glyph-name="f" unicode="f" d="M576 1010 l0 -123 l-240 0 l0 -887 l-157 0 l0 887 l-172 0 l0 123 l172 0 q4 243 93.5 313 q89.5 70 218.5 70 q63 0 144 -14 l0 -125 q-51 13 -97 13 q-103 0 -152.5 -45.5 q-49.5 -45.5 -49.5 -170.5 l0 -41 l240 0 Z" /><glyph glyph-name="g" unicode="g" d="M982 1168 l0 -125 q-108 0 -144.5 -25 q-36.5 -25 -48.5 -90 q97 -112 97 -244 q0 -138 -105.5 -237 q-105.5 -99 -283.5 -99 q-40 0 -69 6 q-55 11 -69 11 q-27 0 -65 -26.5 q-38 -26.5 -38 -68.5 q0 -60 55 -78 q55 -18 259 -23 q173 -5 255.5 -23.5 q82.5 -18.5 139.5 -82 q57 -63.5 57 -155.5 q0 -289 -508 -289 q-241 0 -351.5 72.5 q-110.5 72.5 -110.5 193.5 q0 147 154 202 q-99 65 -99 163 q0 117 140 179 q-131 106 -131 267 q0 150 112 246 q112 96 273 96 q114 0 207 -43 q15 99 69.5 137 q54.5 38 165.5 38 q11 0 39 -2 ZM502 468 q100 0 163 61.5 q63 61.5 63 159.5 q0 100 -65.5 163.5 q-65.5 63.5 -158.5 63.5 q-89 0 -158 -59.5 q-69 -59.5 -69 -169.5 q0 -98 62 -158.5 q62 -60.5 163 -60.5 ZM314 41 q-110 -48 -110 -139 q0 -77 90.5 -119.5 q90.5 -42.5 230.5 -42.5 q130 0 238 36.5 q108 36.5 108 123.5 q0 47 -32 77 q-32 30 -87.5 38 q-55.5 8 -193.5 12 q-165 4 -244 14 Z" /><glyph glyph-name="h" unicode="h" d="M949 0 l-157 0 l0 613 q0 108 -13.5 162 q-13.5 54 -64 93.5 q-50.5 39.5 -116.5 39.5 q-121 0 -202.5 -99 q-81.5 -99 -81.5 -265 l0 -544 l-157 0 l0 1365 l157 0 l0 -541 q107 214 306 214 q89 0 158.5 -35 q69.5 -35 106.5 -92 q37 -57 50.5 -112.5 q13.5 -55.5 13.5 -185.5 l0 -613 Z" /><glyph glyph-name="i" unicode="i" d="M319 1365 l0 -174 l-169 0 l0 174 l169 0 ZM314 1010 l0 -1010 l-157 0 l0 1010 l157 0 Z" /><glyph glyph-name="j" unicode="j" d="M322 1365 l0 -174 l-178 0 l0 174 l178 0 ZM314 1021 l0 -1052 q0 -178 -84.5 -248 q-84.5 -70 -206.5 -70 q-60 0 -147 21 l0 124 q65 -16 115 -16 q89 0 127.5 42.5 q38.5 42.5 38.5 146.5 l0 1052 l157 0 Z" /><glyph glyph-name="k" unicode="k" d="M991 0 l-163 0 l-295 564 l-219 -252 l0 -312 l-157 0 l0 1365 l157 0 l0 -874 l469 519 l168 0 l-316 -355 l356 -655 Z" /><glyph glyph-name="l" unicode="l" d="M314 0 l-157 0 l0 1365 l157 0 l0 -1365 Z" /><glyph glyph-name="m" unicode="m" d="M1510 0 l-153 0 l0 628 q0 97 -13.5 145.5 q-13.5 48.5 -65.5 89 q-52 40.5 -117 40.5 q-90 0 -173.5 -82.5 q-83.5 -82.5 -83.5 -251.5 l0 -569 l-152 0 l0 665 q0 133 -63.5 188 q-63.5 55 -133.5 55 q-100 0 -174 -86 q-74 -86 -74 -218 l0 -604 l-150 0 l0 1010 l135 0 l0 -194 q113 222 311 222 q109 0 185 -71 q76 -71 98 -171 q104 242 319 242 q103 0 180.5 -59 q77.5 -59 101 -135.5 q23.5 -76.5 23.5 -215.5 l0 -628 Z" /><glyph glyph-name="n" unicode="n" d="M953 0 l-147 0 l0 649 q0 140 -61 197 q-61 57 -148 57 q-120 0 -201.5 -96 q-81.5 -96 -81.5 -253 l0 -554 l-157 0 l0 1010 l146 0 l0 -186 q123 214 319 214 q113 0 192.5 -58.5 q79.5 -58.5 109 -131.5 q29.5 -73 29.5 -264 l0 -584 Z" /><glyph glyph-name="o" unicode="o" d="M519 -27 q-208 0 -324.5 154 q-116.5 154 -116.5 382 q0 241 131 385 q131 144 326 144 q209 0 329.5 -151.5 q120.5 -151.5 120.5 -378.5 q0 -236 -130 -385.5 q-130 -149.5 -336 -149.5 ZM531 102 q120 0 201 99 q81 99 81 308 q0 210 -85 304.5 q-85 94.5 -199 94.5 q-117 0 -198 -95.5 q-81 -95.5 -81 -302.5 q0 -219 81 -313.5 q81 -94.5 200 -94.5 Z" /><glyph glyph-name="p" unicode="p" d="M314 -341 l-157 0 l0 1351 l141 0 l0 -196 q107 224 319 224 q179 0 289 -149.5 q110 -149.5 110 -378.5 q0 -247 -113 -392 q-113 -145 -290 -145 q-190 0 -299 181 l0 -495 ZM314 651 l0 -284 q15 -115 97 -190 q82 -75 171 -75 q103 0 182.5 90 q79.5 90 79.5 311 q0 191 -72 294.5 q-72 103.5 -191 103.5 q-94 0 -168.5 -73 q-74.5 -73 -98.5 -177 Z" /><glyph glyph-name="q" unicode="q" d="M940 1024 l0 -1365 l-157 0 l0 525 q-99 -211 -305 -211 q-172 0 -286 138.5 q-114 138.5 -114 385.5 q0 235 114 388 q114 153 300 153 q88 0 160.5 -35 q72.5 -35 146.5 -158 l62 179 l79 0 ZM783 584 q-13 178 -95.5 251 q-82.5 73 -174.5 73 q-117 0 -190 -111 q-73 -111 -73 -293 q0 -178 69.5 -287.5 q69.5 -109.5 190.5 -109.5 q122 0 197.5 104.5 q75.5 104.5 75.5 238.5 l0 134 Z" /><glyph glyph-name="r" unicode="r" d="M314 0 l-157 0 l0 1010 l138 0 l0 -236 q73 167 146.5 216.5 q73.5 49.5 150.5 49.5 q24 0 62 -4 l0 -150 l-32 0 q-130 0 -216 -97 q-86 -97 -92 -255 l0 -534 Z" /><glyph glyph-name="s" unicode="s" d="M21 262 l150 31 q50 -191 316 -191 q98 0 166 44 q68 44 68 124 q0 119 -173 151 l-213 40 q-125 24 -199 94 q-74 70 -74 185 q0 127 101 212.5 q101 85.5 272 85.5 q329 0 406 -257 l-144 -31 q-62 158 -255 158 q-96 0 -157.5 -39.5 q-61.5 -39.5 -61.5 -110.5 q0 -112 157 -141 l197 -35 q309 -56 309 -299 q0 -139 -115 -224.5 q-115 -85.5 -306 -85.5 q-359 0 -444 289 Z" /><glyph glyph-name="t" unicode="t" d="M615 108 l0 -124 q-83 -11 -144 -11 q-293 0 -293 306 l0 608 l-179 0 l0 123 l179 0 l7 254 l146 14 l0 -268 l226 0 l0 -123 l-226 0 l0 -634 q0 -156 162 -156 q54 0 122 11 Z" /><glyph glyph-name="u" unicode="u" d="M952 0 l-141 0 l0 193 q-108 -220 -322 -220 q-155 0 -243.5 102 q-88.5 102 -88.5 290 l0 645 l157 0 l0 -645 q0 -150 62.5 -206.5 q62.5 -56.5 137.5 -56.5 q76 0 137.5 43 q61.5 43 102.5 122.5 q41 79.5 41 173.5 l0 569 l157 0 l0 -1010 Z" /><glyph glyph-name="v" unicode="v" d="M897 1010 l-349 -1010 l-163 0 l-361 1010 l174 0 l281 -821 l278 821 l140 0 Z" /><glyph glyph-name="w" unicode="w" d="M1321 1010 l-291 -1010 l-127 0 l-226 750 l-207 -750 l-129 0 l-303 1010 l158 0 l219 -753 l210 753 l115 0 l227 -756 l227 756 l127 0 Z" /><glyph glyph-name="x" unicode="x" d="M861 0 l-181 0 l-257 410 l-263 -410 l-153 0 l340 524 l-307 486 l181 0 l216 -345 l220 345 l151 0 l-294 -452 l347 -558 Z" /><glyph glyph-name="y" unicode="y" d="M850 1010 l-405 -1128 q-88 -244 -281 -244 q-61 0 -135 21 l0 123 q61 -14 105 -14 q75 0 125.5 43 q50.5 43 100.5 208 l-349 991 l160 0 l270 -759 l277 759 l132 0 Z" /><glyph glyph-name="z" unicode="z" d="M812 121 l0 -121 l-744 0 l0 121 l537 766 l-496 0 l0 123 l703 0 l0 -85 l-556 -804 l556 0 Z" /><glyph glyph-name="braceleft" unicode="{" d="M246 511 q126 -55 126 -231 l0 -330 q0 -107 37.5 -145.5 q37.5 -38.5 150.5 -39.5 l0 -106 l-35 -1 q-160 0 -225 66.5 q-65 66.5 -65 225.5 l0 330 q0 93 -29.5 131.5 q-29.5 38.5 -87.5 53.5 l0 99 q57 14 87 52.5 q30 38.5 30 125.5 l0 355 q0 147 69.5 208 q69.5 61 212.5 61 q14 0 43 -1 l0 -106 q-113 -3 -150.5 -40.5 q-37.5 -37.5 -37.5 -136.5 l0 -346 q0 -67 -20.5 -127.5 q-20.5 -60.5 -105.5 -97.5 Z" /><glyph glyph-name="bar" unicode="|" d="M436 1365 l153 0 l0 -1706 l-153 0 l0 1706 Z" /><glyph glyph-name="braceright" unicode="}" d="M355 513 q-126 55 -126 231 l0 330 q0 107 -37.5 145.5 q-37.5 38.5 -150.5 39.5 l0 106 l34 1 q168 0 229 -68.5 q61 -68.5 61 -223.5 l0 -330 q0 -88 27 -128 q27 -40 91 -57 l0 -99 q-56 -14 -87 -52.5 q-31 -38.5 -31 -125.5 l0 -355 q0 -130 -60.5 -199.5 q-60.5 -69.5 -220.5 -69.5 q-14 0 -43 1 l0 106 q112 3 150 40.5 q38 37.5 38 136.5 l0 346 q0 71 21 130 q21 59 105 95 Z" /><glyph glyph-name="asciitilde" unicode="~" d="M108 585 q107 238 281 238 q84 0 229 -70 q134 -64 199 -64 q106 0 184 137 l92 -54 q-114 -231 -280 -231 q-84 0 -256 81 q-112 52 -184 52 q-96 0 -175 -147 l-90 58 Z" /><glyph glyph-name="nonbreakingspace" unicode=" " d="" /><glyph glyph-name="exclamdown" unicode="¡" d="M171 1010 l208 0 l0 -211 l-208 0 l0 211 ZM236 684 l83 0 l74 -1025 l-236 0 l79 1025 Z" /><glyph glyph-name="cent" unicode="¢" d="M667 -57 l-112 0 l0 283 q-138 20 -218.5 101 q-80.5 81 -110 179.5 q-29.5 98.5 -29.5 196.5 q0 170 87 306.5 q87 136.5 271 162.5 l0 251 l112 0 l0 -251 q100 -7 196.5 -83 q96.5 -76 126.5 -227 l-136 -26 q-19 91 -72 152.5 q-53 61.5 -115 66.5 l0 -706 q150 35 187 215 l136 -22 q-62 -278 -323 -316 l0 -283 ZM555 1051 q-200 -44 -200 -359 q0 -286 200 -343 l0 702 Z" /><glyph glyph-name="sterling" unicode="£" d="M1049 306 l130 -85 q-49 -106 -148.5 -163.5 q-99.5 -57.5 -205.5 -57.5 l-830 0 l0 150 q155 3 219.5 22.5 q64.5 19.5 121 92.5 q56.5 73 56.5 178 q0 73 -19 206 l-218 0 l0 117 l207 0 q-19 107 -19 190 q0 199 107 318 q107 119 265 119 q198 0 328 -187 l-111 -86 q-103 136 -209 136 q-82 0 -142 -65.5 q-60 -65.5 -60 -174.5 q0 -78 21 -250 l293 0 l0 -117 l-279 0 q6 -85 6 -141 q0 -239 -159 -358 l318 0 q149 0 216.5 39 q67.5 39 111.5 117 Z" /><glyph glyph-name="currency" unicode="¤" d="M104 256 l194 196 q-102 139 -102 289 q0 146 102 290 l-198 196 l92 91 l198 -195 q149 103 297 103 q141 0 288 -103 l196 195 l91 -91 l-194 -196 q102 -151 102 -291 q0 -143 -102 -288 l198 -196 l-91 -92 l-197 197 q-141 -103 -295 -103 q-138 0 -293 101 l-195 -195 l-91 92 ZM1029 741 q0 143 -101.5 245 q-101.5 102 -244.5 102 q-143 0 -244 -102.5 q-101 -102.5 -101 -243.5 q0 -144 101.5 -245.5 q101.5 -101.5 243.5 -101.5 q142 0 244 101.5 q102 101.5 102 244.5 Z" /><glyph glyph-name="yen" unicode="¥" d="M843 847 l253 0 l0 -118 l-321 0 l-91 -157 l412 0 l0 -117 l-412 0 l0 -455 l-166 0 l0 455 l-412 0 l0 117 l412 0 l-90 157 l-322 0 l0 118 l254 0 l-301 518 l201 0 l362 -627 l365 627 l157 0 l-301 -518 Z" /><glyph glyph-name="brokenbar" unicode="¦" d="M436 1365 l153 0 l0 -682 l-153 0 l0 682 ZM436 314 l153 0 l0 -655 l-153 0 l0 655 Z" /><glyph glyph-name="section" unicode="§" d="M134 -72 l176 26 q91 -192 305 -192 q116 0 202 60 q86 60 86 157 q0 138 -209 194 l-207 55 q-175 47 -243 118 q-68 71 -68 177 q0 173 193 295 q-164 90 -164 266 q0 138 105 223.5 q105 85.5 280 85.5 q158 0 268.5 -71.5 q110.5 -71.5 146.5 -193.5 l-153 -18 q-67 168 -267 168 q-106 0 -166.5 -50.5 q-60.5 -50.5 -60.5 -124.5 q0 -81 65 -131 q65 -50 179 -83 l186 -52 q122 -34 185.5 -109.5 q63.5 -75.5 63.5 -167.5 q0 -146 -163 -277 q193 -92 193 -280 q0 -154 -129 -262 q-129 -108 -332 -108 q-353 0 -472 295 ZM490 769 q-156 -80 -156 -199 q0 -131 217 -192 l197 -56 q74 36 108 92 q34 56 34 100 q0 52 -45.5 105.5 q-45.5 53.5 -132.5 79.5 l-222 70 Z" /><glyph glyph-name="dieresis" unicode="¨" d="M777 1304 q0 -43 -31.5 -73 q-31.5 -30 -74.5 -30 q-43 0 -74.5 30 q-31.5 30 -31.5 72 q0 43 31.5 72.5 q31.5 29.5 73.5 29.5 q44 0 75.5 -29.5 q31.5 -29.5 31.5 -71.5 ZM455 1303 q0 -42 -31.5 -72 q-31.5 -30 -73.5 -30 q-42 0 -72.5 30 q-30.5 30 -30.5 71 q0 43 30.5 72.5 q30.5 29.5 69.5 29.5 q48 0 78 -30 q30 -30 30 -71 Z" /><glyph glyph-name="copyright" unicode="©" d="M1498 687 q0 -291 -207.5 -498.5 q-207.5 -207.5 -498.5 -207.5 q-291 0 -498.5 207.5 q-207.5 207.5 -207.5 498.5 q0 290 207.5 498 q207.5 208 498.5 208 q291 0 498.5 -208 q207.5 -208 207.5 -498 ZM1397 687 q0 250 -177.5 427.5 q-177.5 177.5 -427.5 177.5 q-249 0 -427 -178 q-178 -178 -178 -427 q0 -250 177 -427.5 q177 -177.5 428 -177.5 q249 0 427 178 q178 178 178 427 ZM989 564 l117 -25 q-71 -278 -327 -278 q-172 0 -264 128 q-92 128 -92 306 q0 190 99.5 303.5 q99.5 113.5 264.5 113.5 q255 0 319 -270 l-121 -22 q-52 194 -202 194 q-103 0 -163 -87.5 q-60 -87.5 -60 -246.5 q0 -144 60.5 -232 q60.5 -88 161.5 -88 q162 0 207 204 Z" /><glyph glyph-name="ordfeminine" unicode="ª" d="M624 767 l-120 0 q-8 38 -11 82 q-66 -98 -211 -98 q-112 0 -171 55.5 q-59 55.5 -59 131.5 q0 93 85 153.5 q85 60.5 285 60.5 q21 0 71 -2 q0 84 -29 120.5 q-29 36.5 -120 36.5 q-143 0 -164 -109 l-112 18 q29 177 289 177 q137 0 194 -57 q57 -57 57 -193 l0 -254 q0 -67 16 -122 ZM493 1065 q-54 3 -81 3 q-234 0 -234 -132 q0 -100 125 -100 q83 0 137.5 59 q54.5 59 54.5 138 q0 13 -2 32 Z" /><glyph glyph-name="guillemotleft" unicode="«" d="M254 240 l-172 293 l172 282 l90 0 l-106 -282 l106 -293 l-90 0 ZM517 240 l-173 293 l173 282 l92 0 l-107 -282 l107 -293 l-92 0 Z" /><glyph glyph-name="logicalnot" unicode="¬" d="M1044 0 l-152 0 l0 408 l-735 0 l0 138 l887 0 l0 -546 Z" /><glyph glyph-name="sfthyphen" unicode="­" d="M482 573 l0 -122 l-452 0 l0 122 l452 0 Z" /><glyph glyph-name="registered" unicode="®" d="M1498 687 q0 -291 -207.5 -498.5 q-207.5 -207.5 -498.5 -207.5 q-291 0 -498.5 207.5 q-207.5 207.5 -207.5 498.5 q0 290 207.5 498 q207.5 208 498.5 208 q291 0 498.5 -208 q207.5 -208 207.5 -498 ZM1397 687 q0 250 -177.5 427.5 q-177.5 177.5 -427.5 177.5 q-249 0 -427 -178 q-178 -178 -178 -427 q0 -250 177 -427.5 q177 -177.5 428 -177.5 q249 0 427 178 q178 178 178 427 ZM1124 277 l-134 0 l-157 349 l-225 0 l0 -349 l-121 0 l0 819 l346 0 q140 0 209.5 -72 q69.5 -72 69.5 -160 q0 -65 -38 -125 q-38 -60 -119 -85 l169 -377 ZM608 722 l212 0 q83 0 123.5 41.5 q40.5 41.5 40.5 102.5 q0 63 -43 95.5 q-43 32.5 -108 32.5 l-225 0 l0 -272 Z" /><glyph glyph-name="macron" unicode="¯" d="M0 1768 l1024 0 l0 -137 l-1024 0 l0 137 Z" /><glyph glyph-name="degree" unicode="°" d="M330 1122 q0 111 79.5 191 q79.5 80 191.5 80 q112 0 191.5 -79.5 q79.5 -79.5 79.5 -191.5 q0 -111 -80 -190.5 q-80 -79.5 -195 -79.5 q-108 0 -187.5 79.5 q-79.5 79.5 -79.5 190.5 ZM446 1123 q0 -65 45.5 -110 q45.5 -45 104.5 -45 q68 0 114 45.5 q46 45.5 46 109.5 q0 64 -45.5 109.5 q-45.5 45.5 -110.5 45.5 q-63 0 -108.5 -45.5 q-45.5 -45.5 -45.5 -109.5 Z" /><glyph glyph-name="plusminus" unicode="±" d="M123 753 l403 0 l0 421 l150 0 l0 -421 l403 0 l0 -138 l-403 0 l0 -421 l-150 0 l0 421 l-403 0 l0 138 ZM123 98 l956 0 l0 -138 l-956 0 l0 138 Z" /><glyph glyph-name="twosuperior" unicode="²" d="M698 643 l0 -97 l-617 0 l0 94 q359 255 426.5 334 q67.5 79 67.5 156 q0 71 -55.5 114.5 q-55.5 43.5 -127.5 43.5 q-76 0 -134 -49 q-58 -49 -65 -138 l-112 33 q64 248 312 248 q135 0 218.5 -73.5 q83.5 -73.5 83.5 -172.5 q0 -131 -124 -244.5 q-124 -113.5 -326 -248.5 l453 0 Z" /><glyph glyph-name="threesuperior" unicode="³" d="M263 926 l0 93 l104 0 q190 0 190 134 q0 62 -49 98 q-49 36 -123 36 q-147 0 -193 -131 l-109 29 q84 197 312 197 q124 0 203.5 -64 q79.5 -64 79.5 -158 q0 -134 -138 -182 q74 -16 122.5 -70 q48.5 -54 48.5 -132 q0 -103 -88 -174 q-88 -71 -241 -71 q-248 0 -330 208 l112 35 q43 -147 217 -147 q109 0 158 44 q49 44 49 106 q0 67 -58.5 108 q-58.5 41 -162.5 41 l-104 0 Z" /><glyph glyph-name="acute" unicode="´" d="M836 1356 l-414 -189 l-43 81 l396 228 l61 -120 Z" /><glyph glyph-name="mu" unicode="µ" d="M150 -341 l0 1351 l157 0 l0 -566 q0 -111 21 -174 q21 -63 77.5 -110.5 q56.5 -47.5 136.5 -47.5 q246 0 246 344 l0 554 l157 0 l0 -1010 l-143 0 l0 158 q-89 -185 -255 -185 q-159 0 -240 158 l0 -472 l-157 0 Z" /><glyph glyph-name="paragraph" unicode="¶" d="M1086 1365 l0 -95 l-137 0 l0 -1611 l-100 0 l0 1611 l-98 0 l0 -1611 l-99 0 l0 1066 l-151 0 q-181 0 -259.5 30 q-78.5 30 -123 100 q-44.5 70 -44.5 169 q0 109 45.5 190 q45.5 81 120 116 q74.5 35 265.5 35 l581 0 ZM652 821 l0 449 l-112 0 q-114 0 -172.5 -16 q-58.5 -16 -93.5 -67.5 q-35 -51.5 -35 -143.5 q0 -100 54 -161 q54 -61 217 -61 l142 0 Z" /><glyph glyph-name="middot" unicode="·" d="M223 631 l0 -224 l-223 0 l0 224 l223 0 Z" /><glyph glyph-name="cedilla" unicode="¸" d="M438 0 l66 0 l-26 -93 q102 0 150 -38 q48 -38 48 -95 q0 -56 -44.5 -101 q-44.5 -45 -148.5 -45 q-102 0 -176 45 l24 64 q73 -35 142 -35 q48 0 75 21 q27 21 27 51 q0 69 -121 69 q-29 0 -69 -5 l53 162 Z" /><glyph glyph-name="onesuperior" unicode="¹" d="M711 635 l0 -89 l-550 0 l0 89 l225 0 l0 599 q-110 -108 -232 -170 l0 117 q167 83 262 201 l86 0 l0 -747 l209 0 Z" /><glyph glyph-name="ordmasculine" unicode="º" d="M343 751 q-125 0 -205 87.5 q-80 87.5 -80 235.5 q0 145 85 232 q85 87 211 87 q128 0 209.5 -87 q81.5 -87 81.5 -233 q0 -142 -84 -232 q-84 -90 -218 -90 ZM351 841 q71 0 118 57 q47 57 47 176 q0 119 -49 174 q-49 55 -117 55 q-69 0 -116 -55.5 q-47 -55.5 -47 -173.5 q0 -118 45 -175.5 q45 -57.5 119 -57.5 Z" /><glyph glyph-name="guillemotright" unicode="»" d="M450 815 l172 -292 l-172 -283 l-89 0 l105 283 l-105 292 l89 0 ZM187 815 l174 -292 l-174 -283 l-91 0 l107 283 l-107 292 l91 0 Z" /><glyph glyph-name="onequarter" unicode="¼" d="M659 635 l0 -89 l-550 0 l0 89 l225 0 l0 599 q-110 -108 -232 -170 l0 117 q167 83 262 201 l86 0 l0 -747 l209 0 ZM537 0 l-126 0 l827 1365 l124 0 l-825 -1365 ZM1583 0 l-115 0 l0 191 l-418 0 l0 77 l391 568 l142 0 l0 -551 l138 0 l0 -94 l-138 0 l0 -191 ZM1468 285 l0 436 q-16 -29 -32 -52 l-256 -384 l288 0 Z" /><glyph glyph-name="onehalf" unicode="½" d="M645 635 l0 -89 l-550 0 l0 89 l225 0 l0 599 q-110 -108 -232 -170 l0 117 q167 83 262 201 l86 0 l0 -747 l209 0 ZM523 0 l-126 0 l827 1365 l124 0 l-825 -1365 ZM1718 97 l0 -97 l-616 0 l0 94 q360 257 427 335 q67 78 67 155 q0 71 -55.5 114 q-55.5 43 -127.5 43 q-76 0 -134 -48 q-58 -48 -65 -138 l-112 32 q63 249 312 249 q135 0 218.5 -73.5 q83.5 -73.5 83.5 -173.5 q0 -96 -81.5 -198.5 q-81.5 -102.5 -368.5 -293.5 l452 0 Z" /><glyph glyph-name="threequarters" unicode="¾" d="M252 926 l0 93 l104 0 q190 0 190 134 q0 62 -49 98 q-49 36 -123 36 q-147 0 -193 -131 l-109 29 q84 197 312 197 q124 0 203.5 -64 q79.5 -64 79.5 -158 q0 -134 -138 -182 q74 -16 122.5 -70 q48.5 -54 48.5 -132 q0 -103 -88 -174 q-88 -71 -241 -71 q-248 0 -330 208 l112 35 q43 -147 217 -147 q109 0 158 44 q49 44 49 106 q0 67 -58.5 108 q-58.5 41 -162.5 41 l-104 0 ZM606 0 l-126 0 l827 1365 l125 0 l-826 -1365 ZM1612 0 l-116 0 l0 191 l-418 0 l0 77 l391 568 l143 0 l0 -551 l138 0 l0 -94 l-138 0 l0 -191 ZM1496 285 l0 436 q-16 -29 -32 -52 l-256 -384 l288 0 Z" /><glyph glyph-name="questiondown" unicode="¿" d="M465 814 l0 196 l202 0 l0 -196 l-202 0 ZM499 684 l143 0 q0 -156 -3.5 -194 q-3.5 -38 -22 -77.5 q-18.5 -39.5 -40.5 -60.5 q-22 -21 -106 -68 q-91 -51 -125.5 -79.5 q-34.5 -28.5 -59.5 -78.5 q-25 -50 -25 -111 q0 -114 82.5 -179 q82.5 -65 193.5 -65 q254 0 310 296 l149 -33 q-75 -403 -468 -403 q-204 0 -324.5 110.5 q-120.5 110.5 -120.5 279.5 q0 223 255 356 q112 59 137.5 92.5 q25.5 33.5 25.5 103.5 l-1 111 Z" /><glyph glyph-name="Aring" unicode="å" d="M729 1635 q0 -74 -52.5 -127 q-52.5 -53 -125.5 -53 q-75 0 -128.5 53 q-53.5 53 -53.5 128 q0 73 53 126.5 q53 53.5 132 53.5 q70 0 122.5 -53.5 q52.5 -53.5 52.5 -127.5 ZM640 1634 q0 37 -26 64 q-26 27 -63 27 q-38 0 -65.5 -26.5 q-27.5 -26.5 -27.5 -63.5 q0 -38 27.5 -65 q27.5 -27 64.5 -27 q37 0 63.5 26.5 q26.5 26.5 26.5 64.5 ZM1090 0 l-175 0 l-138 399 l-505 0 l-122 -399 l-143 0 l443 1365 l195 0 l445 -1365 ZM741 527 l-210 656 l-212 -656 l422 0 Z" /><glyph glyph-name="AE" unicode="æ" d="M1788 150 l0 -150 l-939 0 l0 422 l-459 0 l-252 -422 l-165 0 l813 1365 l976 0 l0 -150 l-742 0 l0 -434 l600 0 l0 -139 l-600 0 l0 -492 l768 0 ZM849 554 l0 662 l-385 -662 l385 0 Z" /><glyph glyph-name="Ccedilla" unicode="ç" d="M648 -27 l-25 -80 q24 2 37 2 q68 0 124.5 -39.5 q56.5 -39.5 56.5 -111.5 q0 -68 -57 -111.5 q-57 -43.5 -160 -43.5 q-105 0 -193 50 l26 72 q83 -40 154 -40 q115 0 115 75 q0 80 -129 80 q-28 0 -81 -5 l52 156 q-224 26 -353.5 232 q-129.5 206 -129.5 487 q0 315 154 506 q154 191 413 191 q384 0 493 -439 l-161 -32 q-88 326 -333 326 q-181 0 -280.5 -151.5 q-99.5 -151.5 -99.5 -425.5 q0 -251 102 -402.5 q102 -151.5 270 -151.5 q261 0 346 342 l156 -35 q-111 -451 -497 -451 Z" /><glyph glyph-name="Eth" unicode="ð" d="M35 655 l0 137 l137 0 l0 573 l456 0 q289 0 450 -197 q161 -197 161 -481 q0 -289 -156.5 -488 q-156.5 -199 -398.5 -199 l-512 0 l0 655 l-137 0 ZM342 792 l326 0 l0 -137 l-326 0 l0 -510 l276 0 q220 0 334 152.5 q114 152.5 114 400.5 q0 200 -109 362 q-109 162 -339 162 l-276 0 l0 -430 Z" /><glyph glyph-name="multiply" unicode="×" d="M909 277 l-308 309 l-309 -309 l-98 98 l309 309 l-309 309 l98 98 l309 -309 l308 309 l98 -98 l-308 -309 l308 -309 l-98 -98 Z" /><glyph glyph-name="Oslash" unicode="ø" d="M63 -49 l157 241 q-135 200 -135 493 q0 297 151.5 502.5 q151.5 205.5 412.5 205.5 q182 0 326 -114 l97 140 l146 0 l-158 -233 q146 -197 146 -494 q0 -284 -146.5 -501.5 q-146.5 -217.5 -421.5 -217.5 q-195 0 -336 125 l-95 -147 l-144 0 ZM876 1162 q-91 91 -234 91 q-171 0 -274.5 -156 q-103.5 -156 -103.5 -412 q0 -213 68 -350 l544 827 ZM404 224 q92 -112 241 -112 q192 0 287 171 q95 171 95 409 q0 223 -73 363 l-550 -831 Z" /><glyph glyph-name="Thorn" unicode="þ" d="M342 0 l-171 0 l0 1365 l171 0 l0 -198 l313 0 q227 0 335 -123.5 q108 -123.5 108 -285.5 q0 -171 -117 -286.5 q-117 -115.5 -308 -115.5 l-331 0 l0 -356 ZM342 498 l314 0 q121 0 195 72.5 q74 72.5 74 190.5 q0 110 -69.5 186.5 q-69.5 76.5 -187.5 76.5 l-326 0 l0 -526 Z" /><glyph glyph-name="germandbls" unicode="ß" d="M158 -87 l0 878 l-107 0 l0 126 l107 0 q13 273 136 394 q123 121 305 121 q150 0 263 -82 q113 -82 113 -218 q0 -130 -115 -205.5 q-115 -75.5 -273 -75.5 l-24 1 q-30 0 -30 -17 q0 -16 25 -31.5 q25 -15.5 119 -50.5 q271 -99 351 -192 q80 -93 80 -217 q0 -160 -119 -273 q-119 -113 -309 -113 q-97 0 -226 33 l44 114 q102 -21 166 -21 q130 0 201 78 q71 78 71 150 q0 142 -147 208 l-249 110 q-157 69 -157 167 q0 30 16.5 72 q16.5 42 31 52.5 q14.5 10.5 61.5 15.5 q312 34 312 207 q0 70 -58 114.5 q-58 44.5 -149 44.5 q-136 0 -209.5 -93 q-73.5 -93 -73.5 -239 l0 -1058 l-156 0 Z" /><glyph glyph-name="ae" unicode="æ" d="M1484 297 l142 -27 q-40 -132 -155.5 -214.5 q-115.5 -82.5 -267.5 -82.5 q-277 0 -409 256 q-106 -256 -365 -256 q-183 0 -274 85.5 q-91 85.5 -91 214.5 q0 159 132.5 256 q132.5 97 425.5 97 q63 0 139 -7 q2 44 2 70 q0 226 -256 226 q-114 0 -178.5 -51.5 q-64.5 -51.5 -77.5 -120.5 l-149 26 q31 136 150 202.5 q119 66.5 274 66.5 q244 0 351 -147 q127 147 329 147 q182 0 306 -131 q124 -131 131 -416 l-731 0 q0 -217 91.5 -303 q91.5 -86 209.5 -86 q189 0 271 195 ZM1472 608 q-4 134 -74.5 220.5 q-70.5 86.5 -193.5 86.5 q-121 0 -200 -87 q-79 -87 -86 -220 l554 0 ZM756 503 q-56 9 -128 9 q-196 0 -294.5 -64 q-98.5 -64 -98.5 -165 q0 -76 54 -128.5 q54 -52.5 142 -52.5 q127 0 226.5 92.5 q99.5 92.5 99.5 253.5 q0 18 -1 55 Z" /><glyph glyph-name="ccedilla" unicode="ç" d="M506 -27 l-19 -66 q103 0 150.5 -38 q47.5 -38 47.5 -95 q0 -57 -45 -101.5 q-45 -44.5 -145 -44.5 q-104 0 -179 45 l24 64 q73 -35 144 -35 q44 0 72 19.5 q28 19.5 28 50.5 q0 71 -116 71 q-25 0 -74 -5 l46 139 q-177 25 -269.5 175.5 q-92.5 150.5 -92.5 350.5 q0 230 115.5 382.5 q115.5 152.5 314.5 152.5 q165 0 264.5 -98.5 q99.5 -98.5 123.5 -254.5 l-142 -27 q-40 250 -242 250 q-130 0 -200 -110.5 q-70 -110.5 -70 -286.5 q0 -194 69.5 -301.5 q69.5 -107.5 195.5 -107.5 q195 0 247 252 l142 -25 q-29 -164 -131 -260 q-102 -96 -259 -96 Z" /><glyph glyph-name="eth" unicode="ð" d="M345 1164 l146 88 q-57 44 -164 94 l77 82 q110 -35 207 -106 l176 99 l70 -87 l-153 -86 q278 -282 278 -707 q0 -281 -130.5 -424.5 q-130.5 -143.5 -325.5 -143.5 q-221 0 -334.5 157.5 q-113.5 157.5 -113.5 362.5 q0 213 123.5 365 q123.5 152 301.5 152 q144 0 245 -114 q-48 159 -169 281 l-175 -101 l-59 88 ZM528 881 q-132 0 -205 -109 q-73 -109 -73 -272 q0 -199 79 -299.5 q79 -100.5 204 -100.5 q121 0 199 101.5 q78 101.5 78 286.5 q0 175 -78 284 q-78 109 -204 109 Z" /><glyph glyph-name="divide" unicode="÷" d="M696 992 q0 -40 -28.5 -68 q-28.5 -28 -67.5 -28 q-39 0 -67.5 28 q-28.5 28 -28.5 68 q0 40 28.5 68 q28.5 28 67.5 28 q40 0 68 -28 q28 -28 28 -68 ZM123 753 l956 0 l0 -138 l-956 0 l0 138 ZM696 388 q0 -40 -28.5 -68 q-28.5 -28 -67.5 -28 q-40 0 -68 28 q-28 28 -28 68 q0 40 28 68.5 q28 28.5 68 28.5 q40 0 68 -28.5 q28 -28.5 28 -68.5 Z" /><glyph glyph-name="oslash" unicode="ø" d="M184 142 q-106 148 -106 368 q0 239 131 383.5 q131 144.5 325 144.5 q149 0 259 -82 l90 120 l140 0 l-150 -200 q112 -149 112 -368 q0 -236 -129.5 -385.5 q-129.5 -149.5 -336.5 -149.5 q-158 0 -260 87 l-87 -115 l-136 0 l148 197 ZM286 279 l419 559 q-78 70 -176 70 q-116 0 -197.5 -95 q-81.5 -95 -81.5 -305 q0 -135 36 -229 ZM773 743 l-425 -565 q79 -76 184 -76 q119 0 200 99 q81 99 81 308 q0 146 -40 234 Z" /><glyph glyph-name="thorn" unicode="þ" d="M314 -341 l-157 0 l0 1706 l157 0 l0 -531 q105 204 306 204 q174 0 285 -148 q111 -148 111 -380 q0 -247 -113 -392 q-113 -145 -290 -145 q-190 0 -299 181 l0 -495 ZM314 651 l0 -284 q15 -115 97 -190 q82 -75 171 -75 q103 0 182.5 90 q79.5 90 79.5 311 q0 191 -72 294.5 q-72 103.5 -191 103.5 q-94 0 -168.5 -73 q-74.5 -73 -98.5 -177 Z" /><glyph glyph-name="Aogonek" unicode="&#x104;" d="M991 0 l-76 0 l-138 399 l-505 0 l-122 -399 l-143 0 l443 1365 l195 0 l445 -1365 q-134 -77 -134 -158 q0 -96 114 -96 q45 0 88 14 l18 -69 q-66 -34 -150 -34 q-93 0 -143 41.5 q-50 41.5 -50 111.5 q0 127 158 190 ZM741 527 l-210 656 l-212 -656 l422 0 Z" /><glyph glyph-name="aogonek" unicode="&#x105;" d="M853 0 l-61 0 q-9 48 -18 182 q-104 -209 -354 -209 q-170 0 -261 90 q-91 90 -91 216 q0 151 129 250.5 q129 99.5 446 99.5 q39 0 131 -4 q0 120 -18.5 173.5 q-18.5 53.5 -78.5 85.5 q-60 32 -158 32 q-239 0 -278 -182 l-145 25 q53 279 448 279 q206 0 294 -93 q88 -93 88 -320 l0 -429 q0 -132 22 -196 q-91 -60 -108 -89 q-17 -29 -17 -56 q0 -86 111 -86 q38 0 87 13 l18 -63 q-65 -32 -148 -32 q-90 0 -139 38 q-49 38 -49 102 q0 110 150 173 ZM774 505 q-96 6 -146 6 q-186 0 -289 -61 q-103 -61 -103 -178 q0 -74 55.5 -126 q55.5 -52 160.5 -52 q142 0 233.5 103 q91.5 103 91.5 242 q0 28 -3 66 Z" /><glyph glyph-name="Dslash" unicode="&#x110;" d="M35 655 l0 137 l137 0 l0 573 l456 0 q289 0 450 -197 q161 -197 161 -481 q0 -289 -156.5 -488 q-156.5 -199 -398.5 -199 l-512 0 l0 655 l-137 0 ZM342 792 l326 0 l0 -137 l-326 0 l0 -510 l276 0 q220 0 334 152.5 q114 152.5 114 400.5 q0 200 -109 362 q-109 162 -339 162 l-276 0 l0 -430 Z" /><glyph glyph-name="dcroat" unicode="&#x111;" d="M790 1365 l157 0 l0 -118 l137 0 l0 -116 l-137 0 l0 -1131 l-143 0 l0 173 q-106 -200 -320 -200 q-177 0 -291 148.5 q-114 148.5 -114 375.5 q0 232 113 386.5 q113 154.5 301 154.5 q182 0 297 -166 l0 259 l-290 0 l0 116 l290 0 l0 118 ZM790 620 q0 133 -81 213 q-81 80 -190 80 q-117 0 -192.5 -104 q-75.5 -104 -75.5 -292 q0 -210 71 -312.5 q71 -102.5 190 -102.5 q110 0 194 92 q84 92 84 216 l0 210 Z" /><glyph glyph-name="Eogonek" unicode="&#x118;" d="M1054 0 q-134 -77 -134 -158 q0 -96 114 -96 q45 0 88 14 l18 -69 q-66 -34 -150 -34 q-93 0 -143 41.5 q-50 41.5 -50 111.5 q0 127 158 190 l-784 0 l0 1365 l864 0 l0 -150 l-693 0 l0 -434 l550 0 l0 -139 l-550 0 l0 -492 l712 0 l0 -150 Z" /><glyph glyph-name="eogonek" unicode="&#x119;" d="M866 -211 l18 -63 q-66 -32 -145 -32 q-191 0 -191 140 q0 90 103 150 q-55 -11 -110 -11 q-202 0 -332.5 142 q-130.5 142 -130.5 385 q0 241 133 389.5 q133 148.5 334 148.5 q198 0 318.5 -137 q120.5 -137 123.5 -410 l-734 0 q0 -229 96 -309 q96 -80 203 -80 q193 0 272 199 l146 -30 q-30 -103 -150 -212 q-100 -90 -126 -124.5 q-26 -34.5 -26 -73.5 q0 -85 112 -85 q38 0 86 13 ZM815 608 q-2 85 -28 151 q-26 66 -88 112.5 q-62 46.5 -149 46.5 q-117 0 -198.5 -84 q-81.5 -84 -91.5 -226 l555 0 Z" /><glyph glyph-name="Hbar" unicode="&#x126;" d="M171 1164 l0 201 l170 0 l0 -201 l634 0 l0 201 l171 0 l0 -201 l129 0 l0 -137 l-129 0 l0 -1027 l-171 0 l0 650 l-634 0 l0 -650 l-170 0 l0 1027 l-130 0 l0 137 l130 0 ZM975 1027 l-634 0 l0 -227 l634 0 l0 227 Z" /><glyph glyph-name="hbar" unicode="&#x127;" d="M21 1131 l0 116 l137 0 l0 118 l157 0 l0 -118 l290 0 l0 -116 l-290 0 l0 -307 q107 214 309 214 q86 0 155 -35.5 q69 -35.5 106.5 -92.5 q37.5 -57 50.5 -112 q13 -55 13 -185 l0 -613 l-157 0 l0 613 q0 108 -13 162 q-13 54 -64 93.5 q-51 39.5 -116 39.5 q-121 0 -202.5 -99 q-81.5 -99 -81.5 -265 l0 -544 l-157 0 l0 1131 l-137 0 Z" /><glyph glyph-name="Iogonek" unicode="&#x12e;" d="M245 0 l-74 0 l0 1365 l171 0 l0 -1365 q-107 -71 -107 -157 q0 -97 99 -97 q29 0 75 14 l19 -69 q-69 -34 -137 -34 q-87 0 -133 43 q-46 43 -46 110 q0 115 133 190 Z" /><glyph glyph-name="iogonek" unicode="&#x12f;" d="M320 1365 l0 -174 l-170 0 l0 174 l170 0 ZM314 0 q-93 -64 -93 -147 q0 -85 90 -85 q36 0 76 14 l18 -63 q-67 -32 -138 -32 q-89 0 -127.5 42 q-38.5 42 -38.5 100 q0 105 125 171 l-69 0 l0 1010 l157 0 l0 -1010 Z" /><glyph glyph-name="dotlessi" unicode="&#x131;" d="M313 1010 l0 -1010 l-157 0 l0 1010 l157 0 Z" /><glyph glyph-name="IJ" unicode="&#x132;" d="M342 0 l-171 0 l0 1365 l171 0 l0 -1365 ZM1113 1365 l0 -948 q0 -248 -112 -346 q-112 -98 -297 -98 q-99 0 -198 27 l0 140 q98 -20 178 -20 q113 0 167.5 34 q54.5 34 72.5 88 q18 54 18 175 l0 948 l171 0 Z" /><glyph glyph-name="ij" unicode="&#x133;" d="M319 1365 l0 -174 l-169 0 l0 174 l169 0 ZM785 1365 l0 -174 l-179 0 l0 174 l179 0 ZM777 1021 l0 -1052 q0 -178 -84.5 -248 q-84.5 -70 -207.5 -70 q-59 0 -146 21 l0 124 q64 -16 115 -16 q92 0 129 44.5 q37 44.5 37 144.5 l0 1052 l157 0 ZM314 1010 l0 -1010 l-157 0 l0 1010 l157 0 Z" /><glyph glyph-name="jcircumflex" unicode="&#x135;" d="M563 1194 l-141 -20 l-191 134 l-184 -134 l-147 20 l334 260 l329 -260 ZM314 1021 l0 -1052 q0 -185 -89.5 -251.5 q-89.5 -66.5 -187.5 -66.5 q-59 0 -161 21 l0 124 q65 -16 116 -16 q86 0 125.5 42 q39.5 42 39.5 147 l0 1052 l157 0 Z" /><glyph glyph-name="kgreenlandic" unicode="&#x138;" d="M991 0 l-163 0 l-295 564 l-219 -251 l0 -313 l-157 0 l0 1010 l157 0 l0 -517 l469 517 l168 0 l-316 -355 l356 -655 Z" /><glyph glyph-name="ldot" unicode="&#x140;" d="M314 0 l-157 0 l0 1365 l157 0 l0 -1365 ZM664 779 l0 -165 l-164 0 l0 165 l164 0 Z" /><glyph glyph-name="Lslash" unicode="&#x141;" d="M977 150 l0 -150 l-803 0 l0 527 l-134 -127 l0 164 l134 127 l0 674 l175 0 l0 -566 l258 233 l0 -164 l-258 -233 l0 -485 l628 0 Z" /><glyph glyph-name="lslash" unicode="&#x142;" d="M157 596 l-134 -132 l0 151 l134 132 l0 618 l157 0 l0 -531 l134 127 l0 -151 l-134 -127 l0 -683 l-157 0 l0 596 Z" /><glyph glyph-name="Eng" unicode="&#x14a;" d="M171 1365 l156 0 l0 -251 q83 146 179 212.5 q96 66.5 232 66.5 q140 0 237.5 -74 q97.5 -74 134 -174 q36.5 -100 36.5 -355 l0 -712 q0 -246 -105 -338 q-105 -92 -227 -92 q-61 0 -167 22 l0 139 q80 -20 133 -20 q103 0 149 63.5 q46 63.5 46 203.5 l0 855 q0 187 -74.5 265 q-74.5 78 -187.5 78 q-76 0 -162.5 -45 q-86.5 -45 -147.5 -159 q-61 -114 -61 -267 l0 -783 l-171 0 l0 1365 Z" /><glyph glyph-name="eng" unicode="&#x14b;" d="M157 1010 l146 0 l0 -186 q123 214 319 214 q113 0 192.5 -58.5 q79.5 -58.5 109 -131.5 q29.5 -73 29.5 -264 l0 -615 q0 -185 -90 -251.5 q-90 -66.5 -187 -66.5 q-60 0 -161 21 l0 124 q64 -16 115 -16 q89 0 127 43.5 q38 43.5 38 145.5 l0 680 q0 139 -57 196.5 q-57 57.5 -142 57.5 q-119 0 -200.5 -96 q-81.5 -96 -81.5 -253 l0 -554 l-157 0 l0 1010 Z" /><glyph glyph-name="OE" unicode="&#x152;" d="M1904 150 l0 -150 l-866 0 l0 143 q-133 -170 -363 -170 q-264 0 -427 201.5 q-163 201.5 -163 503.5 q0 302 162 508.5 q162 206.5 435 206.5 q220 0 356 -167 l0 139 l866 0 l0 -150 l-685 0 l0 -434 l551 0 l0 -139 l-551 0 l0 -492 l685 0 ZM1038 995 q-25 119 -125.5 188.5 q-100.5 69.5 -229.5 69.5 q-197 0 -308 -159.5 q-111 -159.5 -111 -411.5 q0 -247 109.5 -408.5 q109.5 -161.5 304.5 -161.5 q119 0 220.5 65.5 q101.5 65.5 139.5 219.5 l0 598 Z" /><glyph glyph-name="oe" unicode="&#x153;" d="M1512 304 l141 -28 q-50 -153 -165 -228 q-115 -75 -244 -75 q-216 0 -352 175 q-147 -175 -358 -175 q-198 0 -327 144.5 q-129 144.5 -129 385.5 q0 244 135 389.5 q135 145.5 330 145.5 q205 0 349 -173 q145 173 347 173 q190 0 308 -139.5 q118 -139.5 122 -407.5 l-710 0 q0 -120 24.5 -198 q24.5 -78 99.5 -136 q75 -58 169 -58 q180 0 260 205 ZM537 98 q126 0 206 99 q80 99 80 310 q0 200 -76.5 298.5 q-76.5 98.5 -206.5 98.5 q-286 0 -286 -424 q0 -193 80.5 -287.5 q80.5 -94.5 202.5 -94.5 ZM1501 608 q-1 122 -71.5 209 q-70.5 87 -191.5 87 q-104 0 -183 -74.5 q-79 -74.5 -91 -221.5 l537 0 Z" /><glyph glyph-name="Scedilla" unicode="&#x15e;" d="M551 -27 l-25 -80 q24 2 36 2 q68 0 125 -39 q57 -39 57 -112 q0 -68 -57.5 -111.5 q-57.5 -43.5 -160.5 -43.5 q-105 0 -192 50 l26 72 q83 -40 154 -40 q115 0 115 75 q0 81 -130 81 q-27 0 -80 -6 l53 158 q-330 40 -451 384 l154 35 q93 -279 403 -279 q162 0 244 68.5 q82 68.5 82 183.5 q0 87 -62.5 140 q-62.5 53 -144.5 73 l-273 68 q-106 27 -173.5 65.5 q-67.5 38.5 -114.5 118.5 q-47 80 -47 183 q0 171 129 272.5 q129 101.5 331 101.5 q372 0 489 -337 l-155 -46 q-27 120 -127 181.5 q-100 61.5 -213 61.5 q-112 0 -199.5 -59 q-87.5 -59 -87.5 -167 q0 -151 222 -204 l255 -61 q350 -84 350 -377 q0 -184 -138 -300.5 q-138 -116.5 -394 -111.5 Z" /><glyph glyph-name="scedilla" unicode="&#x15f;" d="M21 262 l150 31 q24 -106 117 -148.5 q93 -42.5 198 -42.5 q99 0 167 44 q68 44 68 124 q0 119 -173 151 l-213 40 q-125 24 -199 94 q-74 70 -74 185 q0 127 101 212.5 q101 85.5 272 85.5 q329 0 406 -257 l-144 -31 q-62 158 -255 158 q-96 0 -157.5 -39.5 q-61.5 -39.5 -61.5 -110.5 q0 -112 157 -141 l197 -35 q309 -56 309 -299 q0 -140 -116 -225 q-116 -85 -296 -85 l-18 -66 q99 0 148.5 -37 q49.5 -37 49.5 -96 q0 -57 -45.5 -101.5 q-45.5 -44.5 -145.5 -44.5 q-104 0 -178 45 l23 64 q75 -35 142 -35 q46 0 74 19.5 q28 19.5 28 50.5 q0 71 -115 71 q-26 0 -75 -5 l46 137 q-321 31 -387 287 Z" /><glyph glyph-name="Tbar" unicode="&#x166;" d="M142 802 l0 137 l270 0 l0 276 l-391 0 l0 150 l953 0 l0 -150 l-392 0 l0 -276 l270 0 l0 -137 l-270 0 l0 -802 l-170 0 l0 802 l-270 0 Z" /><glyph glyph-name="tbar" unicode="&#x167;" d="M549 726 l0 -116 l-218 0 l0 -357 q0 -156 162 -156 q54 0 122 11 l0 -124 q-85 -11 -148 -11 q-289 0 -289 306 l0 331 l-171 0 l0 116 l171 0 l0 161 l-179 0 l0 123 l179 0 l7 254 l146 14 l0 -268 l226 0 l0 -123 l-226 0 l0 -161 l218 0 Z" /><glyph glyph-name="Uogonek" unicode="&#x172;" d="M982 -233 l19 -69 q-67 -35 -151 -35 q-92 0 -142 42 q-50 42 -50 112 q0 113 132 179 q-86 -23 -176 -23 q-226 0 -345 116 q-119 116 -119 385 l0 891 l171 0 l0 -891 q0 -159 37 -224 q37 -65 112 -96 q75 -31 157 -31 q158 0 240 83 q82 83 82 268 l0 891 l142 0 l0 -891 q0 -167 -40 -252 q-40 -85 -141 -184 q-78 -77 -104.5 -115.5 q-26.5 -38.5 -26.5 -77.5 q0 -92 116 -92 q43 0 87 14 Z" /><glyph glyph-name="uogonek" unicode="&#x173;" d="M857 0 l-46 0 l0 193 q-108 -220 -322 -220 q-155 0 -243.5 102 q-88.5 102 -88.5 290 l0 645 l157 0 l0 -645 q0 -150 62.5 -206.5 q62.5 -56.5 137.5 -56.5 q76 0 137.5 43 q61.5 43 102.5 122.5 q41 79.5 41 173.5 l0 569 l157 0 l0 -1010 q-91 -60 -108.5 -89 q-17.5 -29 -17.5 -56 q0 -86 112 -86 q38 0 86 13 l19 -63 q-66 -32 -148 -32 q-90 0 -139 38 q-49 38 -49 102 q0 110 150 173 Z" /><glyph glyph-name="longs" unicode="&#x17f;" d="M629 0 l-157 0 l0 1010 q0 218 81 300.5 q81 82.5 231 82.5 q63 0 144 -14 l0 -125 q-51 13 -97 13 q-116 0 -159 -50.5 q-43 -50.5 -43 -206.5 l0 -1010 Z" /><glyph glyph-name="florin" unicode="&#x192;" d="M1005 1169 l-24 -138 l-246 0 l-171 -970 q-24 -134 -69.5 -203.5 q-45.5 -69.5 -126 -113 q-80.5 -43.5 -178.5 -43.5 q-33 0 -90 4 l22 123 q51 -2 55 -2 q78 0 128 32.5 q50 32.5 68.5 81.5 q18.5 49 41.5 180 l162 911 l-187 0 l25 138 l187 0 q32 210 147 290 q115 80 245 80 q32 0 75 -7 l-22 -122 q-118 0 -165 -18 q-47 -18 -73.5 -61 q-26.5 -43 -49.5 -162 l246 0 Z" /><glyph glyph-name="Aringacute" unicode="&#x1fa;" d="M771 1834 l-415 -175 l-43 81 l396 214 l62 -120 ZM449 1362 q-80 50 -80 147 q0 79 54 131.5 q54 52.5 128 52.5 q75 0 126.5 -53 q51.5 -53 51.5 -129 q0 -101 -82 -149 l443 -1362 l-175 0 l-138 399 l-505 0 l-122 -399 l-143 0 l442 1362 ZM550 1613 q-37 0 -64.5 -29.5 q-27.5 -29.5 -27.5 -72.5 q0 -37 26.5 -66 q26.5 -29 65.5 -29 q37 0 63.5 27.5 q26.5 27.5 26.5 68.5 q0 40 -26 70.5 q-26 30.5 -64 30.5 ZM741 527 l-210 656 l-212 -656 l422 0 Z" /><glyph glyph-name="circumflex" unicode="&#x2c6;" d="M843 1194 l-141 -20 l-191 134 l-184 -134 l-147 20 l334 260 l329 -260 Z" /><glyph glyph-name="caron" unicode="&#x2c7;" d="M180 1420 l141 20 l191 -133 l184 133 l147 -20 l-334 -259 l-329 259 Z" /><glyph glyph-name="macron" unicode="&#x2c9;" d="M823 1345 l0 -109 l-621 0 l0 109 l621 0 Z" /><glyph glyph-name="breve" unicode="&#x2d8;" d="M213 1438 l114 0 q25 -136 181 -136 q163 0 189 136 l114 0 q-43 -256 -286 -256 q-275 0 -312 256 Z" /><glyph glyph-name="dotaccent" unicode="&#x2d9;" d="M618 1304 q0 -43 -31.5 -73 q-31.5 -30 -74.5 -30 q-43 0 -74.5 30 q-31.5 30 -31.5 72 q0 43 31.5 72.5 q31.5 29.5 72.5 29.5 q45 0 76.5 -29.5 q31.5 -29.5 31.5 -71.5 Z" /><glyph glyph-name="ring" unicode="&#x2da;" d="M686 1326 q0 -71 -50.5 -121.5 q-50.5 -50.5 -121.5 -50.5 q-71 0 -123 51 q-52 51 -52 122 q0 70 51.5 122 q51.5 52 127.5 52 q67 0 117.5 -51.5 q50.5 -51.5 50.5 -123.5 ZM603 1326 q0 38 -26 65 q-26 27 -59 27 q-43 0 -69.5 -27 q-26.5 -27 -26.5 -63 q0 -38 27 -65 q27 -27 65 -27 q37 0 63 26.5 q26 26.5 26 63.5 Z" /><glyph glyph-name="ogonek" unicode="&#x2db;" d="M909 0 q-90 -59 -107.5 -87.5 q-17.5 -28.5 -17.5 -56.5 q0 -87 112 -87 q37 0 86 13 l18 -63 q-65 -32 -148 -32 q-93 0 -140.5 39 q-47.5 39 -47.5 102 q0 109 150 172 l95 0 Z" /><glyph glyph-name="tilde" unicode="&#x2dc;" d="M777 1380 l77 -72 q-106 -101 -202 -101 q-49 0 -129 35 q-87 38 -134 38 q-81 0 -135 -66 l-84 58 q88 128 224 128 q46 0 128 -34 q89 -37 128 -37 q65 0 127 51 Z" /><glyph glyph-name="hungarumlaut" unicode="&#x2dd;" d="M646 1365 l-322 -198 l-51 78 l303 231 l70 -111 ZM973 1365 l-322 -198 l-50 78 l303 231 l69 -111 Z" /><glyph glyph-name="tonos" unicode="&#x384;" d="M277 1365 l-264 -294 l-75 58 l218 320 l121 -84 Z" /><glyph glyph-name="dieresistonos" unicode="&#x385;" d="M741 1622 l-264 -199 l-61 68 l225 236 l100 -105 ZM777 1304 q0 -43 -31.5 -73 q-31.5 -30 -74.5 -30 q-43 0 -74.5 30 q-31.5 30 -31.5 72 q0 43 31.5 72.5 q31.5 29.5 73.5 29.5 q44 0 75.5 -29.5 q31.5 -29.5 31.5 -71.5 ZM455 1303 q0 -42 -31.5 -72 q-31.5 -30 -73.5 -30 q-42 0 -72.5 30 q-30.5 30 -30.5 71 q0 43 30.5 72.5 q30.5 29.5 69.5 29.5 q48 0 78 -30 q30 -30 30 -71 Z" /><glyph glyph-name="anoteleia" unicode="&#x387;" d="M223 631 l0 -224 l-223 0 l0 224 l223 0 Z" /><glyph glyph-name="Alpha" unicode="&#x391;" d="M1090 0 l-175 0 l-138 399 l-505 0 l-122 -399 l-143 0 l443 1365 l195 0 l445 -1365 ZM741 527 l-210 656 l-212 -656 l422 0 Z" /><glyph glyph-name="Beta" unicode="&#x392;" d="M171 0 l0 1365 l540 0 q204 0 302.5 -100 q98.5 -100 98.5 -232 q0 -232 -242 -308 q144 -37 214 -132 q70 -95 70 -215 q0 -161 -108.5 -269.5 q-108.5 -108.5 -334.5 -108.5 l-540 0 ZM336 780 l297 0 q185 0 247 70.5 q62 70.5 62 165.5 q0 94 -66.5 152 q-66.5 58 -198.5 58 l-341 0 l0 -446 ZM336 150 l366 0 q134 0 207 65 q73 65 73 169 q0 73 -33 135.5 q-33 62.5 -93 96.5 q-60 34 -179 34 l-341 0 l0 -500 Z" /><glyph glyph-name="Gamma" unicode="&#x393;" d="M171 0 l0 1365 l742 0 l0 -150 l-571 0 l0 -1215 l-171 0 Z" /><glyph glyph-name="Delta" unicode="&#x394;" d="M7 0 l473 1365 l229 0 l483 -1365 l-1185 0 ZM205 150 l742 0 l-360 1080 l-20 0 l-362 -1080 Z" /><glyph glyph-name="Epsilon" unicode="&#x395;" d="M1054 150 l0 -150 l-883 0 l0 1365 l864 0 l0 -150 l-693 0 l0 -434 l550 0 l0 -139 l-550 0 l0 -492 l712 0 Z" /><glyph glyph-name="Zeta" unicode="&#x396;" d="M1019 146 l0 -146 l-963 0 l0 146 l741 1071 l-707 0 l0 139 l907 0 l0 -114 l-750 -1096 l772 0 Z" /><glyph glyph-name="Eta" unicode="&#x397;" d="M1146 0 l-171 0 l0 650 l-633 0 l0 -650 l-171 0 l0 1365 l171 0 l0 -565 l633 0 l0 565 l171 0 l0 -1365 Z" /><glyph glyph-name="Theta" unicode="&#x398;" d="M649 1393 q263 0 410 -205 q147 -205 147 -502 q0 -308 -154 -510.5 q-154 -202.5 -408 -202.5 q-253 0 -406 198 q-153 198 -153 501 q0 197 69.5 363 q69.5 166 193.5 262 q124 96 301 96 ZM645 1253 q-162 0 -271.5 -149 q-109.5 -149 -109.5 -433 q0 -264 104 -411.5 q104 -147.5 279 -147.5 q175 0 277.5 159 q102.5 159 102.5 416 q0 250 -103.5 408 q-103.5 158 -278.5 158 ZM838 779 l0 -150 l-382 0 l0 150 l382 0 Z" /><glyph glyph-name="Iota" unicode="&#x399;" d="M342 0 l-171 0 l0 1365 l171 0 l0 -1365 Z" /><glyph glyph-name="Kappa" unicode="&#x39a;" d="M1250 0 l-187 0 l-408 753 l-313 -389 l0 -364 l-171 0 l0 1365 l171 0 l0 -792 l617 792 l185 0 l-370 -478 l476 -887 Z" /><glyph glyph-name="Lambda" unicode="&#x39b;" d="M162 0 l-155 0 l443 1365 l216 0 l472 -1365 l-202 0 l-389 1183 l-16 0 l-369 -1183 Z" /><glyph glyph-name="Mu" unicode="&#x39c;" d="M1489 0 l-166 0 l0 1192 l-444 -1192 l-116 0 l-447 1192 l0 -1192 l-145 0 l0 1365 l254 0 l411 -1092 l403 1092 l250 0 l0 -1365 Z" /><glyph glyph-name="Nu" unicode="&#x39d;" d="M1176 0 l-166 0 l-706 1190 l2 -90 q3 -51 3 -86 l0 -1014 l-138 0 l0 1365 l214 0 l660 -1113 l-2 95 q-2 56 -2 99 l0 919 l135 0 l0 -1365 Z" /><glyph glyph-name="Xi" unicode="&#x39e;" d="M79 1215 l0 150 l882 0 l0 -150 l-882 0 ZM176 649 l0 150 l685 0 l0 -150 l-685 0 ZM79 0 l0 150 l882 0 l0 -150 l-882 0 Z" /><glyph glyph-name="Omicron" unicode="&#x39f;" d="M642 -27 q-263 0 -410 204.5 q-147 204.5 -147 501.5 q0 310 154 512 q154 202 408 202 q253 0 406 -198.5 q153 -198.5 153 -500.5 q0 -290 -148.5 -505.5 q-148.5 -215.5 -415.5 -215.5 ZM646 112 q179 0 280 163 q101 163 101 420 q0 264 -104.5 411 q-104.5 147 -277.5 147 q-175 0 -278 -159 q-103 -159 -103 -416 q0 -251 104 -408.5 q104 -157.5 278 -157.5 Z" /><glyph glyph-name="Pi" unicode="&#x3a0;" d="M179 0 l0 1365 l916 0 l0 -1365 l-170 0 l0 1215 l-575 0 l0 -1215 l-171 0 Z" /><glyph glyph-name="Rho" unicode="&#x3a1;" d="M342 0 l-171 0 l0 1365 l484 0 q227 0 335 -123.5 q108 -123.5 108 -281.5 q0 -176 -117.5 -291 q-117.5 -115 -307.5 -115 l-331 0 l0 -554 ZM342 696 l314 0 q121 0 195 72.5 q74 72.5 74 191.5 q0 102 -66 182 q-66 80 -191 80 l-326 0 l0 -526 Z" /><glyph glyph-name="Sigma" unicode="&#x3a3;" d="M84 0 l0 128 l427 584 l-406 525 l0 128 l816 0 l0 -136 l-609 0 l399 -488 l-437 -591 l703 0 l0 -150 l-893 0 Z" /><glyph glyph-name="Tau" unicode="&#x3a4;" d="M582 0 l-170 0 l0 1215 l-391 0 l0 150 l953 0 l0 -150 l-392 0 l0 -1215 Z" /><glyph glyph-name="Upsilon" unicode="&#x3a5;" d="M1065 1365 l-457 -791 l0 -574 l-171 0 l0 574 l-457 791 l201 0 l363 -628 l365 628 l156 0 Z" /><glyph glyph-name="Phi" unicode="&#x3a6;" d="M669 126 q-293 27 -430 176 q-137 149 -137 375 q0 244 140 390.5 q140 146.5 427 172.5 l0 166 l157 0 l0 -166 q293 -27 430.5 -176 q137.5 -149 137.5 -374 q0 -245 -140.5 -391.5 q-140.5 -146.5 -427.5 -172.5 l0 -167 l-157 0 l0 167 ZM826 252 q389 50 389 437 q0 374 -389 425 l0 -862 ZM669 1114 q-388 -48 -388 -437 q0 -374 388 -425 l0 862 Z" /><glyph glyph-name="Chi" unicode="&#x3a7;" d="M1005 1365 l-383 -625 l438 -740 l-193 0 l-345 582 l-358 -582 l-159 0 l437 706 l-389 659 l191 0 l299 -504 l306 504 l156 0 Z" /><glyph glyph-name="Psi" unicode="&#x3a8;" d="M694 0 l0 260 q-235 17 -350 98.5 q-115 81.5 -153 208 q-38 126.5 -38 392.5 l0 406 l171 0 l0 -406 q0 -224 20 -320.5 q20 -96.5 105.5 -163.5 q85.5 -67 244.5 -76 l0 966 l171 0 l0 -966 q158 8 241 72.5 q83 64.5 106 160.5 q23 96 23 327 l0 406 l171 0 l0 -406 q0 -262 -34.5 -388.5 q-34.5 -126.5 -155.5 -210 q-121 -83.5 -351 -100.5 l0 -260 l-171 0 Z" /><glyph glyph-name="Omega" unicode="&#x3a9;" d="M58 0 l0 150 l326 0 q-299 180 -299 590 q0 312 165 482.5 q165 170.5 402 170.5 q237 0 402 -170.5 q165 -170.5 165 -482.5 q0 -410 -298 -590 l326 0 l0 -150 l-501 0 l0 150 q294 189 294 593 q0 239 -108.5 374.5 q-108.5 135.5 -279.5 135.5 q-172 0 -280 -136.5 q-108 -136.5 -108 -373.5 q0 -404 295 -593 l0 -150 l-501 0 Z" /><glyph glyph-name="alpha" unicode="&#x3b1;" d="M1146 0 l-172 0 l-124 341 q-128 -368 -373 -368 q-176 0 -287 150 q-111 150 -111 375 q0 248 119.5 394 q119.5 146 302.5 146 q229 0 345 -316 l99 288 l156 0 l-170 -479 l215 -531 ZM793 531 q-68 195 -133.5 286 q-65.5 91 -157.5 91 q-102 0 -176.5 -105.5 q-74.5 -105.5 -74.5 -303.5 q0 -179 73 -288 q73 -109 177 -109 q84 0 149.5 90 q65.5 90 142.5 339 Z" /><glyph glyph-name="beta" unicode="&#x3b2;" d="M164 -341 l0 1284 q0 177 33 264 q33 87 117.5 136.5 q84.5 49.5 223.5 49.5 q189 0 291 -89.5 q102 -89.5 102 -230.5 q0 -202 -206 -297 q292 -83 292 -377 q0 -184 -114.5 -305 q-114.5 -121 -307.5 -121 q-188 0 -274 120 l0 -434 l-157 0 ZM321 203 q86 -107 226 -107 q137 0 217.5 87 q80.5 87 80.5 225 q0 131 -73.5 212.5 q-73.5 81.5 -238.5 81.5 l0 122 q235 3 235 230 q0 100 -58.5 160.5 q-58.5 60.5 -172.5 60.5 q-85 0 -132 -34 q-47 -34 -65.5 -91 q-18.5 -57 -18.5 -199 l0 -748 Z" /><glyph glyph-name="gamma" unicode="&#x3b3;" d="M358 -341 l0 373 l-358 978 l178 0 l268 -783 l264 783 l151 0 l-346 -978 l0 -373 l-157 0 Z" /><glyph glyph-name="delta" unicode="&#x3b4;" d="M850 1365 l0 -123 l-443 0 l185 -142 q220 -168 294.5 -285.5 q74.5 -117.5 74.5 -312.5 q0 -245 -115.5 -387 q-115.5 -142 -314.5 -142 q-202 0 -322 135.5 q-120 135.5 -120 366.5 q0 175 59.5 283.5 q59.5 108.5 152 159.5 q92.5 51 224.5 54 l-330 270 l0 123 l655 0 ZM525 892 q-113 0 -188.5 -95 q-75.5 -95 -75.5 -296 q0 -212 76 -305.5 q76 -93.5 189 -93.5 q119 0 191 99 q72 99 72 298 q0 214 -77 303.5 q-77 89.5 -187 89.5 Z" /><glyph glyph-name="epsilon" unicode="&#x3b5;" d="M564 593 l0 -131 q-133 0 -183 -10 q-50 -10 -85.5 -49.5 q-35.5 -39.5 -35.5 -108.5 q0 -92 60 -142 q60 -50 147 -50 q207 0 266 224 l148 -26 q-32 -138 -138.5 -232.5 q-106.5 -94.5 -291.5 -94.5 q-180 0 -271.5 93.5 q-91.5 93.5 -91.5 219.5 q0 189 213 249 q-187 77 -187 233 q0 113 92 191.5 q92 78.5 267 78.5 q165 0 260.5 -82.5 q95.5 -82.5 115.5 -202.5 l-146 -27 q-40 182 -230 182 q-187 0 -187 -154 q0 -79 56 -120 q56 -41 222 -41 Z" /><glyph glyph-name="zeta" unicode="&#x3b6;" d="M123 1242 l0 123 l567 0 l0 -92 q-430 -430 -430 -862 q0 -100 25.5 -159 q25.5 -59 68 -80 q42.5 -21 147.5 -27 q125 -8 164 -58.5 q39 -50.5 39 -127.5 q0 -125 -82 -314 l-150 27 q76 165 76 243 q0 45 -29.5 62 q-29.5 17 -108.5 20 q-130 6 -194.5 56 q-64.5 50 -96 142.5 q-31.5 92.5 -31.5 199.5 q0 241 139.5 475 q139.5 234 289.5 372 l-394 0 Z" /><glyph glyph-name="eta" unicode="&#x3b7;" d="M946 -341 l-157 0 l0 977 q0 161 -57 214 q-57 53 -136 53 q-127 0 -208 -98 q-81 -98 -81 -251 l0 -554 l-157 0 l0 1010 l146 0 l0 -186 q123 214 330 214 q119 0 192.5 -55.5 q73.5 -55.5 100.5 -135.5 q27 -80 27 -263 l0 -925 Z" /><glyph glyph-name="theta" unicode="&#x3b8;" d="M536 1393 q203 0 320.5 -177 q117.5 -177 117.5 -533 q0 -358 -118 -534 q-118 -176 -320 -176 q-131 0 -233.5 80 q-102.5 80 -153 242 q-50.5 162 -50.5 388 q0 255 57.5 410 q57.5 155 156.5 227.5 q99 72.5 223 72.5 ZM262 771 l549 0 q-14 285 -91.5 392.5 q-77.5 107.5 -183.5 107.5 q-105 0 -182.5 -107.5 q-77.5 -107.5 -91.5 -392.5 ZM262 656 q1 -293 77 -427.5 q76 -134.5 197 -134.5 q112 0 190 119 q78 119 85 443 l-549 0 Z" /><glyph glyph-name="iota" unicode="&#x3b9;" d="M150 0 l0 1010 l157 0 l0 -1010 l-157 0 Z" /><glyph glyph-name="kappa" unicode="&#x3ba;" d="M586 672 l366 -672 l-185 0 l-291 556 l-169 -177 l0 -379 l-157 0 l0 1010 l157 0 l0 -331 q0 -70 -7 -150 q38 48 99 114 l335 367 l174 0 l-322 -338 Z" /><glyph glyph-name="lambda" unicode="&#x3bb;" d="M4 0 l337 941 l-149 424 l165 0 l482 -1365 l-169 0 l-262 764 l-258 -764 l-146 0 Z" /><glyph glyph-name="mu" unicode="&#x3bc;" d="M150 -341 l0 1351 l157 0 l0 -566 q0 -111 21 -174 q21 -63 77.5 -110.5 q56.5 -47.5 136.5 -47.5 q246 0 246 344 l0 554 l157 0 l0 -1010 l-143 0 l0 158 q-89 -185 -255 -185 q-159 0 -240 158 l0 -472 l-157 0 Z" /><glyph glyph-name="nu" unicode="&#x3bd;" d="M897 1010 l-349 -1010 l-163 0 l-361 1010 l174 0 l281 -821 l278 821 l140 0 Z" /><glyph glyph-name="xi" unicode="&#x3be;" d="M615 -328 q56 145 56 229 q0 56 -33.5 75.5 q-33.5 19.5 -138.5 24.5 q-135 7 -221.5 42 q-86.5 35 -143 120.5 q-56.5 85.5 -56.5 216.5 q0 299 304 364 q-231 56 -231 239 q0 94 69 167.5 q69 73.5 183 103.5 l-268 0 l0 111 l675 0 l0 -116 l-116 0 q-201 0 -291 -69 q-90 -69 -90 -173 q0 -210 318 -210 l58 0 l0 -121 l-58 0 q-130 0 -208 -25.5 q-78 -25.5 -125.5 -93.5 q-47.5 -68 -47.5 -167 q0 -94 52 -160.5 q52 -66.5 202 -74.5 q140 -6 196 -18.5 q56 -12.5 94.5 -60.5 q38.5 -48 38.5 -137 q0 -136 -64 -294 l-154 27 Z" /><glyph glyph-name="omicron" unicode="&#x3bf;" d="M519 -27 q-208 0 -324.5 154 q-116.5 154 -116.5 382 q0 241 131 385 q131 144 326 144 q209 0 329.5 -151.5 q120.5 -151.5 120.5 -378.5 q0 -236 -130 -385.5 q-130 -149.5 -336 -149.5 ZM531 102 q120 0 201 99 q81 99 81 308 q0 210 -85 304.5 q-85 94.5 -199 94.5 q-117 0 -198 -95.5 q-81 -95.5 -81 -302.5 q0 -219 81 -313.5 q81 -94.5 200 -94.5 Z" /><glyph glyph-name="pi" unicode="&#x3c0;" d="M188 0 l0 887 l-126 0 l0 123 l972 0 l0 -123 l-127 0 l0 -887 l-157 0 l0 887 l-405 0 l0 -887 l-157 0 Z" /><glyph glyph-name="rho" unicode="&#x3c1;" d="M123 -341 l0 712 q0 242 30.5 365 q30.5 123 137.5 212.5 q107 89.5 268 89.5 q208 0 327.5 -142.5 q119.5 -142.5 119.5 -384.5 q0 -241 -114.5 -381.5 q-114.5 -140.5 -291.5 -140.5 q-216 0 -320 219 l0 -549 l-157 0 ZM557 908 q-265 0 -265 -382 q0 -209 77 -307.5 q77 -98.5 198 -98.5 q122 0 194.5 100.5 q72.5 100.5 72.5 294.5 q0 393 -277 393 Z" /><glyph glyph-name="sigma1" unicode="&#x3c2;" d="M656 -328 q56 107 56 228 q0 62 -23.5 86 q-23.5 24 -101.5 35 q-196 27 -297.5 82.5 q-101.5 55.5 -156 164 q-54.5 108.5 -54.5 260.5 q0 227 109 368.5 q109 141.5 307 141.5 q322 0 383 -353 l-151 -27 q-36 250 -230 250 q-114 0 -184.5 -91.5 q-70.5 -91.5 -70.5 -280.5 q0 -172 76.5 -258.5 q76.5 -86.5 296.5 -116.5 q115 -16 161 -35.5 q46 -19.5 74 -67 q28 -47.5 28 -131.5 q0 -128 -68 -282 l-154 27 Z" /><glyph glyph-name="sigma" unicode="&#x3c3;" d="M1018 1010 l0 -122 l-254 0 q187 -144 187 -398 q0 -246 -122 -381.5 q-122 -135.5 -316 -135.5 q-198 0 -316.5 140.5 q-118.5 140.5 -118.5 376.5 q0 244 121.5 389 q121.5 145 326.5 145 q54 0 115 -14 l377 0 ZM515 894 q-111 0 -188 -93.5 q-77 -93.5 -77 -299.5 q0 -210 79.5 -304.5 q79.5 -94.5 187.5 -94.5 q110 0 186 96 q76 96 76 301 q0 215 -76.5 305 q-76.5 90 -187.5 90 Z" /><glyph glyph-name="tau" unicode="&#x3c4;" d="M333 0 l0 887 l-303 0 l0 123 l763 0 l0 -123 l-303 0 l0 -887 l-157 0 Z" /><glyph glyph-name="upsilon" unicode="&#x3c5;" d="M293 1010 l0 -639 q0 -108 16 -157.5 q16 -49.5 70.5 -80.5 q54.5 -31 139.5 -31 q82 0 137 30 q55 30 72 79 q17 49 17 160 l0 639 l157 0 l0 -639 q0 -160 -37.5 -236 q-37.5 -76 -119 -119 q-81.5 -43 -219.5 -43 q-124 0 -212.5 33.5 q-88.5 33.5 -133 115 q-44.5 81.5 -44.5 249.5 l0 639 l157 0 Z" /><glyph glyph-name="phi" unicode="&#x3c6;" d="M567 -341 l0 314 q-244 23 -361 170 q-117 147 -117 368 q0 333 265 461 l63 -121 q-164 -94 -164 -341 q0 -365 314 -414 l0 932 q44 10 93 10 q253 0 394 -153 q141 -153 141 -383 q0 -212 -125.5 -363 q-125.5 -151 -352.5 -166 l0 -314 l-150 0 ZM717 96 q314 42 314 418 q0 190 -87.5 294 q-87.5 104 -226.5 111 l0 -823 Z" /><glyph glyph-name="chi" unicode="&#x3c7;" d="M359 391 l-316 619 l177 0 l252 -501 l259 501 l153 0 l-340 -641 l361 -710 l-179 0 l-285 609 l-304 -609 l-160 0 l382 732 Z" /><glyph glyph-name="psi" unicode="&#x3c8;" d="M618 -341 l0 314 q-169 5 -276 58.5 q-107 53.5 -149.5 148 q-42.5 94.5 -42.5 282.5 l0 548 l157 0 l0 -548 q0 -173 33 -234.5 q33 -61.5 102 -92.5 q69 -31 176 -32 l0 907 l157 0 l0 -907 q108 1 181.5 35.5 q73.5 34.5 101.5 100.5 q28 66 28 223 l0 548 l157 0 l0 -548 q0 -173 -36.5 -269 q-36.5 -96 -143 -155.5 q-106.5 -59.5 -288.5 -64.5 l0 -314 l-157 0 Z" /><glyph glyph-name="omega" unicode="&#x3c9;" d="M767 760 l0 -365 q0 -194 42 -243.5 q42 -49.5 98 -49.5 q92 0 150.5 86 q58.5 86 58.5 280 q0 285 -161 490 l111 80 q223 -236 223 -552 q0 -264 -111.5 -388.5 q-111.5 -124.5 -262.5 -124.5 q-153 0 -226 172 q-74 -172 -226 -172 q-157 0 -265.5 129 q-108.5 129 -108.5 377 q0 329 223 559 l111 -80 q-162 -205 -162 -490 q0 -190 58.5 -278 q58.5 -88 151.5 -88 q56 0 97.5 49.5 q41.5 49.5 41.5 243.5 l0 365 l157 0 Z" /><glyph glyph-name="afii10051" unicode="&#x402;" d="M233 0 l0 1215 l-233 0 l0 150 l944 0 l0 -150 l-541 0 l0 -509 q124 193 353 193 q199 0 295 -109.5 q96 -109.5 96 -470.5 q0 -414 -109 -543.5 q-109 -129.5 -327 -130.5 l-11 147 q160 0 218.5 96 q58.5 96 58.5 383 q0 299 -51.5 394.5 q-51.5 95.5 -193.5 95.5 q-158 0 -243.5 -87.5 q-85.5 -87.5 -85.5 -246.5 l0 -427 l-170 0 Z" /><glyph glyph-name="afii10053" unicode="&#x404;" d="M801 786 l0 -150 l-527 0 q2 -236 106.5 -377.5 q104.5 -141.5 281.5 -141.5 q248 0 341 276 l162 -34 q-120 -386 -508 -386 q-290 0 -431 217.5 q-141 217.5 -141 504.5 q0 305 147.5 501.5 q147.5 196.5 406.5 196.5 q389 0 506 -367 l-165 -33 q-88 255 -334 255 q-169 0 -264.5 -133 q-95.5 -133 -107.5 -329 l527 0 Z" /><glyph glyph-name="afii10054" unicode="&#x405;" d="M21 363 l154 35 q93 -279 403 -279 q162 0 244 68.5 q82 68.5 82 183.5 q0 87 -62.5 140 q-62.5 53 -144.5 73 l-273 68 q-106 27 -173.5 65.5 q-67.5 38.5 -114.5 118.5 q-47 80 -47 183 q0 171 129 272.5 q129 101.5 331 101.5 q372 0 489 -337 l-155 -46 q-27 120 -127 181.5 q-100 61.5 -213 61.5 q-112 0 -199.5 -59 q-87.5 -59 -87.5 -167 q0 -151 222 -204 l255 -61 q350 -84 350 -377 q0 -177 -131.5 -294.5 q-131.5 -117.5 -370.5 -117.5 q-424 0 -560 390 Z" /><glyph glyph-name="afii10055" unicode="&#x406;" d="M342 0 l-171 0 l0 1365 l171 0 l0 -1365 Z" /><glyph glyph-name="afii10057" unicode="&#x408;" d="M608 1365 l0 -948 q0 -248 -112 -346 q-112 -98 -297 -98 q-99 0 -199 27 l0 140 q98 -20 178 -20 q114 0 168 34 q54 34 72.5 88 q18.5 54 18.5 175 l0 948 l171 0 Z" /><glyph glyph-name="afii10058" unicode="&#x409;" d="M837 821 l230 0 q226 0 317 -41 q91 -41 148 -137.5 q57 -96.5 57 -234.5 q0 -196 -111.5 -302 q-111.5 -106 -334.5 -106 l-289 0 l-263 1183 l-53 0 l-369 -1183 l-162 0 l450 1365 l243 0 l137 -544 ZM1005 150 l131 0 q150 0 215 67 q65 67 65 193 q0 260 -280 260 l-262 0 l131 -520 ZM1042 0 l0 0 Z" /><glyph glyph-name="afii10059" unicode="&#x40a;" d="M1071 800 l237 0 q215 0 311 -35.5 q96 -35.5 153 -131 q57 -95.5 57 -237.5 q0 -182 -110 -289 q-110 -107 -335 -107 l-484 0 l0 650 l-558 0 l0 -650 l-171 0 l0 1365 l171 0 l0 -565 l558 0 l0 565 l171 0 l0 -565 ZM1071 150 l306 0 q281 0 281 259 q0 241 -281 241 l-306 0 l0 -500 Z" /><glyph glyph-name="afii10060" unicode="&#x40b;" d="M403 1215 l0 -495 q138 180 358 180 q160 0 273 -98 q113 -98 113 -350 l0 -452 l-171 0 l0 466 q0 293 -247 293 q-207 0 -326 -166 l0 -593 l-170 0 l0 1215 l-233 0 l0 150 l951 0 l0 -150 l-548 0 Z" /><glyph glyph-name="afii10145" unicode="&#x40f;" d="M355 150 l606 0 l0 1215 l171 0 l0 -1365 l-393 0 l-20 -287 l-132 0 l-20 287 l-383 0 l0 1365 l171 0 l0 -1215 Z" /><glyph glyph-name="afii10017" unicode="&#x410;" d="M1090 0 l-175 0 l-138 399 l-505 0 l-122 -399 l-143 0 l443 1365 l195 0 l445 -1365 ZM741 527 l-210 656 l-212 -656 l422 0 Z" /><glyph glyph-name="afii10018" unicode="&#x411;" d="M171 0 l0 1365 l786 0 l0 -150 l-621 0 l0 -415 l243 0 q192 0 292.5 -30.5 q100.5 -30.5 164.5 -131 q64 -100.5 64 -248.5 q0 -175 -110 -282.5 q-110 -107.5 -335 -107.5 l-484 0 ZM336 150 l312 0 q280 0 280 253 q0 125 -69 186 q-69 61 -236 61 l-287 0 l0 -500 Z" /><glyph glyph-name="afii10019" unicode="&#x412;" d="M171 0 l0 1365 l540 0 q204 0 302.5 -100 q98.5 -100 98.5 -232 q0 -232 -242 -308 q144 -37 214 -132 q70 -95 70 -215 q0 -161 -108.5 -269.5 q-108.5 -108.5 -334.5 -108.5 l-540 0 ZM336 780 l297 0 q185 0 247 70.5 q62 70.5 62 165.5 q0 94 -66.5 152 q-66.5 58 -198.5 58 l-341 0 l0 -446 ZM336 150 l366 0 q134 0 207 65 q73 65 73 169 q0 73 -33 135.5 q-33 62.5 -93 96.5 q-60 34 -179 34 l-341 0 l0 -500 Z" /><glyph glyph-name="afii10020" unicode="&#x413;" d="M171 0 l0 1365 l701 0 l0 -150 l-530 0 l0 -1215 l-171 0 Z" /><glyph glyph-name="afii10021" unicode="&#x414;" d="M86 150 l394 1215 l283 0 l403 -1215 l80 0 l0 -437 l-136 0 l-21 287 l-925 0 l-20 -287 l-137 0 l0 437 l79 0 ZM246 150 l735 0 l-333 1080 l-71 0 l-331 -1080 Z" /><glyph glyph-name="afii10022" unicode="&#x415;" d="M1054 150 l0 -150 l-883 0 l0 1365 l864 0 l0 -150 l-693 0 l0 -434 l550 0 l0 -139 l-550 0 l0 -492 l712 0 Z" /><glyph glyph-name="afii10024" unicode="&#x416;" d="M1082 784 l508 -784 l-203 0 l-437 680 l-88 -29 l0 -651 l-157 0 l0 651 l-88 29 l-437 -680 l-173 0 l474 734 l-441 631 l203 0 l412 -581 l50 -17 l0 598 l157 0 l0 -598 l50 17 l412 581 l181 0 l-423 -581 Z" /><glyph glyph-name="afii10025" unicode="&#x417;" d="M16 381 l155 37 q38 -164 130.5 -235 q92.5 -71 251.5 -71 q151 0 229 76 q78 76 78 193 q0 257 -291 257 l-129 0 l0 147 l118 0 q118 0 191 62 q73 62 73 173 q0 106 -77 169.5 q-77 63.5 -202 63.5 q-276 0 -326 -262 l-165 19 q85 383 487 383 q213 0 337.5 -102 q124.5 -102 124.5 -261 q0 -235 -264 -307 q302 -51 302 -331 q0 -171 -124.5 -295 q-124.5 -124 -376.5 -124 q-218 0 -352 107 q-134 107 -170 301 Z" /><glyph glyph-name="afii10026" unicode="&#x418;" d="M342 114 l0 -114 l-171 0 l0 1365 l171 0 l0 -882 q0 -87 -7 -178 q71 128 168 261 l490 666 l0 133 l171 0 l0 -1365 l-171 0 l0 795 q0 74 7 246 q-58 -111 -169 -261 l-489 -666 Z" /><glyph glyph-name="afii10028" unicode="&#x41a;" d="M1250 0 l-187 0 l-408 753 l-313 -389 l0 -364 l-171 0 l0 1365 l171 0 l0 -792 l617 792 l185 0 l-370 -478 l476 -887 Z" /><glyph glyph-name="afii10029" unicode="&#x41b;" d="M169 0 l-162 0 l450 1365 l243 0 l438 -1365 l-189 0 l-358 1183 l-53 0 l-369 -1183 Z" /><glyph glyph-name="afii10030" unicode="&#x41c;" d="M1489 0 l-166 0 l0 1192 l-444 -1192 l-116 0 l-447 1192 l0 -1192 l-145 0 l0 1365 l254 0 l411 -1092 l403 1092 l250 0 l0 -1365 Z" /><glyph glyph-name="afii10031" unicode="&#x41d;" d="M1146 0 l-171 0 l0 650 l-633 0 l0 -650 l-171 0 l0 1365 l171 0 l0 -565 l633 0 l0 565 l171 0 l0 -1365 Z" /><glyph glyph-name="afii10032" unicode="&#x41e;" d="M642 -27 q-263 0 -410 204.5 q-147 204.5 -147 501.5 q0 310 154 512 q154 202 408 202 q253 0 406 -198.5 q153 -198.5 153 -500.5 q0 -290 -148.5 -505.5 q-148.5 -215.5 -415.5 -215.5 ZM646 112 q179 0 280 163 q101 163 101 420 q0 264 -104.5 411 q-104.5 147 -277.5 147 q-175 0 -278 -159 q-103 -159 -103 -416 q0 -251 104 -408.5 q104 -157.5 278 -157.5 Z" /><glyph glyph-name="afii10033" unicode="&#x41f;" d="M171 0 l0 1365 l947 0 l0 -1365 l-170 0 l0 1215 l-606 0 l0 -1215 l-171 0 Z" /><glyph glyph-name="afii10034" unicode="&#x420;" d="M342 0 l-171 0 l0 1365 l484 0 q227 0 335 -123.5 q108 -123.5 108 -281.5 q0 -176 -117.5 -291 q-117.5 -115 -307.5 -115 l-331 0 l0 -554 ZM342 696 l314 0 q121 0 195 72.5 q74 72.5 74 191.5 q0 102 -66 182 q-66 80 -191 80 l-326 0 l0 -526 Z" /><glyph glyph-name="afii10035" unicode="&#x421;" d="M989 459 l156 -35 q-112 -451 -506 -451 q-259 0 -406.5 209 q-147.5 209 -147.5 514 q0 315 154 506 q154 191 413 191 q384 0 493 -439 l-161 -32 q-88 326 -333 326 q-181 0 -280.5 -151.5 q-99.5 -151.5 -99.5 -425.5 q0 -251 102 -402.5 q102 -151.5 270 -151.5 q261 0 346 342 Z" /><glyph glyph-name="afii10036" unicode="&#x422;" d="M582 0 l-170 0 l0 1215 l-391 0 l0 150 l953 0 l0 -150 l-392 0 l0 -1215 Z" /><glyph glyph-name="afii10037" unicode="&#x423;" d="M476 386 l-469 979 l186 0 l370 -779 l311 779 l167 0 l-436 -1044 q-95 -227 -176 -274 q-81 -47 -209 -47 l-38 0 l0 150 l63 0 q84 0 123 31 q39 31 84 143 l24 62 Z" /><glyph glyph-name="afii10038" unicode="&#x424;" d="M669 126 q-293 27 -430 176 q-137 149 -137 375 q0 244 140 390.5 q140 146.5 427 172.5 l0 166 l157 0 l0 -166 q293 -27 430.5 -176 q137.5 -149 137.5 -374 q0 -245 -140.5 -391.5 q-140.5 -146.5 -427.5 -172.5 l0 -167 l-157 0 l0 167 ZM826 252 q389 50 389 437 q0 374 -389 425 l0 -862 ZM669 1114 q-388 -48 -388 -437 q0 -374 388 -425 l0 862 Z" /><glyph glyph-name="afii10039" unicode="&#x425;" d="M1005 1365 l-383 -625 l438 -740 l-193 0 l-345 582 l-358 -582 l-159 0 l437 706 l-389 659 l191 0 l299 -504 l306 504 l156 0 Z" /><glyph glyph-name="afii10040" unicode="&#x426;" d="M184 0 l0 1365 l171 0 l0 -1215 l613 0 l0 1215 l171 0 l0 -1215 l170 0 l0 -437 l-136 0 l-21 287 l-968 0 Z" /><glyph glyph-name="afii10041" unicode="&#x427;" d="M869 0 l0 646 q-144 -181 -368 -181 q-192 0 -297.5 112 q-105.5 112 -105.5 336 l0 452 l171 0 l0 -466 q0 -162 68 -227.5 q68 -65.5 192 -65.5 q216 0 340 166 l0 593 l171 0 l0 -1365 l-171 0 Z" /><glyph glyph-name="afii10042" unicode="&#x428;" d="M184 0 l0 1365 l171 0 l0 -1215 l485 0 l0 1215 l171 0 l0 -1215 l485 0 l0 1215 l171 0 l0 -1365 l-1483 0 Z" /><glyph glyph-name="afii10043" unicode="&#x429;" d="M1667 150 l184 0 l0 -437 l-136 0 l-21 287 l-1510 0 l0 1365 l171 0 l0 -1215 l485 0 l0 1215 l171 0 l0 -1215 l485 0 l0 1215 l171 0 l0 -1215 Z" /><glyph glyph-name="afii10044" unicode="&#x42a;" d="M323 1215 l-364 0 l0 150 l534 0 l0 -544 l224 0 q200 0 297 -32 q97 -32 161 -134 q64 -102 64 -249 q0 -194 -111.5 -300 q-111.5 -106 -334.5 -106 l-470 0 l0 1215 ZM493 150 l293 0 q150 0 215 67 q65 67 65 193 q0 260 -280 260 l-293 0 l0 -520 Z" /><glyph glyph-name="afii10045" unicode="&#x42b;" d="M1294 0 l0 1365 l171 0 l0 -1365 l-171 0 ZM187 0 l0 1365 l171 0 l0 -544 l223 0 q226 0 317.5 -41 q91.5 -41 148 -137.5 q56.5 -96.5 56.5 -234.5 q0 -196 -111.5 -302 q-111.5 -106 -334.5 -106 l-470 0 ZM358 150 l292 0 q151 0 216 67 q65 67 65 193 q0 260 -281 260 l-292 0 l0 -520 Z" /><glyph glyph-name="afii10046" unicode="&#x42c;" d="M171 0 l0 1365 l171 0 l0 -544 l223 0 q226 0 317.5 -41 q91.5 -41 148 -137.5 q56.5 -96.5 56.5 -234.5 q0 -196 -111.5 -302 q-111.5 -106 -334.5 -106 l-470 0 ZM342 150 l292 0 q151 0 216 67 q65 67 65 193 q0 260 -281 260 l-292 0 l0 -520 Z" /><glyph glyph-name="afii10048" unicode="&#x42e;" d="M605 650 l-263 0 l0 -650 l-171 0 l0 1365 l171 0 l0 -565 l267 0 q33 265 180 429 q147 164 376 164 q245 0 402.5 -191.5 q157.5 -191.5 157.5 -507.5 q0 -294 -150 -507.5 q-150 -213.5 -409 -213.5 q-263 0 -411 196.5 q-148 196.5 -150 480.5 ZM1163 1253 q-174 0 -277 -158.5 q-103 -158.5 -103 -422.5 q0 -243 103.5 -401.5 q103.5 -158.5 278.5 -158.5 q179 0 280 163.5 q101 163.5 101 419.5 q0 275 -107.5 416.5 q-107.5 141.5 -275.5 141.5 Z" /><glyph glyph-name="afii10049" unicode="&#x42f;" d="M904 591 l-391 0 l-266 -591 l-179 0 l282 632 q-135 43 -194.5 143 q-59.5 100 -59.5 209 q0 159 115 270 q115 111 315 111 l538 0 l0 -1365 l-160 0 l0 591 ZM904 1215 l-378 0 q-118 0 -188.5 -62 q-70.5 -62 -70.5 -167 q0 -104 68 -180 q68 -76 212 -76 l357 0 l0 485 Z" /><glyph glyph-name="afii10065" unicode="&#x430;" d="M948 0 l-156 0 q-9 48 -18 182 q-104 -209 -354 -209 q-170 0 -261 90 q-91 90 -91 216 q0 153 130 251.5 q130 98.5 442 98.5 q42 0 134 -4 q0 120 -18.5 173.5 q-18.5 53.5 -78.5 85.5 q-60 32 -158 32 q-239 0 -278 -182 l-145 25 q53 279 446 279 q209 0 296.5 -92.5 q87.5 -92.5 87.5 -320.5 l0 -429 q0 -107 22 -196 ZM774 505 q-96 6 -146 6 q-186 0 -289 -61 q-103 -61 -103 -178 q0 -74 55.5 -126 q55.5 -52 160.5 -52 q142 0 233.5 103 q91.5 103 91.5 242 q0 28 -3 66 Z" /><glyph glyph-name="afii10066" unicode="&#x431;" d="M705 1456 l171 0 q-7 -97 -62.5 -143 q-55.5 -46 -204.5 -73 q-112 -20 -166 -50 q-54 -30 -94 -105 q-40 -75 -59 -205 q105 158 281 158 q177 0 301 -133.5 q124 -133.5 124 -399.5 q0 -259 -120 -395.5 q-120 -136.5 -322 -136.5 q-126 0 -221.5 52 q-95.5 52 -161 176 q-65.5 124 -65.5 363 q0 196 32.5 354.5 q32.5 158.5 93.5 247.5 q61 89 133.5 125 q72.5 36 191.5 57 q82 15 111.5 35.5 q29.5 20.5 36.5 72.5 ZM551 908 q-120 0 -200.5 -102 q-80.5 -102 -80.5 -301 q0 -194 79.5 -298.5 q79.5 -104.5 201.5 -104.5 q121 0 197.5 104.5 q76.5 104.5 76.5 298.5 q0 201 -78 302 q-78 101 -196 101 Z" /><glyph glyph-name="afii10067" unicode="&#x432;" d="M164 0 l0 1010 l471 0 q310 0 310 -244 q0 -164 -173 -227 q213 -60 213 -259 q0 -125 -73.5 -202.5 q-73.5 -77.5 -203.5 -77.5 l-544 0 ZM321 590 l314 0 q149 0 149 154 q0 143 -149 143 l-314 0 l0 -297 ZM321 123 l314 0 q178 0 178 171 q0 177 -178 177 l-314 0 l0 -348 Z" /><glyph glyph-name="afii10068" unicode="&#x433;" d="M150 0 l0 1010 l586 0 l0 -123 l-429 0 l0 -887 l-157 0 Z" /><glyph glyph-name="afii10069" unicode="&#x434;" d="M96 123 l291 887 l233 0 l267 -887 l71 0 l0 -355 l-117 0 l-20 232 l-660 0 l-21 -232 l-116 0 l0 355 l72 0 ZM242 123 l483 0 l-209 737 l-45 0 l-229 -737 Z" /><glyph glyph-name="afii10070" unicode="&#x435;" d="M824 301 l146 -30 q-40 -129 -156 -213.5 q-116 -84.5 -273 -84.5 q-207 0 -335 145.5 q-128 145.5 -128 381.5 q0 241 133 389.5 q133 148.5 334 148.5 q198 0 318.5 -137 q120.5 -137 123.5 -410 l-734 0 q0 -229 96 -309 q96 -80 203 -80 q193 0 272 199 ZM815 608 q-2 85 -28 151 q-26 66 -88 112.5 q-62 46.5 -149 46.5 q-117 0 -198.5 -84 q-81.5 -84 -91.5 -226 l555 0 Z" /><glyph glyph-name="afii10072" unicode="&#x436;" d="M909 585 l373 -585 l-186 0 l-308 485 l-66 -31 l0 -454 l-148 0 l0 454 l-65 31 l-322 -485 l-163 0 l369 542 l-322 468 l180 0 l289 -432 l34 -15 l0 447 l148 0 l0 -447 l34 15 l289 432 l158 0 l-294 -425 Z" /><glyph glyph-name="afii10073" unicode="&#x437;" d="M340 462 l0 131 q147 0 212.5 36.5 q65.5 36.5 65.5 128.5 q0 69 -47.5 113 q-47.5 44 -131.5 44 q-186 0 -224 -189 l-148 27 q63 285 373 285 q164 0 257 -77.5 q93 -77.5 93 -192.5 q0 -156 -187 -233 q213 -60 213 -249 q0 -130 -98 -221.5 q-98 -91.5 -266 -91.5 q-336 0 -415 327 l148 26 q53 -231 248 -231 q103 0 157 56 q54 56 54 140 q0 70 -36.5 111 q-36.5 41 -92 50.5 q-55.5 9.5 -175.5 9.5 Z" /><glyph glyph-name="afii10074" unicode="&#x438;" d="M307 96 l0 -96 l-157 0 l0 1010 l157 0 l0 -531 q0 -111 -7 -232 q65 104 131 190 l352 464 l0 109 l157 0 l0 -1010 l-157 0 l0 509 q0 141 7 232 q-34 -62 -132 -189 l-351 -456 Z" /><glyph glyph-name="afii10076" unicode="&#x43a;" d="M628 655 l356 -655 l-177 0 l-294 553 l-206 -241 l0 -312 l-157 0 l0 1010 l157 0 l0 -382 q0 -108 -7 -164 q52 76 99 129 l373 417 l172 0 l-316 -355 Z" /><glyph glyph-name="afii10077" unicode="&#x43b;" d="M25 0 l333 1010 l189 0 l327 -1010 l-163 0 l-254 819 l-31 0 l-255 -819 l-146 0 Z" /><glyph glyph-name="afii10078" unicode="&#x43c;" d="M150 0 l0 1010 l256 0 l300 -871 l317 871 l240 0 l0 -1010 l-151 0 l0 872 l-13 0 l-317 -872 l-170 0 l-312 886 l-13 0 l0 -886 l-137 0 Z" /><glyph glyph-name="afii10079" unicode="&#x43d;" d="M150 0 l0 1010 l157 0 l0 -418 l482 0 l0 418 l157 0 l0 -1010 l-157 0 l0 469 l-482 0 l0 -469 l-157 0 Z" /><glyph glyph-name="afii10080" unicode="&#x43e;" d="M519 -27 q-208 0 -324.5 154 q-116.5 154 -116.5 382 q0 241 131 385 q131 144 326 144 q209 0 329.5 -151.5 q120.5 -151.5 120.5 -378.5 q0 -236 -130 -385.5 q-130 -149.5 -336 -149.5 ZM531 102 q120 0 201 99 q81 99 81 308 q0 210 -85 304.5 q-85 94.5 -199 94.5 q-117 0 -198 -95.5 q-81 -95.5 -81 -302.5 q0 -219 81 -313.5 q81 -94.5 200 -94.5 Z" /><glyph glyph-name="afii10081" unicode="&#x43f;" d="M150 0 l0 1010 l760 0 l0 -1010 l-157 0 l0 887 l-446 0 l0 -887 l-157 0 Z" /><glyph glyph-name="afii10082" unicode="&#x440;" d="M314 -341 l-157 0 l0 1351 l141 0 l0 -196 q107 224 319 224 q179 0 289 -149.5 q110 -149.5 110 -378.5 q0 -247 -113 -392 q-113 -145 -290 -145 q-190 0 -299 181 l0 -495 ZM314 651 l0 -284 q15 -115 97 -190 q82 -75 171 -75 q103 0 182.5 90 q79.5 90 79.5 311 q0 191 -72 294.5 q-72 103.5 -191 103.5 q-94 0 -168.5 -73 q-74.5 -73 -98.5 -177 Z" /><glyph glyph-name="afii10083" unicode="&#x441;" d="M754 354 l142 -25 q-30 -167 -133 -261.5 q-103 -94.5 -257 -94.5 q-209 0 -318.5 154 q-109.5 154 -109.5 376 q0 230 115.5 382.5 q115.5 152.5 314.5 152.5 q165 0 264.5 -98.5 q99.5 -98.5 123.5 -254.5 l-142 -27 q-40 250 -242 250 q-130 0 -200 -110.5 q-70 -110.5 -70 -286.5 q0 -194 69.5 -301.5 q69.5 -107.5 195.5 -107.5 q195 0 247 252 Z" /><glyph glyph-name="afii10084" unicode="&#x442;" d="M280 0 l0 887 l-280 0 l0 123 l720 0 l0 -123 l-283 0 l0 -887 l-157 0 Z" /><glyph glyph-name="afii10085" unicode="&#x443;" d="M850 1010 l-405 -1128 q-88 -244 -281 -244 q-61 0 -135 21 l0 123 q61 -14 105 -14 q75 0 125.5 43 q50.5 43 100.5 208 l-349 991 l160 0 l270 -759 l277 759 l132 0 Z" /><glyph glyph-name="afii10086" unicode="&#x444;" d="M573 -341 l0 341 q-220 16 -355.5 157.5 q-135.5 141.5 -135.5 352.5 q0 218 139 351 q139 133 352 149 l0 328 l136 0 l0 -328 q214 -16 352.5 -149.5 q138.5 -133.5 138.5 -350.5 q0 -211 -135 -352.5 q-135 -141.5 -356 -157.5 l0 -341 l-136 0 ZM573 892 q-319 -55 -319 -390 q0 -329 319 -381 l0 771 ZM709 121 q319 53 319 384 q0 334 -319 387 l0 -771 Z" /><glyph glyph-name="afii10087" unicode="&#x445;" d="M861 0 l-181 0 l-257 410 l-263 -410 l-153 0 l340 524 l-307 486 l181 0 l216 -345 l220 345 l151 0 l-294 -452 l347 -558 Z" /><glyph glyph-name="afii10088" unicode="&#x446;" d="M150 0 l0 1010 l157 0 l0 -887 l442 0 l0 887 l157 0 l0 -887 l150 0 l0 -355 l-116 0 l-20 232 l-770 0 Z" /><glyph glyph-name="afii10089" unicode="&#x447;" d="M695 0 l0 434 q-120 -101 -277 -101 q-122 0 -215.5 61 q-93.5 61 -93.5 203 l0 413 l157 0 l0 -376 q0 -170 191 -170 q143 0 238 68 l0 478 l157 0 l0 -1010 l-157 0 Z" /><glyph glyph-name="afii10090" unicode="&#x448;" d="M164 0 l0 1010 l157 0 l0 -887 l385 0 l0 887 l157 0 l0 -887 l385 0 l0 887 l157 0 l0 -1010 l-1241 0 Z" /><glyph glyph-name="afii10091" unicode="&#x449;" d="M167 0 l0 1010 l157 0 l0 -887 l385 0 l0 887 l157 0 l0 -887 l385 0 l0 887 l157 0 l0 -887 l167 0 l0 -326 l-116 0 l-21 203 l-1271 0 Z" /><glyph glyph-name="afii10092" unicode="&#x44a;" d="M235 0 l0 887 l-276 0 l0 123 l432 0 l0 -389 l301 0 q157 0 235.5 -93 q78.5 -93 78.5 -234 q0 -138 -85 -216 q-85 -78 -229 -78 l-457 0 ZM391 123 l265 0 q178 0 178 174 q0 201 -178 201 l-265 0 l0 -375 Z" /><glyph glyph-name="afii10093" unicode="&#x44b;" d="M164 0 l0 1010 l157 0 l0 -389 l300 0 q157 0 235.5 -93.5 q78.5 -93.5 78.5 -233.5 q0 -138 -85 -216 q-85 -78 -229 -78 l-457 0 ZM321 123 l265 0 q177 0 177 174 q0 201 -177 201 l-265 0 l0 -375 ZM1077 0 l0 1010 l157 0 l0 -1010 l-157 0 Z" /><glyph glyph-name="afii10094" unicode="&#x44c;" d="M150 0 l0 1010 l157 0 l0 -389 l300 0 q157 0 235.5 -93.5 q78.5 -93.5 78.5 -233.5 q0 -138 -85 -216 q-85 -78 -229 -78 l-457 0 ZM307 123 l265 0 q177 0 177 174 q0 201 -177 201 l-265 0 l0 -375 Z" /><glyph glyph-name="afii10095" unicode="&#x44d;" d="M330 459 l0 123 l395 0 q-32 326 -275 326 q-188 0 -251 -192 l-147 34 q112 288 403 288 q205 0 321.5 -145.5 q116.5 -145.5 116.5 -393.5 q0 -237 -114 -381.5 q-114 -144.5 -332 -144.5 q-160 0 -267.5 84.5 q-107.5 84.5 -145.5 224.5 l144 31 q73 -211 267 -211 q135 0 207.5 104 q72.5 104 72.5 253 l-395 0 Z" /><glyph glyph-name="afii10096" unicode="&#x44e;" d="M313 480 l0 -480 l-163 0 l0 1010 l163 0 l0 -408 l232 0 q22 193 147 314.5 q125 121.5 305 121.5 q208 0 328.5 -151 q120.5 -151 120.5 -381 q0 -233 -129 -383 q-129 -150 -337 -150 q-203 0 -318.5 147 q-115.5 147 -121.5 360 l-227 0 ZM990 908 q-126 0 -209 -96.5 q-83 -96.5 -83 -303.5 q0 -210 81 -308 q81 -98 211 -98 q131 0 207.5 103 q76.5 103 76.5 303 q0 205 -80 302.5 q-80 97.5 -204 97.5 Z" /><glyph glyph-name="afii10097" unicode="&#x44f;" d="M727 0 l0 409 l-278 0 l-226 -409 l-164 0 l249 439 q-197 60 -197 267 q0 159 92 231.5 q92 72.5 224 72.5 l457 0 l0 -1010 l-157 0 ZM727 532 l0 355 l-273 0 q-172 0 -172 -184 q0 -171 158 -171 l287 0 Z" /><glyph glyph-name="afii10099" unicode="&#x452;" d="M143 0 l0 1143 l-192 0 l0 123 l192 0 l0 120 l157 0 l0 -120 l417 0 l0 -123 l-417 0 l0 -346 q106 213 307 213 q120 0 197 -69 q77 -69 103.5 -200 q26.5 -131 26.5 -445 q0 -301 -33 -410 q-33 -109 -114.5 -170 q-81.5 -61 -197.5 -65 l-20 128 q108 7 158.5 96.5 q50.5 89.5 50.5 425.5 q0 391 -49.5 485.5 q-49.5 94.5 -156.5 94.5 q-109 0 -190.5 -94 q-81.5 -94 -81.5 -270 l0 -517 l-157 0 Z" /><glyph glyph-name="afii10102" unicode="&#x455;" d="M21 262 l150 31 q50 -191 316 -191 q98 0 166 44 q68 44 68 124 q0 119 -173 151 l-213 40 q-125 24 -199 94 q-74 70 -74 185 q0 127 101 212.5 q101 85.5 272 85.5 q329 0 406 -257 l-144 -31 q-62 158 -255 158 q-96 0 -157.5 -39.5 q-61.5 -39.5 -61.5 -110.5 q0 -112 157 -141 l197 -35 q309 -56 309 -299 q0 -139 -115 -224.5 q-115 -85.5 -306 -85.5 q-359 0 -444 289 Z" /><glyph glyph-name="afii10103" unicode="&#x456;" d="M319 1365 l0 -174 l-169 0 l0 174 l169 0 ZM314 1010 l0 -1010 l-157 0 l0 1010 l157 0 Z" /><glyph glyph-name="afii10105" unicode="&#x458;" d="M322 1365 l0 -174 l-178 0 l0 174 l178 0 ZM314 1010 l0 -1041 q0 -175 -83.5 -246.5 q-83.5 -71.5 -205.5 -71.5 q-61 0 -149 21 l0 124 q65 -16 116 -16 q86 0 125.5 42 q39.5 42 39.5 147 l0 1041 l157 0 Z" /><glyph glyph-name="afii10106" unicode="&#x459;" d="M646 621 l308 0 q156 0 235 -93 q79 -93 79 -234 q0 -138 -85 -216 q-85 -78 -229 -78 l-312 0 l-186 819 l-31 0 l-255 -819 l-146 0 l333 1010 l189 0 l100 -389 ZM766 123 l152 0 q178 0 178 174 q0 201 -178 201 l-243 0 l91 -375 ZM788 0 l0 0 Z" /><glyph glyph-name="afii10107" unicode="&#x45a;" d="M905 594 l300 0 q158 0 236 -87 q78 -87 78 -213 q0 -138 -85 -216 q-85 -78 -229 -78 l-457 0 l0 471 l-441 0 l0 -471 l-157 0 l0 1010 l157 0 l0 -416 l441 0 l0 416 l157 0 l0 -416 ZM905 123 l265 0 q177 0 177 171 q0 177 -177 177 l-265 0 l0 -348 Z" /><glyph glyph-name="afii10108" unicode="&#x45b;" d="M144 1266 l0 120 l157 0 l0 -120 l417 0 l0 -123 l-417 0 l0 -346 q107 214 310 214 q85 0 154 -35.5 q69 -35.5 106.5 -92.5 q37.5 -57 50.5 -112 q13 -55 13 -185 l0 -586 l-157 0 l0 586 q0 108 -13 161.5 q-13 53.5 -64 93.5 q-51 40 -116 40 q-110 0 -197 -93 q-87 -93 -87 -271 l0 -517 l-157 0 l0 1143 l-192 0 l0 123 l192 0 Z" /><glyph glyph-name="afii10193" unicode="&#x45f;" d="M150 0 l0 1010 l157 0 l0 -887 l442 0 l0 887 l157 0 l0 -1010 l-298 0 l-21 -232 l-116 0 l-20 232 l-301 0 Z" /><glyph glyph-name="afii10050" unicode="&#x490;" d="M913 1611 l0 -396 l-571 0 l0 -1215 l-171 0 l0 1365 l585 0 l0 246 l157 0 Z" /><glyph glyph-name="afii10098" unicode="&#x491;" d="M600 1010 l0 191 l136 0 l0 -314 l-429 0 l0 -887 l-157 0 l0 1010 l450 0 Z" /><glyph glyph-name="endash" unicode="&#x2013;" d="M999 573 l0 -122 l-797 0 l0 122 l797 0 Z" /><glyph glyph-name="emdash" unicode="&#x2014;" d="M1362 573 l0 -122 l-1359 0 l0 122 l1359 0 Z" /><glyph glyph-name="afii00208" unicode="&#x2015;" d="M1362 573 l0 -122 l-1359 0 l0 122 l1359 0 Z" /><glyph glyph-name="underscoredbl" unicode="&#x2017;" d="M0 -115 l1024 0 l0 -100 l-1024 0 l0 100 ZM0 -354 l1024 0 l0 -100 l-1024 0 l0 100 Z" /><glyph glyph-name="quoteleft" unicode="&#x2018;" d="M154 923 l0 203 l134 239 l71 0 l-99 -239 l99 0 l0 -203 l-205 0 Z" /><glyph glyph-name="quoteright" unicode="&#x2019;" d="M359 1365 l0 -203 l-135 -239 l-70 0 l99 239 l-99 0 l0 203 l205 0 Z" /><glyph glyph-name="quotesinglbase" unicode="&#x201a;" d="M359 203 l0 -203 l-135 -239 l-70 0 l99 239 l-99 0 l0 203 l205 0 Z" /><glyph glyph-name="quotereversed" unicode="&#x201b;" d="M154 1365 l205 0 l0 -203 l-99 0 l99 -239 l-71 0 l-134 239 l0 203 Z" /><glyph glyph-name="quotedblleft" unicode="&#x201c;" d="M154 928 l0 171 l156 266 l71 0 l-112 -240 l82 0 l0 -197 l-197 0 ZM453 928 l0 171 l161 266 l74 0 l-117 -240 l83 0 l0 -197 l-201 0 Z" /><glyph glyph-name="quotedblright" unicode="&#x201d;" d="M677 1365 l0 -170 l-156 -267 l-71 0 l112 241 l-81 0 l0 196 l196 0 ZM378 1365 l0 -170 l-161 -267 l-74 0 l117 241 l-82 0 l0 196 l200 0 Z" /><glyph glyph-name="quotedblbase" unicode="&#x201e;" d="M677 197 l0 -171 l-156 -266 l-71 0 l112 240 l-81 0 l0 197 l196 0 ZM378 197 l0 -171 l-161 -266 l-74 0 l117 240 l-82 0 l0 197 l200 0 Z" /><glyph glyph-name="dagger" unicode="&#x2020;" d="M527 1365 l146 0 l0 -398 l380 0 l0 -136 l-380 0 l0 -1172 l-146 0 l0 1172 l-380 0 l0 136 l380 0 l0 398 Z" /><glyph glyph-name="daggerdbl" unicode="&#x2021;" d="M527 1365 l146 0 l0 -398 l380 0 l0 -136 l-380 0 l0 -625 l380 0 l0 -136 l-380 0 l0 -411 l-146 0 l0 411 l-380 0 l0 136 l380 0 l0 625 l-380 0 l0 136 l380 0 l0 398 Z" /><glyph glyph-name="bullet" unicode="&#x2022;" d="M964 696 q0 -117 -82.5 -201.5 q-82.5 -84.5 -198.5 -84.5 q-119 0 -200.5 84.5 q-81.5 84.5 -81.5 201.5 q0 118 82.5 202 q82.5 84 199.5 84 q116 0 198.5 -84 q82.5 -84 82.5 -202 Z" /><glyph glyph-name="ellipsis" unicode="&#x2026;" d="M366 224 l0 -224 l-223 0 l0 224 l223 0 ZM873 224 l0 -224 l-221 0 l0 224 l221 0 ZM1383 224 l0 -224 l-223 0 l0 224 l223 0 Z" /><glyph glyph-name="perthousand" unicode="&#x2030;" d="M357 669 q-131 0 -206.5 104 q-75.5 104 -75.5 252 q0 149 73 251.5 q73 102.5 206 102.5 q141 0 212.5 -108 q71.5 -108 71.5 -250 q0 -141 -74 -246.5 q-74 -105.5 -207 -105.5 ZM359 748 q86 0 128.5 75 q42.5 75 42.5 189 q0 127 -43.5 208 q-43.5 81 -133.5 81 q-171 0 -171 -272 q0 -281 177 -281 ZM388 0 l-126 0 l827 1365 l124 0 l-825 -1365 ZM1120 -14 q-133 0 -207.5 105 q-74.5 105 -74.5 252 q0 148 72.5 250.5 q72.5 102.5 206.5 102.5 q140 0 211 -108 q71 -108 71 -250 q0 -140 -73.5 -246 q-73.5 -106 -205.5 -106 ZM1122 66 q86 0 128.5 74 q42.5 74 42.5 189 q0 123 -43 206.5 q-43 83.5 -134 83.5 q-173 0 -173 -273 q0 -280 179 -280 ZM1817 -14 q-129 0 -205.5 103 q-76.5 103 -76.5 254 q0 148 72.5 250.5 q72.5 102.5 206.5 102.5 q137 0 210 -106.5 q73 -106.5 73 -251.5 q0 -140 -73.5 -246 q-73.5 -106 -206.5 -106 ZM1819 66 q86 0 128 74.5 q42 74.5 42 188.5 q0 123 -42.5 206.5 q-42.5 83.5 -133.5 83.5 q-172 0 -172 -273 q0 -280 178 -280 Z" /><glyph glyph-name="minute" unicode="&#x2032;" d="M156 837 l-100 0 l161 528 l160 0 l-221 -528 Z" /><glyph glyph-name="second" unicode="&#x2033;" d="M129 837 l-100 0 l161 528 l160 0 l-221 -528 ZM452 837 l-101 0 l162 528 l160 0 l-221 -528 Z" /><glyph glyph-name="guilsinglleft" unicode="&#x2039;" d="M254 240 l-172 293 l172 282 l90 0 l-106 -282 l106 -293 l-90 0 Z" /><glyph glyph-name="guilsinglright" unicode="&#x203a;" d="M185 815 l173 -292 l-173 -283 l-89 0 l106 283 l-106 292 l89 0 Z" /><glyph glyph-name="exclamdbl" unicode="&#x203c;" d="M372 1365 l0 -366 l-38 -617 l-88 0 l-37 617 l0 366 l163 0 ZM815 1365 l0 -366 l-37 -617 l-88 0 l-38 617 l0 366 l163 0 ZM374 239 l0 -239 l-168 0 l0 239 l168 0 ZM818 239 l0 -239 l-168 0 l0 239 l168 0 Z" /><glyph glyph-name="radicalex" unicode="&#x203e;" d="M-42 1869 l1286 0 l0 -74 l-1286 0 l0 74 Z" /><glyph glyph-name="fraction1" unicode="&#x2044;" d="M-247 0 l-112 0 l827 1365 l110 0 l-825 -1365 Z" /><glyph glyph-name="nsuperior" unicode="&#x207f;" d="M625 546 l-114 0 l0 390 q0 143 -119 143 q-69 0 -117 -55.5 q-48 -55.5 -48 -143.5 l0 -334 l-120 0 l0 610 l113 0 l0 -83 q68 99 187 99 q73 0 125 -34.5 q52 -34.5 72.5 -79 q20.5 -44.5 20.5 -160.5 l0 -352 Z" /><glyph glyph-name="franc" unicode="&#x20a3;" d="M171 274 l-145 0 l0 137 l145 0 l0 954 l835 0 l0 -150 l-665 0 l0 -431 l552 0 l0 -138 l-552 0 l0 -235 l325 0 l0 -137 l-325 0 l0 -274 l-170 0 l0 274 Z" /><glyph glyph-name="afii08941" unicode="&#x20a4;" d="M155 491 l0 117 l224 0 l-11 102 l-213 0 l0 117 l198 0 q-10 74 -10 132 q0 196 107 315 q107 119 265 119 q198 0 328 -187 l-111 -86 q-103 136 -209 136 q-84 0 -143 -65.5 q-59 -65.5 -59 -174.5 q0 -75 14 -189 l300 0 l0 -117 l-286 0 l11 -102 l275 0 l0 -117 l-271 0 q-5 -224 -161 -341 l318 0 q148 0 216 39 q68 39 112 117 l130 -85 q-49 -106 -148.5 -163.5 q-99.5 -57.5 -205.5 -57.5 l-830 0 l0 150 q154 2 218 21.5 q64 19.5 122 92.5 q58 73 58 175 q0 18 -2 52 l-236 0 Z" /><glyph glyph-name="peseta" unicode="&#x20a7;" d="M340 0 l-164 0 l0 1365 l381 0 q227 0 335.5 -123.5 q108.5 -123.5 108.5 -281.5 q0 -175 -117.5 -290.5 q-117.5 -115.5 -307.5 -115.5 l-236 0 l0 -554 ZM340 696 l225 0 q121 0 195 72.5 q74 72.5 74 191.5 q0 109 -69.5 185.5 q-69.5 76.5 -187.5 76.5 l-237 0 l0 -526 ZM1328 79 l0 -87 q-63 -8 -101 -8 q-193 0 -193 187 l0 353 l-112 0 l0 86 l112 0 l4 148 l113 10 l0 -158 l141 0 l0 -86 l-141 0 l0 -368 q0 -85 90 -85 q35 0 87 8 ZM1368 166 l115 22 q21 -114 186 -114 q137 0 137 92 q0 65 -98 83 l-133 23 q-180 32 -180 171 q0 78 66 130.5 q66 52.5 180 52.5 q212 0 262 -163 l-109 -22 q-37 95 -154 95 q-123 0 -123 -83 q0 -60 88 -75 l123 -21 q202 -35 202 -183 q0 -85 -75.5 -137.5 q-75.5 -52.5 -197.5 -52.5 q-235 0 -289 182 Z" /><glyph glyph-name="afii61248" unicode="&#x2105;" d="M592 942 l107 -18 q-52 -242 -277 -242 q-137 0 -220.5 95.5 q-83.5 95.5 -83.5 258.5 q0 154 82 255.5 q82 101.5 223 101.5 q230 0 276 -241 l-107 -19 q-27 166 -166 166 q-90 0 -137.5 -72 q-47.5 -72 -47.5 -186 q0 -126 47.5 -196 q47.5 -70 134.5 -70 q133 0 169 167 ZM564 0 l-112 0 l827 1365 l110 0 l-825 -1365 ZM1431 -27 q-147 0 -229.5 103 q-82.5 103 -82.5 255 q0 160 92.5 256.5 q92.5 96.5 231.5 96.5 q147 0 232.5 -101 q85.5 -101 85.5 -253 q0 -157 -91.5 -257 q-91.5 -100 -238.5 -100 ZM1440 66 q83 0 138 64.5 q55 64.5 55 200.5 q0 137 -58 198 q-58 61 -136 61 q-81 0 -136.5 -62 q-55.5 -62 -55.5 -197 q0 -137 54 -201 q54 -64 139 -64 Z" /><glyph glyph-name="afii61289" unicode="&#x2113;" d="M613 550 q-65 -334 -65 -423 q0 -53 37 -53 q53 0 103 111 q16 37 38 37 q27 0 27 -28 q0 -53 -64 -137 q-64 -84 -145 -84 q-70 0 -105 54.5 q-35 54.5 -35 134.5 q0 80 23 250 q-78 -78 -102 -78 q-27 0 -27 32 q0 21 42 56 q44 38 102 106 q73 393 171 627 q98 234 230 234 q63 0 96.5 -47 q33.5 -47 33.5 -110 q0 -317 -360 -682 ZM636 683 q120 129 188 272.5 q68 143.5 68 262.5 q0 83 -47 83 q-56 0 -100.5 -130.5 q-44.5 -130.5 -108.5 -487.5 Z" /><glyph glyph-name="afii61352" unicode="&#x2116;" d="M1176 0 l-166 0 l-706 1190 l2 -90 q3 -51 3 -86 l0 -1014 l-138 0 l0 1365 l214 0 l660 -1113 l-2 95 q-2 56 -2 99 l0 919 l135 0 l0 -1365 ZM1621 377 q-140 0 -220 97 q-80 97 -80 243 q0 153 89.5 244 q89.5 91 221.5 91 q134 0 219.5 -91.5 q85.5 -91.5 85.5 -244.5 q0 -149 -88 -244 q-88 -95 -228 -95 ZM1629 484 q71 0 117.5 57 q46.5 57 46.5 176 q0 123 -50 175.5 q-50 52.5 -115 52.5 q-70 0 -116.5 -55 q-46.5 -55 -46.5 -173 q0 -121 46 -177 q46 -56 118 -56 ZM1923 123 l0 -123 l-593 0 l0 123 l593 0 Z" /><glyph glyph-name="trademark" unicode="&#x2122;" d="M360 587 l-125 0 l0 680 l-234 0 l0 98 l594 0 l0 -98 l-235 0 l0 -680 ZM1500 587 l-121 0 l0 619 l-247 -619 l-87 0 l-249 619 l0 -619 l-109 0 l0 778 l172 0 l238 -590 l234 590 l169 0 l0 -778 Z" /><glyph glyph-name="Omega" unicode="&#x2126;" d="M1506 0 l-604 0 l33 311 q161 59 226 200 q65 141 65 313 q0 227 -107 373 q-107 146 -331 146 q-224 0 -331 -146 q-107 -146 -107 -373 q0 -172 65 -313 q65 -141 226 -200 l33 -311 l-604 0 l0 332 l30 0 q16 -66 40 -95.5 q24 -29.5 96 -29.5 l323 0 l-4 57 q-238 65 -341 221 q-103 156 -103 332 q0 259 192 425.5 q192 166.5 485 166.5 q293 0 485 -166.5 q192 -166.5 192 -425.5 q0 -176 -103 -332 q-103 -156 -341 -221 l-4 -57 l323 0 q72 0 96 29.5 q24 29.5 40 95.5 l30 0 l0 -332 Z" /><glyph glyph-name="estimated" unicode="&#x212e;" d="M321 531 l0 -371 q120 -121 298 -121 q254 0 395 246 l72 -43 q-118 -170 -231.5 -223 q-113.5 -53 -235.5 -53 q-232 0 -380.5 158.5 q-148.5 158.5 -148.5 406.5 q0 252 149.5 408.5 q149.5 156.5 379.5 156.5 q214 0 366 -142 q152 -142 163 -423 l-827 0 ZM917 605 l0 297 q-124 121 -300 121 q-174 0 -296 -121 l0 -297 l596 0 Z" /><glyph glyph-name="oneeighth" unicode="&#x215b;" d="M659 635 l0 -89 l-550 0 l0 89 l225 0 l0 599 q-110 -108 -232 -170 l0 117 q167 83 262 201 l86 0 l0 -747 l209 0 ZM510 0 l-126 0 l827 1365 l124 0 l-825 -1365 ZM1246 425 q-149 65 -149 193 q0 95 82 156.5 q82 61.5 217 61.5 q137 0 214 -60 q77 -60 77 -151 q0 -130 -153 -187 q189 -80 189 -220 q0 -100 -89 -167 q-89 -67 -240 -67 q-158 0 -248 68 q-90 68 -90 163 q0 137 190 210 ZM1392 482 q103 26 146 60 q43 34 43 85 q0 119 -183 119 q-78 0 -128.5 -32 q-50.5 -32 -50.5 -87 q0 -54 54.5 -93 q54.5 -39 118.5 -52 ZM1381 375 q-207 -47 -207 -163 q0 -62 56.5 -100 q56.5 -38 167.5 -38 q94 0 150.5 37.5 q56.5 37.5 56.5 95.5 q0 113 -224 168 Z" /><glyph glyph-name="threeeighths" unicode="&#x215c;" d="M245 926 l0 93 l104 0 q190 0 190 134 q0 62 -49 98 q-49 36 -123 36 q-147 0 -193 -131 l-109 29 q84 197 312 197 q128 0 205.5 -65.5 q77.5 -65.5 77.5 -155.5 q0 -135 -138 -183 q171 -48 171 -199 q0 -107 -88.5 -177.5 q-88.5 -70.5 -240.5 -70.5 q-248 0 -330 208 l112 35 q43 -147 217 -147 q109 0 158 44 q49 44 49 106 q0 67 -58.5 108 q-58.5 41 -162.5 41 l-104 0 ZM558 0 l-125 0 l826 1365 l124 0 l-825 -1365 ZM1280 425 q-148 65 -148 193 q0 96 82 157 q82 61 217 61 q140 0 215.5 -61.5 q75.5 -61.5 75.5 -150.5 q0 -129 -153 -186 q189 -80 189 -220 q0 -100 -89 -167 q-89 -67 -240 -67 q-159 0 -248.5 68 q-89.5 68 -89.5 163 q0 137 189 210 ZM1427 482 q103 26 146 60 q43 34 43 85 q0 119 -184 119 q-78 0 -128.5 -32 q-50.5 -32 -50.5 -87 q0 -54 55 -93 q55 -39 119 -52 ZM1415 375 q-206 -47 -206 -163 q0 -59 54.5 -98.5 q54.5 -39.5 169.5 -39.5 q94 0 150.5 37.5 q56.5 37.5 56.5 95.5 q0 113 -225 168 Z" /><glyph glyph-name="fiveeighths" unicode="&#x215d;" d="M634 1365 l-10 -101 l-415 0 l-17 -238 q88 79 199 79 q117 0 208 -77.5 q91 -77.5 91 -208.5 q0 -127 -96 -208 q-96 -81 -234 -81 q-110 0 -195.5 55 q-85.5 55 -112.5 147 l103 34 q59 -142 202 -142 q102 0 159.5 55 q57.5 55 57.5 141 q0 89 -56.5 139 q-56.5 50 -136.5 50 q-123 0 -197 -110 l-94 18 l29 448 l515 0 ZM552 0 l-126 0 l827 1365 l124 0 l-825 -1365 ZM1281 425 q-148 65 -148 193 q0 95 81.5 156.5 q81.5 61.5 217.5 61.5 q136 0 213.5 -60 q77.5 -60 77.5 -152 q0 -129 -154 -186 q189 -80 189 -220 q0 -100 -88.5 -167 q-88.5 -67 -239.5 -67 q-162 0 -250.5 68.5 q-88.5 68.5 -88.5 162.5 q0 137 190 210 ZM1428 482 q102 25 145 59.5 q43 34.5 43 85.5 q0 119 -183 119 q-78 0 -128.5 -32 q-50.5 -32 -50.5 -87 q0 -54 54.5 -93 q54.5 -39 119.5 -52 ZM1416 375 q-207 -47 -207 -163 q0 -61 57 -99.5 q57 -38.5 167 -38.5 q94 0 151 37.5 q57 37.5 57 95.5 q0 113 -225 168 Z" /><glyph glyph-name="seveneighths" unicode="&#x215e;" d="M383 546 l-123 0 q0 389 290 717 l-451 0 l12 102 l572 0 l0 -70 q-151 -172 -226 -359 q-75 -187 -75 -356 q0 -11 1 -34 ZM462 0 l-125 0 l827 1365 l124 0 l-826 -1365 ZM1267 425 q-149 65 -149 193 q0 95 82 156.5 q82 61.5 218 61.5 q136 0 213 -60 q77 -60 77 -152 q0 -129 -153 -186 q189 -80 189 -220 q0 -100 -89 -167 q-89 -67 -240 -67 q-158 0 -248 68 q-90 68 -90 163 q0 137 190 210 ZM1413 482 q103 26 146 60 q43 34 43 85 q0 119 -183 119 q-78 0 -128.5 -32 q-50.5 -32 -50.5 -87 q0 -54 54.5 -93 q54.5 -39 118.5 -52 ZM1402 375 q-207 -47 -207 -163 q0 -61 56.5 -99.5 q56.5 -38.5 167.5 -38.5 q94 0 150.5 37.5 q56.5 37.5 56.5 95.5 q0 113 -224 168 Z" /><glyph glyph-name="arrowleft" unicode="&#x2190;" d="M492 157 q-121 135 -209 205.5 q-88 70.5 -204 131.5 l0 46 q116 61 203 130.5 q87 69.5 210 205.5 l76 0 q-46 -96 -77.5 -147.5 q-31.5 -51.5 -88.5 -124.5 l1566 0 l0 -175 l-1566 0 q55 -69 88 -122.5 q33 -53.5 78 -149.5 l-76 0 Z" /><glyph glyph-name="arrowup" unicode="&#x2191;" d="M153 926 q135 122 205.5 209.5 q70.5 87.5 131.5 203.5 l45 0 q61 -116 130.5 -202.5 q69.5 -86.5 206.5 -210.5 l0 -76 q-97 46 -148.5 78 q-51.5 32 -123.5 88 l0 -1445 l-175 0 l0 1445 q-69 -54 -122.5 -87 q-53.5 -33 -149.5 -79 l0 76 Z" /><glyph glyph-name="arrowright" unicode="&#x2192;" d="M1555 876 q122 -135 209.5 -205 q87.5 -70 203.5 -132 l0 -45 q-116 -61 -202.5 -130.5 q-86.5 -69.5 -210.5 -206.5 l-76 0 q46 97 78 148.5 q32 51.5 88 123.5 l-1566 0 l0 175 l1566 0 q-54 69 -87 122.5 q-33 53.5 -79 149.5 l76 0 Z" /><glyph glyph-name="arrowdown" unicode="&#x2193;" d="M871 -16 q-135 -122 -205.5 -209.5 q-70.5 -87.5 -131.5 -203.5 l-45 0 q-61 116 -131 202.5 q-70 86.5 -206 210.5 l0 76 q97 -46 148.5 -78 q51.5 -32 123.5 -88 l0 1445 l175 0 l0 -1445 q69 54 122.5 87 q53.5 33 149.5 79 l0 -76 Z" /><glyph glyph-name="arrowboth" unicode="&#x2194;" d="M402 604 l1243 0 q-54 68 -87 122 q-33 54 -79 150 l76 0 q122 -135 209.5 -205 q87.5 -70 203.5 -132 l0 -45 q-116 -61 -202.5 -130.5 q-86.5 -69.5 -210.5 -206.5 l-76 0 q46 97 77.5 148 q31.5 51 88.5 124 l-1243 0 q55 -69 88 -122.5 q33 -53.5 78 -149.5 l-76 0 q-121 135 -209 205.5 q-88 70.5 -204 131.5 l0 46 q116 61 203 130.5 q87 69.5 210 205.5 l76 0 q-46 -96 -77.5 -147.5 q-31.5 -51.5 -88.5 -124.5 Z" /><glyph glyph-name="arrowupdn" unicode="&#x2195;" d="M600 1139 l0 -1243 q68 54 122 87.5 q54 33.5 150 79.5 l0 -77 q-135 -121 -205.5 -208.5 q-70.5 -87.5 -131.5 -204.5 l-45 0 q-61 116 -131 203 q-70 87 -206 210 l0 77 q96 -47 147.5 -78 q51.5 -31 124.5 -89 l0 1243 q-69 -54 -122.5 -87 q-53.5 -33 -149.5 -79 l0 76 q135 122 205.5 209.5 q70.5 87.5 131.5 204.5 l45 0 q61 -117 130.5 -203.5 q69.5 -86.5 206.5 -210.5 l0 -76 q-97 46 -148.5 78 q-51.5 32 -123.5 88 Z" /><glyph glyph-name="arrowupdnbse" unicode="&#x21a8;" d="M599 1139 l0 -1243 q68 54 122 87.5 q54 33.5 150 79.5 l0 -77 q-135 -121 -205.5 -208.5 q-70.5 -87.5 -131.5 -204.5 l-45 0 q-61 116 -131 203 q-70 87 -206 210 l0 77 q96 -47 147.5 -78 q51.5 -31 124.5 -89 l0 1243 q-69 -54 -122.5 -87 q-53.5 -33 -149.5 -79 l0 76 q135 122 205.5 209.5 q70.5 87.5 131.5 204.5 l45 0 q61 -117 130.5 -203.5 q69.5 -86.5 206.5 -210.5 l0 -76 q-97 46 -148.5 78 q-51.5 32 -123.5 88 ZM152 -502 l719 0 l0 -175 l-719 0 l0 175 Z" /><glyph glyph-name="partialdiff" unicode="&#x2202;" d="M295 1120 l-45 0 q131 303 379 303 q161 0 263.5 -127 q102.5 -127 102.5 -376 q0 -358 -164.5 -654.5 q-164.5 -296.5 -427.5 -296.5 q-155 0 -246 91 q-91 91 -91 245 q0 239 166.5 420.5 q166.5 181.5 383.5 181.5 q222 0 312 -190 l4 0 q10 144 10 186 q0 175 -92.5 276 q-92.5 101 -253.5 101 q-194 0 -301 -160 ZM911 629 q-81 225 -284 225 q-178 0 -286 -190.5 q-108 -190.5 -108 -399.5 q0 -108 54 -172.5 q54 -64.5 143 -64.5 q136 0 279.5 162.5 q143.5 162.5 201.5 439.5 Z" /><glyph glyph-name="Delta" unicode="&#x2206;" d="M668 1409 l577 -1409 l-1233 0 l656 1409 ZM594 1059 l-447 -959 l844 0 l-397 959 Z" /><glyph glyph-name="product" unicode="&#x220f;" d="M1645 -207 l-629 0 l0 47 q120 0 159.5 41 q39.5 41 39.5 125 l0 1419 l-734 0 l0 -1419 q0 -84 39.5 -125 q39.5 -41 159.5 -41 l0 -47 l-629 0 l0 47 q122 0 160.5 41 q38.5 41 38.5 125 l0 1282 q0 101 -48.5 152 q-48.5 51 -146.5 51 l0 47 l1586 0 l0 -47 q-98 0 -146.5 -51 q-48.5 -51 -48.5 -152 l0 -1282 q0 -84 38.5 -125 q38.5 -41 160.5 -41 l0 -47 Z" /><glyph glyph-name="summation" unicode="&#x2211;" d="M1423 238 q-32 -125 -54 -240 q-22 -115 -34 -219 q-63 11 -102.5 16.5 q-39.5 5.5 -54.5 5.5 l-1031 0 q-20 0 -59 -3 q-39 -3 -59 -3 l714 815 l-710 930 q70 -7 123 -10.5 q53 -3.5 90 -3.5 l1018 0 l12 -326 l-41 0 q-31 102 -52.5 141 q-21.5 39 -81.5 66 q-30 13 -74.5 20 q-44.5 7 -104.5 7 l-539 0 l559 -734 l-602 -694 l760 0 q127 0 177.5 52 q50.5 52 98.5 180 l47 0 Z" /><glyph glyph-name="minus" unicode="&#x2212;" d="M123 753 l956 0 l0 -138 l-956 0 l0 138 Z" /><glyph glyph-name="fraction" unicode="&#x2215;" d="M-247 0 l-112 0 l827 1365 l110 0 l-825 -1365 Z" /><glyph glyph-name="periodcentered" unicode="&#x2219;" d="M223 795 l0 -224 l-223 0 l0 224 l223 0 Z" /><glyph glyph-name="radical" unicode="&#x221a;" d="M1055 1868 l-307 -1946 l-498 1028 l-197 -96 l-33 68 l299 147 l404 -825 l260 1634 l72 -10 Z" /><glyph glyph-name="infinity" unicode="&#x221e;" d="M653 668 q71 169 159 222.5 q88 53.5 212 53.5 q161 0 272 -116.5 q111 -116.5 111 -301.5 q0 -186 -111.5 -303 q-111.5 -117 -238.5 -117 q-95 0 -170.5 63 q-75.5 63 -165.5 224 q-117 -233 -324 -233 q-149 0 -246.5 104.5 q-97.5 104.5 -97.5 263.5 q0 157 89 262 q89 105 218 105 q80 0 149 -42 q69 -42 144 -185 ZM750 465 q64 -138 134.5 -201 q70.5 -63 176.5 -63 q126 0 207.5 91 q81.5 91 81.5 234 q0 140 -84 240 q-84 100 -199 100 q-55 0 -97.5 -21.5 q-42.5 -21.5 -74.5 -62 q-32 -40.5 -64 -116.5 l-81 -201 ZM614 557 l11 33 q-96 215 -267 215 q-110 0 -179.5 -76.5 q-69.5 -76.5 -69.5 -198.5 q0 -123 66.5 -207.5 q66.5 -84.5 162.5 -84.5 q82 0 149.5 65 q67.5 65 126.5 254 Z" /><glyph glyph-name="orthogonal" unicode="&#x221f;" d="M123 0 l0 1782 l135 0 l0 -1647 l1667 0 l0 -135 l-1802 0 Z" /><glyph glyph-name="intersection" unicode="&#x2229;" d="M292 0 l-134 0 l0 637 q0 279 13.5 392.5 q13.5 113.5 81 222.5 q67.5 109 200 182.5 q132.5 73.5 283.5 73.5 q152 0 284.5 -74.5 q132.5 -74.5 198 -178 q65.5 -103.5 81 -218 q15.5 -114.5 15.5 -400.5 l0 -637 l-134 0 l0 644 q0 241 -12 345.5 q-12 104.5 -60.5 188 q-48.5 83.5 -152.5 142 q-104 58.5 -220 58.5 q-117 0 -221 -60 q-104 -60 -151 -141 q-47 -81 -59.5 -186 q-12.5 -105 -12.5 -347 l0 -644 Z" /><glyph glyph-name="integral" unicode="&#x222b;" d="M602 1760 q0 -39 -29.5 -64 q-29.5 -25 -75.5 -25 q-37 0 -60 25 q-23 25 -44 25 q-18 0 -27.5 -14.5 q-9.5 -14.5 -9.5 -43.5 q0 -34 19.5 -256 q19.5 -222 19.5 -551 q0 -505 -30 -709.5 q-30 -204.5 -79 -282.5 q-26 -41 -67.5 -62 q-41.5 -21 -85.5 -21 q-49 0 -86 35 q-37 35 -37 85 q0 38 25.5 65 q25.5 27 64.5 27 q34 0 65.5 -33 q31.5 -33 44.5 -33 q25 0 39.5 44.5 q14.5 44.5 14.5 153.5 q0 37 -6 197 q-6 160 -6 562 q0 481 17 638.5 q17 157.5 41 215.5 q29 70 69 104 q40 34 84 34 q57 0 98 -32.5 q41 -32.5 41 -83.5 Z" /><glyph glyph-name="approxequal" unicode="&#x2248;" d="M1022 874 l51 0 q-21 -155 -95.5 -238 q-74.5 -83 -186.5 -83 q-97 0 -304 117 q-139 78 -211 78 q-149 0 -178 -187 l-47 0 q20 154 93.5 238 q73.5 84 181.5 84 q47 0 107 -19.5 q60 -19.5 224 -107.5 q118 -62 193 -62 q144 0 172 180 ZM1022 487 l51 0 q-21 -155 -95.5 -238 q-74.5 -83 -186.5 -83 q-96 0 -268.5 97 q-172.5 97 -246.5 97 q-149 0 -178 -186 l-47 0 q20 153 93.5 236.5 q73.5 83.5 181.5 83.5 q47 0 112 -21.5 q65 -21.5 219 -103.5 q118 -62 193 -62 q144 0 172 180 Z" /><glyph glyph-name="notequal" unicode="&#x2260;" d="M1106 279 l-621 0 l-184 -330 l-100 57 l151 273 l-321 0 l0 112 l385 0 l157 285 l-542 0 l0 112 l606 0 l186 336 l101 -57 l-156 -279 l338 0 l0 -112 l-399 0 l-160 -285 l559 0 l0 -112 Z" /><glyph glyph-name="equivalence" unicode="&#x2261;" d="M157 1064 l887 0 l0 -138 l-887 0 l0 138 ZM157 764 l887 0 l0 -139 l-887 0 l0 139 ZM157 464 l887 0 l0 -139 l-887 0 l0 139 Z" /><glyph glyph-name="lessequal" unicode="&#x2264;" d="M1077 240 l-1018 471 l0 127 l1018 471 l0 -127 l-887 -408 l887 -407 l0 -127 ZM1077 0 l-1018 0 l0 112 l1018 0 l0 -112 Z" /><glyph glyph-name="greaterequal" unicode="&#x2265;" d="M1077 711 l-1018 -471 l0 127 l887 407 l-887 408 l0 127 l1018 -471 l0 -127 ZM1077 0 l-1018 0 l0 112 l1018 0 l0 -112 Z" /><glyph glyph-name="house" unicode="&#x2302;" d="M153 0 l0 634 l461 519 l462 -519 l0 -634 l-923 0 ZM234 81 l761 0 l0 519 l-381 427 l-380 -427 l0 -519 Z" /><glyph glyph-name="revlogicalnot" unicode="&#x2310;" d="M1044 546 l0 -138 l-734 0 l0 -408 l-153 0 l0 546 l887 0 Z" /><glyph glyph-name="integraltp" unicode="&#x2320;" d="M691 -515 l-145 0 l0 1811 q0 219 89.5 330 q89.5 111 202.5 111 q67 0 102.5 -32.5 q35.5 -32.5 35.5 -76.5 q0 -40 -25.5 -66 q-25.5 -26 -62.5 -26 q-30 0 -57 15 q-18 10 -41.5 46.5 q-23.5 36.5 -46.5 36.5 q-17 0 -31 -12 q-10 -8 -14 -27 q-7 -33 -7 -139 l0 -1971 Z" /><glyph glyph-name="integralbt" unicode="&#x2321;" d="M546 1737 l145 0 l0 -1811 q0 -219 -89.5 -330 q-89.5 -111 -202.5 -111 q-67 0 -102.5 32.5 q-35.5 32.5 -35.5 76.5 q0 40 25.5 66 q25.5 26 61.5 26 q31 0 59 -16 q18 -10 41 -46 q23 -36 46 -36 q17 0 31 11 q10 8 14 29 q7 32 7 138 l0 1971 Z" /><glyph glyph-name="SF100000" unicode="&#x2500;" d="M1473 534 l-1496 0 l0 175 l1496 0 l0 -175 Z" /><glyph glyph-name="SF110000" unicode="&#x2502;" d="M638 -621 l0 2485 l175 0 l0 -2485 l-175 0 Z" /><glyph glyph-name="SF010000" unicode="&#x250c;" d="M1474 709 l0 -175 l-661 0 l0 -1155 l-175 0 l0 1330 l836 0 Z" /><glyph glyph-name="SF030000" unicode="&#x2510;" d="M637 534 l-660 0 l0 175 l835 0 l0 -1330 l-175 0 l0 1155 Z" /><glyph glyph-name="SF020000" unicode="&#x2514;" d="M638 534 l0 1330 l175 0 l0 -1155 l661 0 l0 -175 l-836 0 Z" /><glyph glyph-name="SF040000" unicode="&#x2518;" d="M812 534 l-835 0 l0 175 l660 0 l0 1155 l175 0 l0 -1330 Z" /><glyph glyph-name="SF080000" unicode="&#x251c;" d="M638 -621 l0 2485 l175 0 l0 -1155 l661 0 l0 -175 l-661 0 l0 -1155 l-175 0 Z" /><glyph glyph-name="SF090000" unicode="&#x2524;" d="M637 -621 l0 1155 l-660 0 l0 175 l660 0 l0 1155 l175 0 l0 -2485 l-175 0 Z" /><glyph glyph-name="SF060000" unicode="&#x252c;" d="M637 534 l-660 0 l0 175 l1496 0 l0 -175 l-661 0 l0 -1155 l-175 0 l0 1155 Z" /><glyph glyph-name="SF070000" unicode="&#x2534;" d="M1473 534 l-1496 0 l0 175 l660 0 l0 1155 l175 0 l0 -1155 l661 0 l0 -175 Z" /><glyph glyph-name="SF050000" unicode="&#x253c;" d="M637 534 l-660 0 l0 175 l660 0 l0 1155 l175 0 l0 -1155 l661 0 l0 -175 l-661 0 l0 -1155 l-175 0 l0 1155 Z" /><glyph glyph-name="SF430000" unicode="&#x2550;" d="M1473 724 l-1496 0 l0 175 l1496 0 l0 -175 ZM1473 344 l-1496 0 l0 175 l1496 0 l0 -175 Z" /><glyph glyph-name="SF240000" unicode="&#x2551;" d="M829 -621 l0 2485 l175 0 l0 -2485 l-175 0 ZM448 -621 l0 2485 l175 0 l0 -2485 l-175 0 Z" /><glyph glyph-name="SF510000" unicode="&#x2552;" d="M638 -621 l0 1520 l836 0 l0 -175 l-661 0 l0 -205 l661 0 l0 -175 l-661 0 l0 -965 l-175 0 Z" /><glyph glyph-name="SF520000" unicode="&#x2553;" d="M448 -621 l0 1330 l1027 0 l0 -175 l-471 0 l0 -1155 l-175 0 l0 1155 l-206 0 l0 -1155 l-175 0 Z" /><glyph glyph-name="SF390000" unicode="&#x2554;" d="M623 -621 l-175 0 l0 1520 l1026 0 l0 -175 l-851 0 l0 -1345 ZM1004 344 l0 -965 l-175 0 l0 1140 l645 0 l0 -175 l-470 0 Z" /><glyph glyph-name="SF220000" unicode="&#x2555;" d="M637 344 l-660 0 l0 175 l660 0 l0 205 l-660 0 l0 175 l835 0 l0 -1520 l-175 0 l0 965 Z" /><glyph glyph-name="SF210000" unicode="&#x2556;" d="M448 -621 l0 1155 l-471 0 l0 175 l1026 0 l0 -1330 l-175 0 l0 1155 l-206 0 l0 -1155 l-174 0 Z" /><glyph glyph-name="SF250000" unicode="&#x2557;" d="M828 -621 l0 1345 l-851 0 l0 175 l1026 0 l0 -1520 l-175 0 ZM447 344 l-470 0 l0 175 l645 0 l0 -1140 l-175 0 l0 965 Z" /><glyph glyph-name="SF500000" unicode="&#x2558;" d="M638 344 l0 1520 l175 0 l0 -965 l661 0 l0 -175 l-661 0 l0 -205 l661 0 l0 -175 l-836 0 Z" /><glyph glyph-name="SF490000" unicode="&#x2559;" d="M1475 534 l-1027 0 l0 1330 l175 0 l0 -1155 l206 0 l0 1155 l175 0 l0 -1155 l471 0 l0 -175 Z" /><glyph glyph-name="SF380000" unicode="&#x255a;" d="M623 1864 l0 -1345 l850 0 l0 -175 l-1025 0 l0 1520 l175 0 ZM1004 899 l470 0 l0 -175 l-645 0 l0 1140 l175 0 l0 -965 Z" /><glyph glyph-name="SF280000" unicode="&#x255b;" d="M812 344 l-835 0 l0 175 l660 0 l0 205 l-660 0 l0 175 l660 0 l0 965 l175 0 l0 -1520 Z" /><glyph glyph-name="SF270000" unicode="&#x255c;" d="M1003 534 l-1026 0 l0 175 l470 0 l0 1155 l175 0 l0 -1155 l206 0 l0 1155 l175 0 l0 -1330 Z" /><glyph glyph-name="SF260000" unicode="&#x255d;" d="M828 1864 l175 0 l0 -1520 l-1026 0 l0 175 l851 0 l0 1345 ZM447 899 l0 965 l175 0 l0 -1140 l-645 0 l0 175 l470 0 Z" /><glyph glyph-name="SF360000" unicode="&#x255e;" d="M638 -621 l0 2485 l175 0 l0 -965 l661 0 l0 -175 l-661 0 l0 -205 l661 0 l0 -175 l-661 0 l0 -965 l-175 0 Z" /><glyph glyph-name="SF370000" unicode="&#x255f;" d="M829 -621 l0 2485 l175 0 l0 -1155 l470 0 l0 -175 l-470 0 l0 -1155 l-175 0 ZM448 -621 l0 2485 l175 0 l0 -2485 l-175 0 Z" /><glyph glyph-name="SF420000" unicode="&#x2560;" d="M448 -621 l0 2485 l175 0 l0 -2485 l-175 0 ZM829 724 l0 1140 l175 0 l0 -965 l470 0 l0 -175 l-645 0 ZM829 -621 l0 1140 l645 0 l0 -175 l-470 0 l0 -965 l-175 0 Z" /><glyph glyph-name="SF190000" unicode="&#x2561;" d="M637 344 l-660 0 l0 175 l660 0 l0 205 l-660 0 l0 175 l660 0 l0 965 l175 0 l0 -2485 l-175 0 l0 965 Z" /><glyph glyph-name="SF200000" unicode="&#x2562;" d="M447 -621 l1 1155 l-471 0 l0 175 l470 0 l0 1155 l175 0 l0 -2485 l-175 0 ZM828 -621 l0 2485 l175 0 l0 -2485 l-175 0 Z" /><glyph glyph-name="SF230000" unicode="&#x2563;" d="M828 -621 l0 2485 l175 0 l0 -2485 l-175 0 ZM622 1864 l0 -1140 l-645 0 l0 175 l470 0 l0 965 l175 0 ZM447 344 l-470 0 l0 175 l645 0 l0 -1140 l-175 0 l0 965 Z" /><glyph glyph-name="SF470000" unicode="&#x2564;" d="M1473 724 l-1496 0 l0 175 l1496 0 l0 -175 ZM637 344 l-660 0 l0 175 l1496 0 l0 -175 l-661 0 l0 -965 l-175 0 l0 965 Z" /><glyph glyph-name="SF480000" unicode="&#x2565;" d="M447 -621 l0 1155 l-470 0 l0 175 l1496 0 l0 -175 l-470 0 l0 -1155 l-175 0 l0 1155 l-206 0 l0 -1155 l-175 0 Z" /><glyph glyph-name="SF410000" unicode="&#x2566;" d="M1473 724 l-1496 0 l0 175 l1496 0 l0 -175 ZM447 344 l-470 0 l0 175 l645 0 l0 -1140 l-175 0 l0 965 ZM828 -621 l0 1140 l645 0 l0 -175 l-470 0 l0 -965 l-175 0 Z" /><glyph glyph-name="SF450000" unicode="&#x2567;" d="M1473 724 l-1496 0 l0 175 l660 0 l0 965 l175 0 l0 -965 l661 0 l0 -175 ZM1473 344 l-1496 0 l0 175 l1496 0 l0 -175 Z" /><glyph glyph-name="SF460000" unicode="&#x2568;" d="M1473 534 l-1496 0 l0 175 l470 0 l0 1155 l175 0 l0 -1155 l206 0 l0 1155 l175 0 l0 -1155 l470 0 l0 -175 Z" /><glyph glyph-name="SF400000" unicode="&#x2569;" d="M622 724 l-645 0 l0 175 l470 0 l0 965 l175 0 l0 -1140 ZM1473 724 l-645 0 l0 1140 l175 0 l0 -965 l470 0 l0 -175 ZM1473 344 l-1496 0 l0 175 l1496 0 l0 -175 Z" /><glyph glyph-name="SF540000" unicode="&#x256a;" d="M637 344 l-660 0 l0 175 l660 0 l0 205 l-660 0 l0 175 l660 0 l0 965 l175 0 l0 -965 l661 0 l0 -175 l-661 0 l0 -205 l661 0 l0 -175 l-661 0 l0 -965 l-175 0 l0 965 Z" /><glyph glyph-name="SF530000" unicode="&#x256b;" d="M447 -621 l0 1155 l-470 0 l0 175 l470 0 l0 1155 l175 0 l0 -1155 l206 0 l0 1155 l175 0 l0 -1155 l470 0 l0 -175 l-470 0 l0 -1155 l-175 0 l0 1155 l-206 0 l0 -1155 l-175 0 Z" /><glyph glyph-name="SF440000" unicode="&#x256c;" d="M1003 899 l470 0 l0 -175 l-645 0 l0 1140 l175 0 l0 -965 ZM447 899 l0 965 l175 0 l0 -1140 l-645 0 l0 175 l470 0 ZM447 344 l-470 0 l0 175 l645 0 l0 -1140 l-175 0 l0 965 ZM1003 344 l0 -965 l-175 0 l0 1140 l645 0 l0 -175 l-470 0 Z" /><glyph glyph-name="upblock" unicode="&#x2580;" d="M1473 621 l-1496 0 l0 1243 l1496 0 l0 -1243 Z" /><glyph glyph-name="dnblock" unicode="&#x2584;" d="M1473 -621 l-1496 0 l0 1242 l1496 0 l0 -1242 Z" /><glyph glyph-name="block" unicode="&#x2588;" d="M-23 -621 l0 2485 l1496 0 l0 -2485 l-1496 0 Z" /><glyph glyph-name="lfblock" unicode="&#x258c;" d="M-23 -621 l0 2485 l748 0 l0 -2485 l-748 0 Z" /><glyph glyph-name="rtblock" unicode="&#x2590;" d="M726 -621 l0 2485 l748 0 l0 -2485 l-748 0 Z" /><glyph glyph-name="ltshade" unicode="&#x2591;" d="M0 1864 l121 0 l0 -125 l-121 0 l0 125 ZM482 1864 l121 0 l0 -125 l-121 0 l0 125 ZM965 1864 l121 0 l0 -125 l-121 0 l0 125 ZM241 1615 l121 0 l0 -125 l-121 0 l0 125 ZM723 1615 l121 0 l0 -125 l-121 0 l0 125 ZM1206 1615 l121 0 l0 -125 l-121 0 l0 125 ZM965 1366 l121 0 l0 -125 l-121 0 l0 125 ZM482 1366 l121 0 l0 -125 l-121 0 l0 125 ZM0 1366 l121 0 l0 -125 l-121 0 l0 125 ZM1206 1117 l121 0 l0 -125 l-121 0 l0 125 ZM723 1117 l121 0 l0 -125 l-121 0 l0 125 ZM241 1117 l121 0 l0 -125 l-121 0 l0 125 ZM0 867 l121 0 l0 -125 l-121 0 l0 125 ZM482 867 l121 0 l0 -125 l-121 0 l0 125 ZM965 867 l121 0 l0 -125 l-121 0 l0 125 ZM1206 618 l121 0 l0 -125 l-121 0 l0 125 ZM723 618 l121 0 l0 -125 l-121 0 l0 125 ZM241 618 l121 0 l0 -125 l-121 0 l0 125 ZM0 369 l121 0 l0 -125 l-121 0 l0 125 ZM482 369 l121 0 l0 -125 l-121 0 l0 125 ZM965 369 l121 0 l0 -125 l-121 0 l0 125 ZM241 120 l121 0 l0 -125 l-121 0 l0 125 ZM723 120 l121 0 l0 -125 l-121 0 l0 125 ZM1206 120 l121 0 l0 -125 l-121 0 l0 125 ZM965 -130 l121 0 l0 -125 l-121 0 l0 125 ZM482 -130 l121 0 l0 -125 l-121 0 l0 125 ZM0 -130 l121 0 l0 -125 l-121 0 l0 125 ZM241 -379 l121 0 l0 -125 l-121 0 l0 125 ZM723 -379 l121 0 l0 -125 l-121 0 l0 125 ZM1206 -379 l121 0 l0 -125 l-121 0 l0 125 Z" /><glyph glyph-name="shade" unicode="&#x2592;" d="M121 1864 l120 0 l0 -125 l-120 0 l0 125 ZM362 1864 l120 0 l0 -125 l-120 0 l0 125 ZM603 1864 l121 0 l0 -125 l-121 0 l0 125 ZM844 1864 l121 0 l0 -125 l-121 0 l0 125 ZM1086 1864 l120 0 l0 -125 l-120 0 l0 125 ZM1327 1864 l120 0 l0 -125 l-120 0 l0 125 ZM0 1615 l121 0 l0 -125 l-121 0 l0 125 ZM241 1615 l121 0 l0 -125 l-121 0 l0 125 ZM482 1615 l121 0 l0 -125 l-121 0 l0 125 ZM724 1615 l120 0 l0 -125 l-120 0 l0 125 ZM965 1615 l121 0 l0 -125 l-121 0 l0 125 ZM1206 1615 l121 0 l0 -125 l-121 0 l0 125 ZM121 1366 l120 0 l0 -125 l-120 0 l0 125 ZM362 1366 l120 0 l0 -125 l-120 0 l0 125 ZM603 1366 l121 0 l0 -125 l-121 0 l0 125 ZM844 1366 l121 0 l0 -125 l-121 0 l0 125 ZM1086 1366 l120 0 l0 -125 l-120 0 l0 125 ZM1327 1366 l120 0 l0 -125 l-120 0 l0 125 ZM241 1116 l121 0 l0 -124 l-121 0 l0 124 ZM482 1116 l121 0 l0 -124 l-121 0 l0 124 ZM724 1116 l120 0 l0 -124 l-120 0 l0 124 ZM965 1116 l121 0 l0 -124 l-121 0 l0 124 ZM1206 1116 l121 0 l0 -124 l-121 0 l0 124 ZM0 1116 l121 0 l0 -124 l-121 0 l0 124 ZM121 867 l120 0 l0 -125 l-120 0 l0 125 ZM362 867 l120 0 l0 -125 l-120 0 l0 125 ZM603 867 l121 0 l0 -125 l-121 0 l0 125 ZM844 867 l121 0 l0 -125 l-121 0 l0 125 ZM1086 867 l120 0 l0 -125 l-120 0 l0 125 ZM1327 867 l120 0 l0 -125 l-120 0 l0 125 ZM0 618 l121 0 l0 -125 l-121 0 l0 125 ZM482 618 l121 0 l0 -125 l-121 0 l0 125 ZM724 618 l120 0 l0 -125 l-120 0 l0 125 ZM965 618 l121 0 l0 -125 l-121 0 l0 125 ZM1206 618 l121 0 l0 -125 l-121 0 l0 125 ZM241 618 l121 0 l0 -125 l-121 0 l0 125 ZM1327 369 l120 0 l0 -125 l-120 0 l0 125 ZM1086 369 l120 0 l0 -125 l-120 0 l0 125 ZM844 369 l121 0 l0 -125 l-121 0 l0 125 ZM603 369 l121 0 l0 -125 l-121 0 l0 125 ZM362 369 l120 0 l0 -125 l-120 0 l0 125 ZM121 369 l120 0 l0 -125 l-120 0 l0 125 ZM0 119 l121 0 l0 -124 l-121 0 l0 124 ZM241 119 l121 0 l0 -124 l-121 0 l0 124 ZM482 119 l121 0 l0 -124 l-121 0 l0 124 ZM724 119 l120 0 l0 -124 l-120 0 l0 124 ZM965 119 l121 0 l0 -124 l-121 0 l0 124 ZM1206 119 l121 0 l0 -124 l-121 0 l0 124 ZM1327 -130 l120 0 l0 -125 l-120 0 l0 125 ZM1086 -130 l120 0 l0 -125 l-120 0 l0 125 ZM844 -130 l121 0 l0 -125 l-121 0 l0 125 ZM603 -130 l121 0 l0 -125 l-121 0 l0 125 ZM362 -130 l120 0 l0 -125 l-120 0 l0 125 ZM121 -130 l120 0 l0 -125 l-120 0 l0 125 ZM0 -379 l121 0 l0 -125 l-121 0 l0 125 ZM241 -379 l121 0 l0 -125 l-121 0 l0 125 ZM482 -379 l121 0 l0 -125 l-121 0 l0 125 ZM724 -379 l120 0 l0 -125 l-120 0 l0 125 ZM965 -380 l121 1 l0 -125 l-121 0 l0 124 ZM1206 -379 l121 0 l0 -125 l-121 0 l0 125 Z" /><glyph glyph-name="dkshade" unicode="&#x2593;" d="M1447 1490 l0 -374 l-120 0 l0 -124 l120 0 l0 -374 l-120 0 l0 -125 l120 0 l0 -374 l-120 0 l0 -124 l120 0 l0 -374 l-120 0 l0 -125 l120 0 l0 -124 l-1447 0 l0 373 l121 0 l0 125 l-121 0 l0 374 l121 0 l0 125 l-121 0 l0 373 l121 0 l0 125 l-121 0 l0 374 l121 0 l0 125 l-121 0 l0 373 l121 0 l0 125 l120 0 l0 -125 l121 0 l0 125 l120 0 l0 -125 l121 0 l0 125 l121 0 l0 -125 l120 0 l0 125 l121 0 l0 -125 l121 0 l0 125 l120 0 l0 -125 l121 0 l0 125 l120 0 l0 -249 l-120 0 l0 -125 l120 0 ZM121 1615 l0 -125 l120 0 l0 125 l-120 0 ZM362 1615 l0 -125 l120 0 l0 125 l-120 0 ZM603 1615 l0 -125 l121 0 l0 125 l-121 0 ZM844 1615 l0 -125 l121 0 l0 125 l-121 0 ZM1086 1615 l0 -125 l120 0 l0 125 l-120 0 ZM1327 1366 l-121 0 l0 -125 l121 0 l0 125 ZM1086 1366 l-121 0 l0 -125 l121 0 l0 125 ZM844 1366 l-120 0 l0 -125 l120 0 l0 125 ZM603 1366 l-121 0 l0 -125 l121 0 l0 125 ZM362 1366 l-121 0 l0 -125 l121 0 l0 125 ZM121 1116 l0 -124 l120 0 l0 124 l-120 0 ZM362 1116 l0 -124 l120 0 l0 124 l-120 0 ZM603 1116 l0 -124 l121 0 l0 124 l-121 0 ZM844 1116 l0 -124 l121 0 l0 124 l-121 0 ZM1086 1116 l0 -124 l120 0 l0 124 l-120 0 ZM362 867 l-121 0 l0 -125 l121 0 l0 125 ZM482 867 l0 -125 l121 0 l0 125 l-121 0 ZM724 867 l0 -125 l120 0 l0 125 l-120 0 ZM965 867 l0 -125 l121 0 l0 125 l-121 0 ZM1206 867 l0 -125 l121 0 l0 125 l-121 0 ZM121 618 l0 -125 l120 0 l0 125 l-120 0 ZM603 618 l0 -125 l121 0 l0 125 l-121 0 ZM482 493 l0 125 l-120 0 l0 -125 l120 0 ZM844 618 l0 -125 l121 0 l0 125 l-121 0 ZM1086 618 l0 -125 l120 0 l0 125 l-120 0 ZM1327 244 l0 125 l-121 0 l0 -125 l121 0 ZM1086 244 l0 125 l-121 0 l0 -125 l121 0 ZM844 244 l0 125 l-120 0 l0 -125 l120 0 ZM603 244 l0 125 l-121 0 l0 -125 l121 0 ZM362 244 l0 125 l-121 0 l0 -125 l121 0 ZM121 119 l0 -124 l120 0 l0 124 l-120 0 ZM362 119 l0 -124 l120 0 l0 124 l-120 0 ZM603 119 l0 -124 l121 0 l0 124 l-121 0 ZM844 119 l0 -124 l121 0 l0 124 l-121 0 ZM1086 119 l0 -124 l120 0 l0 124 l-120 0 ZM1327 -255 l0 125 l-121 0 l0 -125 l121 0 ZM1086 -255 l0 125 l-121 0 l0 -125 l121 0 ZM844 -255 l0 125 l-120 0 l0 -125 l120 0 ZM603 -255 l0 125 l-121 0 l0 -125 l121 0 ZM362 -255 l0 125 l-121 0 l0 -125 l121 0 ZM121 -379 l0 -125 l120 0 l0 125 l-120 0 ZM362 -379 l0 -125 l120 0 l0 125 l-120 0 ZM603 -379 l0 -125 l121 0 l0 125 l-121 0 ZM844 -379 l0 -125 l121 0 l0 125 l-121 0 ZM1086 -379 l0 -125 l120 0 l0 125 l-120 0 Z" /><glyph glyph-name="filledbox" unicode="&#x25a0;" d="M146 944 l944 0 l0 -944 l-944 0 l0 944 Z" /><glyph glyph-name="H22073" unicode="&#x25a1;" d="M146 944 l944 0 l0 -944 l-944 0 l0 944 ZM222 868 l0 -792 l792 0 l0 792 l-792 0 Z" /><glyph glyph-name="H18543" unicode="&#x25aa;" d="M594 909 l0 -464 l-463 0 l0 463 l463 1 Z" /><glyph glyph-name="H18551" unicode="&#x25ab;" d="M594 909 l0 -464 l-463 0 l0 463 l463 1 ZM518 833 l-311 -1 l0 -311 l311 0 l0 312 Z" /><glyph glyph-name="filledrect" unicode="&#x25ac;" d="M340 386 l1368 0 l0 -386 l-1368 0 l0 386 Z" /><glyph glyph-name="triagup" unicode="&#x25b2;" d="M304 0 l710 1419 l710 -1419 l-1420 0 Z" /><glyph glyph-name="triagrt" unicode="&#x25ba;" d="M288 1417 l1451 -724 l-1451 -724 l0 1448 Z" /><glyph glyph-name="triagdn" unicode="&#x25bc;" d="M1724 1388 l-710 -1419 l-710 1419 l1420 0 Z" /><glyph glyph-name="triaglf" unicode="&#x25c4;" d="M1739 1417 l0 -1448 l-1451 724 l1451 724 Z" /><glyph glyph-name="lozenge" unicode="&#x25ca;" d="M962 763 l-397 -763 l-122 0 l-397 763 l397 763 l122 0 l397 -763 ZM839 763 l-335 652 l-335 -652 l335 -652 l335 652 Z" /><glyph glyph-name="circle" unicode="&#x25cb;" d="M619 1018 q110 0 216 -57 q106 -57 165 -163 q59 -106 59 -220 q0 -183 -129 -312 q-129 -129 -311 -129 q-183 0 -312 129 q-129 129 -129 312 q0 115 59 220.5 q59 105.5 165 162.5 q106 57 217 57 ZM619 942 q-93 0 -180 -47 q-87 -47 -136 -135 q-49 -88 -49 -182 q0 -151 107 -258 q107 -107 258 -107 q151 0 257.5 107 q106.5 107 106.5 258 q0 94 -49 182 q-49 88 -136 135 q-87 47 -179 47 Z" /><glyph glyph-name="H18533" unicode="&#x25cf;" d="M619 1018 q110 0 216 -57 q106 -57 165 -163 q59 -106 59 -220 q0 -183 -129 -312 q-129 -129 -311 -129 q-183 0 -312 129 q-129 129 -129 312 q0 115 59 220.5 q59 105.5 165 162.5 q106 57 217 57 Z" /><glyph glyph-name="invbullet" unicode="&#x25d8;" d="M128 0 l0 980 l980 0 l0 -980 l-980 0 ZM618 692 q-84 0 -143 -59 q-59 -59 -59 -143 q0 -83 59.5 -142.5 q59.5 -59.5 142.5 -59.5 q84 0 143 59.5 q59 59.5 59 142.5 q0 84 -59 143 q-59 59 -143 59 Z" /><glyph glyph-name="invcircle" unicode="&#x25d9;" d="M42 0 l0 1155 l1155 0 l0 -1155 l-1155 0 ZM619 1018 q-111 0 -216.5 -57 q-105.5 -57 -164.5 -163 q-59 -106 -59 -221 q0 -182 129 -311 q129 -129 311 -129 q183 0 312 129 q129 129 129 311 q0 115 -59 221 q-59 106 -164.5 163 q-105.5 57 -217.5 57 ZM620 942 q91 0 178.5 -47 q87.5 -47 136.5 -134.5 q49 -87.5 49 -183.5 q0 -151 -106.5 -257.5 q-106.5 -106.5 -257.5 -106.5 q-152 0 -258.5 106.5 q-106.5 106.5 -106.5 257.5 q0 96 49 183.5 q49 87.5 136.5 134.5 q87.5 47 179.5 47 Z" /><glyph glyph-name="openbullet" unicode="&#x25e6;" d="M363 928 q104 0 177.5 -73.5 q73.5 -73.5 73.5 -177.5 q0 -104 -73.5 -177.5 q-73.5 -73.5 -177.5 -73.5 q-104 0 -177.5 73.5 q-73.5 73.5 -73.5 177.5 q0 104 73 177.5 q73 73.5 178 73.5 ZM363 852 q-73 0 -124 -51.5 q-51 -51.5 -51 -123.5 q0 -73 51.5 -124 q51.5 -51 123.5 -51 q72 0 123.5 51 q51.5 51 51.5 124 q0 72 -51 123.5 q-51 51.5 -124 51.5 Z" /><glyph glyph-name="smileface" unicode="&#x263a;" d="M1024 1156 q160 0 313 -82.5 q153 -82.5 239 -236 q86 -153.5 86 -319.5 q0 -165 -84.5 -316.5 q-84.5 -151.5 -236.5 -236 q-152 -84.5 -317 -84.5 q-166 0 -317.5 84.5 q-151.5 84.5 -236 236 q-84.5 151.5 -84.5 316.5 q0 166 85.5 319.5 q85.5 153.5 238.5 236 q153 82.5 314 82.5 ZM1024 1063 q-137 0 -267.5 -70.5 q-130.5 -70.5 -204 -201.5 q-73.5 -131 -73.5 -273 q0 -141 72 -270.5 q72 -129.5 202 -201.5 q130 -72 271 -72 q141 0 271 72 q130 72 202 201.5 q72 129.5 72 270.5 q0 142 -73.5 273 q-73.5 131 -204 201.5 q-130.5 70.5 -267.5 70.5 ZM779 731 q34 0 57.5 -23.5 q23.5 -23.5 23.5 -57.5 q0 -33 -23.5 -57 q-23.5 -24 -57.5 -24 q-33 0 -57 24 q-24 24 -24 57 q0 34 24 57.5 q24 23.5 57 23.5 ZM1268 731 q34 0 57.5 -23.5 q23.5 -23.5 23.5 -57.5 q0 -33 -23.5 -57 q-23.5 -24 -57.5 -24 q-33 0 -57 24 q-24 24 -24 57 q0 34 23.5 57.5 q23.5 23.5 57.5 23.5 ZM730 313 l62 36 q79 -144 232 -144 q153 0 231 144 l63 -36 q-50 -95 -123.5 -145 q-73.5 -50 -170.5 -50 q-98 0 -171 50 q-73 50 -123 145 Z" /><glyph glyph-name="invsmileface" unicode="&#x263b;" d="M1024 1156 q160 0 313 -82.5 q153 -82.5 239 -236 q86 -153.5 86 -319.5 q0 -165 -84.5 -316.5 q-84.5 -151.5 -236.5 -236 q-152 -84.5 -317 -84.5 q-166 0 -317.5 84.5 q-151.5 84.5 -236 236 q-84.5 151.5 -84.5 316.5 q0 166 85.5 319.5 q85.5 153.5 238.5 236 q153 82.5 314 82.5 ZM779 731 q-33 0 -57 -23.5 q-24 -23.5 -24 -57.5 q0 -33 24 -57 q24 -24 57 -24 q34 0 57.5 24 q23.5 24 23.5 57 q0 34 -23.5 57.5 q-23.5 23.5 -57.5 23.5 ZM1268 731 q-34 0 -57.5 -23.5 q-23.5 -23.5 -23.5 -57.5 q0 -33 24 -57 q24 -24 57 -24 q34 0 57.5 24 q23.5 24 23.5 57 q0 34 -23.5 57.5 q-23.5 23.5 -57.5 23.5 ZM730 313 q50 -95 123 -145 q73 -50 171 -50 q97 0 170.5 50 q73.5 50 123.5 145 l-63 36 q-78 -144 -231 -144 q-153 0 -232 144 l-62 -36 Z" /><glyph glyph-name="sun" unicode="&#x263c;" d="M902 1621 l76 0 l0 -337 q102 -7 181.5 -38.5 q79.5 -31.5 167.5 -102.5 l290 284 l52 -53 l-286 -286 q73 -95 103 -169 q38 -96 41 -185 l335 0 l0 -69 l-335 0 q-19 -193 -143 -351 l285 -291 l-57 -50 l-283 282 q-98 -72 -171 -100.5 q-73 -28.5 -180 -40.5 l0 -337 l-76 0 l0 337 q-112 15 -188.5 46 q-76.5 31 -156.5 92 l-294 -278 l-51 51 l285 286 q-66 84 -100 166 q-34 82 -45 188 l-336 0 l0 69 l336 0 q9 106 42 185.5 q33 79.5 102 163.5 l-284 287 l48 57 l292 -282 q101 70 179.5 100.5 q78.5 30.5 170.5 38.5 l0 337 ZM937 1211 q-129 0 -252 -66 q-123 -66 -191.5 -189.5 q-68.5 -123.5 -68.5 -256.5 q0 -133 67.5 -255 q67.5 -122 189.5 -190 q122 -68 255 -68 q133 0 255 68 q122 68 190 190 q68 122 68 255 q0 133 -69 256.5 q-69 123.5 -192 189.5 q-123 66 -252 66 Z" /><glyph glyph-name="female" unicode="&#x2640;" d="M796 461 l0 -402 l459 0 l0 -59 l-459 0 l0 -439 l-59 0 l0 439 l-460 0 l0 59 l460 0 l0 402 q-103 0 -225.5 65.5 q-122.5 65.5 -195 191 q-72.5 125.5 -72.5 265.5 q0 136 69.5 261 q69.5 125 193.5 194 q124 69 261 69 q136 0 260.5 -69.5 q124.5 -69.5 193.5 -194 q69 -124.5 69 -260.5 q0 -209 -143.5 -360.5 q-143.5 -151.5 -351.5 -161.5 ZM767 1451 q-118 0 -230.5 -60.5 q-112.5 -60.5 -175.5 -173.5 q-63 -113 -63 -235 q0 -195 137.5 -332.5 q137.5 -137.5 331.5 -137.5 q195 0 332.5 137.5 q137.5 137.5 137.5 332.5 q0 122 -63 235 q-63 113 -175.5 173.5 q-112.5 60.5 -231.5 60.5 Z" /><glyph glyph-name="male" unicode="&#x2642;" d="M1216 1620 l36 -16 l163 -666 l-57 -15 l-142 581 l-358 -768 q148 -75 224 -202 q76 -127 76 -272 q0 -136 -69 -260.5 q-69 -124.5 -193.5 -194 q-124.5 -69.5 -261.5 -69.5 q-136 0 -260.5 69.5 q-124.5 69.5 -193.5 194 q-69 124.5 -69 260.5 q0 217 153.5 370 q153.5 153 372.5 153 q78 0 166 -27 l360 771 l-537 -265 l-24 53 l614 303 ZM634 731 q-118 0 -230.5 -60.5 q-112.5 -60.5 -175.5 -173.5 q-63 -113 -63 -235 q0 -195 137.5 -332.5 q137.5 -137.5 331.5 -137.5 q195 0 332.5 137.5 q137.5 137.5 137.5 332.5 q0 122 -63 235 q-63 113 -175.5 173.5 q-112.5 60.5 -231.5 60.5 Z" /><glyph glyph-name="spade" unicode="&#x2660;" d="M673 1231 q26 -108 80 -193 q54 -85 192.5 -210.5 q138.5 -125.5 175.5 -193 q37 -67.5 37 -136.5 q0 -95 -64 -159 q-64 -64 -154 -64 q-82 0 -154 57 q-54 42 -101 133 q1 -147 38.5 -233.5 q37.5 -86.5 119.5 -136 q82 -49.5 219 -58.5 l7 -37 l-792 0 l7 37 q184 0 285.5 107.5 q101.5 107.5 97.5 320.5 q-45 -95 -111.5 -142.5 q-66.5 -47.5 -149.5 -47.5 q-90 0 -155 65 q-65 65 -65 154 q0 74 32 133 q45 83 146.5 166 q101.5 83 149.5 137 q74 83 107.5 148 q33.5 65 51.5 153 Z" /><glyph glyph-name="club" unicode="&#x2663;" d="M1098 0 l-848 0 l8 34 q165 35 219 69 q81 51 132.5 151 q51.5 100 51.5 210 q0 16 -1 47 q-61 -124 -148.5 -181 q-87.5 -57 -178.5 -57 q-116 0 -197 81 q-81 81 -81 199 q0 116 74 195.5 q74 79.5 165 81.5 q63 -2 166 -53 q-42 69 -54.5 105 q-12.5 36 -12.5 77 q0 115 79 193.5 q79 78.5 198 78.5 q117 0 197.5 -78.5 q80.5 -78.5 80.5 -189.5 q0 -88 -69 -186 q84 40 101 45 q27 8 61 8 q100 0 173.5 -78.5 q73.5 -78.5 73.5 -194.5 q0 -120 -80.5 -201.5 q-80.5 -81.5 -196.5 -82.5 q-77 4 -134.5 33 q-57.5 29 -107.5 80 q-35 37 -87 125 q4 -159 48.5 -251.5 q44.5 -92.5 136.5 -153.5 q62 -41 223 -72 l8 -34 Z" /><glyph glyph-name="heart" unicode="&#x2665;" d="M674 -24 q-31 118 -88.5 221.5 q-57.5 103.5 -222.5 321.5 q-121 160 -149 203 q-46 70 -66.5 128.5 q-20.5 58.5 -20.5 118.5 q0 111 74 186 q74 75 180 76 q113 -1 194 -79 q61 -58 99 -173 q32 112 92 171 q83 81 191 81 q109 0 184.5 -74 q75.5 -74 75.5 -176 q0 -91 -43.5 -188 q-43.5 -97 -170.5 -257 q-164 -207 -239 -340 q-59 -105 -90 -220 Z" /><glyph glyph-name="diamond" unicode="&#x2666;" d="M671 1234 q88 -154 218 -327 q150 -200 242 -303 q-74 -78 -242 -302 q-136 -182 -218 -326 q-27 52 -74 121 q-81 120 -201 279 q-26 35 -183 228 q101 115 260 328 q118 158 198 302 Z" /><glyph glyph-name="musicalnote" unicode="&#x266a;" d="M486 1363 l38 0 q172 0 227 -14 q79 -20 139 -77 q45 -42 71 -118.5 q26 -76.5 26 -178.5 l0 -103 l-99 0 l0 43 q0 68 -28.5 115.5 q-28.5 47.5 -84.5 72.5 q-73 32 -162 32 l-28 0 l0 -835 q0 -121 -32 -188.5 q-32 -67.5 -110 -108 q-78 -40.5 -170 -40.5 q-109 0 -172.5 61.5 q-63.5 61.5 -63.5 161.5 q0 105 76 176.5 q76 71.5 199 71.5 q78 0 174 -46 l0 975 Z" /><glyph glyph-name="musicalnotedbl" unicode="&#x266b;" d="M534 1271 l796 248 l0 -1108 q0 -124 -31.5 -187 q-31.5 -63 -107 -104 q-75.5 -41 -170.5 -41 q-109 0 -174 62.5 q-65 62.5 -65 161.5 q0 100 77 172.5 q77 72.5 199 72.5 q40 0 70.5 -7 q30.5 -7 99.5 -36 l0 724 l-595 -185 l0 -836 q0 -121 -32 -188.5 q-32 -67.5 -110 -107.5 q-78 -40 -170 -40 q-109 0 -172.5 61.5 q-63.5 61.5 -63.5 160.5 q0 105 76 176.5 q76 71.5 199 71.5 q78 0 174 -46 l0 975 Z" /><glyph glyph-name="fi" unicode="&#xf001;" d="M576 1010 l0 -123 l-234 0 l0 -887 l-158 0 l0 887 l-177 0 l0 123 l177 0 q3 142 26.5 213.5 q23.5 71.5 94.5 120.5 q71 49 173 49 q38 0 98 -11 l0 -124 q-47 11 -83 11 q-60 0 -96.5 -31 q-36.5 -31 -45.5 -76 q-9 -45 -9 -152 l234 0 ZM837 1365 l0 -174 l-169 0 l0 174 l169 0 ZM830 1010 l0 -1010 l-157 0 l0 1010 l157 0 Z" /><glyph glyph-name="fl" unicode="&#xf002;" d="M576 1010 l0 -123 l-234 0 l0 -887 l-158 0 l0 887 l-177 0 l0 123 l177 0 q3 142 26.5 213.5 q23.5 71.5 94.5 120.5 q71 49 173 49 q38 0 98 -11 l0 -124 q-47 11 -83 11 q-60 0 -96.5 -31 q-36.5 -31 -45.5 -76 q-9 -45 -9 -152 l234 0 ZM830 0 l-157 0 l0 1365 l157 0 l0 -1365 Z" /><glyph glyph-name="foursuperior" unicode="&#xf003;" d="M601 546 l-116 0 l0 191 l-418 0 l0 78 l391 567 l143 0 l0 -551 l138 0 l0 -94 l-138 0 l0 -191 ZM485 831 l0 436 q-16 -29 -31 -52 l-257 -384 l288 0 Z" /><glyph glyph-name="commaaccent" unicode="&#xf004;" d="M503 1365 l165 0 l-155 -379 l-77 0 l67 379 Z" /><glyph glyph-name="undercommaaccent" unicode="&#xf005;" d="M464 -109 l166 0 l-155 -361 l-77 0 l66 361 Z" /><glyph glyph-name="pi" unicode="&#xf006;" d="M1085 309 q-5 -155 -75.5 -248.5 q-70.5 -93.5 -167.5 -93.5 q-79 0 -138.5 91.5 q-59.5 91.5 -59.5 281.5 q0 42 2 80 q2 38 5 72 l35 329 l-231 0 q-60 -624 -98.5 -742.5 q-38.5 -118.5 -130.5 -118.5 q-39 0 -74 31 q-35 31 -35 82 q0 46 72.5 128.5 q72.5 82.5 80.5 150.5 l60 469 l-97 0 q-40 0 -78.5 -19.5 q-38.5 -19.5 -56.5 -45.5 l-43 -64 l-35 0 q49 152 120.5 228.5 q71.5 76.5 164.5 76.5 l764 0 l0 -176 l-258 0 q-12 -120 -18.5 -240 q-6.5 -120 -6.5 -241 q0 -82 38 -133 q38 -51 95 -51 q35 0 73.5 28.5 q38.5 28.5 43.5 74.5 q3 22 4.5 34.5 q1.5 12.5 1.5 15.5 l43 0 Z" /><glyph glyph-name="fi" unicode="&#xfb01;" d="M576 1010 l0 -123 l-234 0 l0 -887 l-158 0 l0 887 l-177 0 l0 123 l177 0 q3 142 26.5 213.5 q23.5 71.5 94.5 120.5 q71 49 173 49 q38 0 98 -11 l0 -124 q-47 11 -83 11 q-60 0 -96.5 -31 q-36.5 -31 -45.5 -76 q-9 -45 -9 -152 l234 0 ZM837 1365 l0 -174 l-169 0 l0 174 l169 0 ZM830 1010 l0 -1010 l-157 0 l0 1010 l157 0 Z" /><glyph glyph-name="fl" unicode="&#xfb02;" d="M576 1010 l0 -123 l-234 0 l0 -887 l-158 0 l0 887 l-177 0 l0 123 l177 0 q3 142 26.5 213.5 q23.5 71.5 94.5 120.5 q71 49 173 49 q38 0 98 -11 l0 -124 q-47 11 -83 11 q-60 0 -96.5 -31 q-36.5 -31 -45.5 -76 q-9 -45 -9 -152 l234 0 ZM830 0 l-157 0 l0 1365 l157 0 l0 -1365 Z" /></font>
</defs>
</svg>
